<svg xmlns="http://www.w3.org/2000/svg" viewBox="0 0 354 472"><defs/><path d="M354 371c-32 13-84 5-84 5s6-2 7-10c-58 11-97-10-92-18 23-22 58 5 63-3-13-8-9-16-9-16s15 8 33-2c-19-6-24-14-24-14s49-2 56-41c-17 18-57 13-57 13a28 28 0 002-17c-64 31-118-7-114-14 30-22 97 11 108-37-16-3-17-8-17-8s7-19 25-21c-5-9-32 7-64 13-28 4-61-2-61-2s16-29 49-16a45 45 0 00-14-22s19 4 33-27c-69 25-135 4-133-3 15-27 44 4 70-17-19-10-18-23-18-23s36 14 47 4c-8-8-7-17-7-17s48-4 49-26c-18 4-26-14-40-19-16-7-35-3-35-3s14-4 14-16c-8 8-28 7-28 7s17-11 13-19c-15 10-40 28-85 24C12 23 3 10 1 0H0v411c22 27 64 50 96 61l-9-17s97 24 107 12c-9-7-8-15-8-15s42 29 83-9c24-25 64-14 69-25-22 0-23-28-23-28s25 5 39-19z" fill="#122007"/></svg>