<svg xmlns="http://www.w3.org/2000/svg" viewBox="0 0 307 328"><defs/><path d="M0 127v37l2 4 22 57c7 18 11 38 24 53l-5-6s28 31 48 35a74 74 0 019-19s8 25 30 33c-3-12 3-21 3-21s23 25 57 28c-8-13-11-30-11-30s36-13 92 15a47 47 0 00-18-28s34 21 54 9c-17-4-33-20-33-20s12-1 14-10c-31 2-70-18-70-18a19 19 0 0011-12c-28 8-81-11-114-35a143 143 0 01-23-21c4 3 8 5 12 5-7-13 0-20 0-20s18 20 34 19c-6-17-4-25 5-30 9-4 19 12 33 5-13-12-13-29-13-29s17 21 42 10c-14-7-12-14-12-14s25 0 35-18c-20 8-38 0-38 0s12-7 8-19c-12 17-46 13-46 13s1-13 10-19c-12 1-18 28-56 27-35-1-73-22-76-35 16 7 33 8 44 22 5-5-1-14-1-14s8-5 25 7c1-22-18-28-18-28s29 1 47 18c6-21-9-29-9-29s17 1 46 17c2-20-23-22-23-22s16-12 68-19a50 50 0 00-51-4s-7-7 9-21c-28-4-74 32-74 32s-6-10 13-23C94 5 78 28 53 32c-21 4-45 1-53 0v95z" fill="#122007"/></svg>