<svg xmlns="http://www.w3.org/2000/svg" viewBox="0 0 403.4 559.13"><title>forest-bg-branchРесурс 7</title><path d="M403.34,19.54a18.15,18.15,0,0,1-.89-4.12c-6.08,4.29-14.94,7.72-27.82,8.93C329.2,28.64,304.1,10.26,289.45,0c-4.67,8.45,12.87,18.93,12.87,18.93s-19.81,1.64-28-6.44C274.18,23.85,288.69,28,288.69,28S269,23.74,253,30.66c-13.4,5.81-21.42,23.51-40,19.31.88,22.33,48.83,26.5,48.83,26.5s1.76,8.71-7.06,16.53c11.35,10.1,47.19-4,47.19-4s1.26,13.12-18.17,22.72c21.73,17.63,44.46.45,60.68,7.72a142.73,142.73,0,0,1-36.77,9.75c-40.94,5.12-96.43-4.16-116.38-24.39A19.43,19.43,0,0,0,195.1,120s-44-1-70.23-18.33c-2.31,9.82,7.84,15.72,7.84,15.72s-21.91,6.64-38.45,1.45c10.87,20.45,51.22,18.66,51.22,18.66a46.57,46.57,0,0,0-29.34,15.65c62.26,3.11,87.4,31.84,87.4,31.84S192.79,198.19,180,205.68c30.44,13.9,63.43,3.12,63.43,3.12a31.86,31.86,0,0,1-2.7,12.35c-1.12.14-2.26.27-3.4.39a67.4,67.4,0,0,0-16.86,3.4c.84,2.9-3.21,7.45-21.55,14.25-42.61,15.82-71.91,17-98.4.34A21.39,21.39,0,0,0,108.45,255S61,265,28.51,253c0,11.12,12.37,14.87,12.37,14.87S19.05,280.55,0,279.16c16.83,19.19,59.64,7.09,59.64,7.09a51.32,51.32,0,0,0-27.52,24.19c67.57-12.37,101.77,12.09,101.77,12.09s-8.2,16.83-20,28.09C150,357.85,182.69,338,182.69,338s3.2,12.1-3.2,23.49c25.31-1.94,41.16-26.41,41.16-26.41a81.77,81.77,0,0,1,3.89,23.64c10.72.68,71.81-16,80.39,2.15l4.14-1.49c-15.22,10.94-32.93,21.4-51.85,28.2l-38.63,4.61a11.9,11.9,0,0,1-.13,1.27c-28.56-.64-56.6-10-70.25-18,.29,14.2,27.21,20.4,27.21,20.4s-29.7,10.9-59.91-.49c19.7,25.61,55.3,19.34,55.3,19.34s-14.36,13.91-45.56,17.62c8.89,11.65,29.69,6,29.69,6a82,82,0,0,1-16.41,12.76c-14.16.88-29.11.49-41.87-2.79,18.76,24.65,45.18,16,45.18,16s2.47,30.09-20.67,33.41c20,35.49,84.05,9.57,46.92,43.47,26.91,12.55,121.53-12.44,90.13,14.17,22,14.15,66.71-16.08,66.71-16.08s7.09.35,8.39,3.45a67.71,67.71,0,0,1,16.33-5.37c18.63-4.23,34.05-10.1,51.21-18.18l2.54-1.27V19.64Z" fill="#122007"/></svg>