<svg xmlns="http://www.w3.org/2000/svg" viewBox="0 0 373 421"><defs/><path d="M0 60v266l16 17 36 51a28 28 0 005 5l2 1a28 28 0 012-10s34 29 48 27c-5-10 2-22 2-22s9 25 34 26c-4-8-7-20-7-20s38 21 53 17a20 20 0 01-7-19s15 0 28-10c11-9 20-27 30-24-17-21-41-20-41-20s11-3 10-14c-15 13-63 1-63 1s16-12 13-21c-15 7-31 8-46 4a62 62 0 008-1c-11-10-4-30-4-30s8 17 24 19c-4-14 4-22 4-22s24 17 22 26c12 0 16-6 16-6s0 15 15 18c0-12 3-19 3-19s8 15 27 11c-5-8-8-36-8-36s23 28 47 28c-3-8-3-19-3-19s26 21 44 16a48 48 0 01-13-16s7 2 16-2c-16-8-17-26-17-26s33 28 49 23c-7-9-7-15-7-15s23 4 35-15c-52 3-113-24-113-24s32 3 52-13c-8-5-11-15-11-15s19 8 31-2c-13-4-19-9-19-9s8 2 18-6a34 34 0 01-9-11s19 8 38-1a83 83 0 01-21-12s22 3 29-9c-31 0-47-12-47-12s36 2 52-26c-28 15-59 7-59 7s26-9 25-23c-16 12-53 28-88 27-18 5-38 3-56 2-15-1-30-4-46-8-20-4-40-6-57-16a83 83 0 00-11-5c-1-7 3-13 3-13s24 25 39 18c-6-7-8-29-8-29s33 26 50 13c-20-6-25-26-25-26s31 23 47 13c-13-3-19-17-19-17s19 7 30-1a14 14 0 01-7-13s32-5 32-19a69 69 0 01-46-2s7-6 1-15c-7 16-50 25-50 25s4-8-6-20c0 10-23 9-23 9s5-11 2-16C56 51 35 28 35 28s4-8 2-16c-5 3-25 6-37 3v45z" fill="#122007"/></svg>