<svg xmlns="http://www.w3.org/2000/svg" viewBox="0 0 1914.38 1023.48"><title>forest-bg-transparent</title><path d="M485,1058a29.45,29.45,0,0,0-10.25,10.18s23.41,4.62,43,1.32a140.34,140.34,0,0,0,19.35-5C529.66,1060.93,512.22,1054.66,485,1058Z" transform="translate(-2.81 -256.52)" fill="none"/><path d="M475.24,950.41a44.77,44.77,0,0,1,4.67-.66c.23-.66.43-1.31.61-1.94A19.64,19.64,0,0,1,475.24,950.41Z" transform="translate(-2.81 -256.52)" fill="none"/><path d="M454.39,928a76.56,76.56,0,0,0,18.35,4.24l2-1.39a4.39,4.39,0,0,1,.52,1.66,184.54,184.54,0,0,0,38-.81s-4-1.24-4.75-6.87c40.67,7.74,67.26-7,63.91-12.68-15.67-15.32-40.67,3.35-43.84-2.38,9.16-5.54,6.34-11.09,6.34-11.09s-10.39,5.55-22.71-1.32c13.2-4.4,16.11-10,16.11-10s-13.76-.58-25-7.88c-5,3.12-8.11,13.81-13.63,20.16a37.67,37.67,0,0,1-17.69,10.92,14.18,14.18,0,0,0,7.65,11.79c-9.68,5.11-38.29-3.87-38.29-3.87s3.78,8.27,7.83,13c-17.25,2.64-27.11-13-27.11-13s-3,9.16,1.93,15.32c-9.33,3.52-37.33-11.09-37.33-11.09s-3.17,22.18,28.53,25.17c22.57,2.13,37.95-3.76,48.62-9.92A27.86,27.86,0,0,1,454.39,928Z" transform="translate(-2.81 -256.52)" fill="none"/><path d="M313.6,640.59c4-.79,18-11.09,22.18-12.94s12.42-13.47,11.1-14-10.83,8.72-16.11,11.09S315.71,627.65,312,630,309.64,641.38,313.6,640.59Z" transform="translate(-2.81 -256.52)" fill="none"/><path d="M493.39,1117.75a56.88,56.88,0,0,0,9.34-1.16s-13.77-4.95-16.67-12.75a23.15,23.15,0,0,0-4.74,2.67C480.33,1108.55,484.93,1113.49,493.39,1117.75Z" transform="translate(-2.81 -256.52)" fill="none"/><path d="M598.69,1089.83a51.84,51.84,0,0,0-2.46-15s-10,15.5-26.06,16.73a21.82,21.82,0,0,0,2-14.88,69.67,69.67,0,0,1-16.34,6.65c-8.31,26.71-44.51,12.73-66.66,19.36,9.71,6.2,26.22,13.3,43.55,15.76.08-.3.15-.59.2-.87H558.1c.75-.34,1.51-.7,2.27-1.07.08.32.14.64.2,1,40.87-9.62,76.86-42.63,76.86-42.63S612.6,1090.71,598.69,1089.83Z" transform="translate(-2.81 -256.52)" fill="none"/><path d="M469.79,1252.2a72.21,72.21,0,0,0,12.3,2.31C477.86,1253.78,473.69,1253,469.79,1252.2Z" transform="translate(-2.81 -256.52)" fill="none"/><path d="M519.37,1252.81c1.56-.27,2.46-.46,2.46-.46a14.89,14.89,0,0,1-5-7.42l-.44-.29A15.11,15.11,0,0,0,519.37,1252.81Z" transform="translate(-2.81 -256.52)" fill="none"/><path d="M594.47,1228.32a112.7,112.7,0,0,1-15.15,6.16,35.33,35.33,0,0,0-4.77,4.09,52.36,52.36,0,0,1-15.13,10.09,150,150,0,0,0,25.54-7.31C612,1231.3,594.47,1228.32,594.47,1228.32Z" transform="translate(-2.81 -256.52)" fill="none"/><path d="M466.08,1251.45c-10.58-2.19-18.4-4.08-18.4-4.08s7.2,8.78,20.78,17.05a64,64,0,0,0,6.22-3.05S466.42,1258.84,466.08,1251.45Z" transform="translate(-2.81 -256.52)" fill="none"/><path d="M481.56,942c0-.33,0-.51,0-.51a26.65,26.65,0,0,1-11.29-.76,36.8,36.8,0,0,1-4.58,3.35S475.06,944.84,481.56,942Z" transform="translate(-2.81 -256.52)" fill="none"/><path d="M1558.77,572.25s-1.65,8.72,2.35,13.47,5.58,18.76,8.74,18.76,2.65-13.21,2.38-16.12S1558.77,572.25,1558.77,572.25Z" transform="translate(-2.81 -256.52)" fill="none"/><path d="M1550.32,613.46c-3.17,1.85,17.17,21.65,21.4,19S1553.49,611.61,1550.32,613.46Z" transform="translate(-2.81 -256.52)" fill="none"/><path d="M1199.23,494c4,2.62,23.18-17,20.19-18.85S1195.25,491.38,1199.23,494Z" transform="translate(-2.81 -256.52)" fill="none"/><path d="M1201,466.24c3,0,4.48-13.89,8.25-18.6s2.21-13.35,2.21-13.35-12.46,13.09-12.71,16S1198,466.24,1201,466.24Z" transform="translate(-2.81 -256.52)" fill="none"/><path d="M727.41,352.13s-1.66,8.72,2.34,13.47,5.58,18.75,8.75,18.75,2.64-13.2,2.38-16.11S727.41,352.13,727.41,352.13Z" transform="translate(-2.81 -256.52)" fill="none"/><path d="M267.38,591.73c-3.17,1.85,17.16,21.66,21.39,19S270.55,589.88,267.38,591.73Z" transform="translate(-2.81 -256.52)" fill="none"/><path d="M719,393.33c-3.17,1.85,17.17,21.66,21.39,19S722.13,391.48,719,393.33Z" transform="translate(-2.81 -256.52)" fill="none"/><path d="M275.83,550.52s-1.66,8.72,2.34,13.47,5.58,18.76,8.75,18.76,2.64-13.21,2.38-16.11S275.83,550.52,275.83,550.52Z" transform="translate(-2.81 -256.52)" fill="none"/><path d="M1296.34,1150.88l.35.33.23,0Z" transform="translate(-2.81 -256.52)" fill="none"/><path d="M1312.64,1164.44a24.93,24.93,0,0,0,.32-2.84,21.21,21.21,0,0,1-3.66.29C1310.36,1162.71,1311.48,1163.57,1312.64,1164.44Z" transform="translate(-2.81 -256.52)" fill="none"/><path d="M1387.05,1143l.42.86c7.52-2.17,12.76-5.08,15.15-7.66C1392.27,1139.11,1387.05,1143,1387.05,1143Z" transform="translate(-2.81 -256.52)" fill="none"/><path d="M1459.07,1213.21c-4.9,8.73-18.93,6.55-18.93,6.55a49.71,49.71,0,0,0,8.82,5.94c15.25-8.68,23.35-18.58,23.35-18.58s-10.81,2.62-24.22,5.25A71.09,71.09,0,0,0,1459.07,1213.21Z" transform="translate(-2.81 -256.52)" fill="none"/><path d="M1413.47,1008.94l.74.1.48-.77A5.05,5.05,0,0,1,1413.47,1008.94Z" transform="translate(-2.81 -256.52)" fill="none"/><path d="M566.65,995.36a15.79,15.79,0,0,0,5.54-11.09s-28.89,20-57-5.06c-9.66,4-21.21,5-21.21,5s-1.23,6.08,4.93,11.54c-7.93,7-32.93-2.82-32.93-2.82s-.88,9.16,12.68,15.85c-18.66,15.14-38.39-6.52-49.39,12.15-.92,3.3,21,11.37,50.61,10.27-2.3-1.31-5.35-3.89-5.35-8.29,12.71,4.68,29,4.05,39.62,2.89q3.9-1.11,7.82-2.49c-.23.53-.46,1-.7,1.54,2.45-.4,3.89-.7,3.89-.7a13.54,13.54,0,0,1-5-9.77c16.77,10.55,56,8,82.93-2C627.66,1003.23,641,987,641,987S573.33,1003.37,566.65,995.36Z" transform="translate(-2.81 -256.52)" fill="none"/><path d="M1596.54,662.32c4-.79,18-11.09,22.19-12.94s12.41-13.47,11.09-14-10.83,8.71-16.11,11.09-15.06,2.91-18.75,5.28S1592.58,663.11,1596.54,662.32Z" transform="translate(-2.81 -256.52)" fill="none"/><path d="M1323.38,1086.6a29.86,29.86,0,0,1-2.23-7.41c11.53,12.24,39.62,8.72,39.62,8.72a19.21,19.21,0,0,1-1.14-11.62c44.37,21.66,81.7-4.58,79-10-8.06-5.92-20.13-6-32.31-5.82-24.72,17.88-48.47.62-48.47.62a16,16,0,0,0,5.23,11c-6.32,7.93-70.11-8.3-70.11-8.3S1303.63,1077.37,1323.38,1086.6Z" transform="translate(-2.81 -256.52)" fill="none"/><path d="M1441.33,968.52c13.55-6.69,12.67-15.84,12.67-15.84s-21.27,8.38-30.79,4.15c-10.62,7.52-24,8.12-24,8.12s2.75,5.58,15.2,9.94c-11.63,6.81-21.43,1.32-21.43,1.32s-2.66,5.49,6,11c-3,5.68-26.59-12.83-41.37,2.37-3.16,5.58,21.93,20.24,60.3,12.56a11,11,0,0,1-.59,2.52,23.7,23.7,0,0,1,3.1-3.11s-13.3,2.56-22.45-18.49c48.07,17,94,2.38,92.71-2.38C1479.71,962,1460,983.67,1441.33,968.52Z" transform="translate(-2.81 -256.52)" fill="none"/><path d="M1335.22,1150.88s-.23.71-.55,1.93l1.79-.14C1335.65,1151.57,1335.22,1150.88,1335.22,1150.88Z" transform="translate(-2.81 -256.52)" fill="none"/><path d="M1016.53,988.76c1-1.34,1.37-2.47,1-3.21-11.37-8.78-31.2-4.52-47.17-6.15C976.81,984.55,993.49,990.27,1016.53,988.76Z" transform="translate(-2.81 -256.52)" fill="none"/><path d="M1023.79,947.58l-.18-.33c-2.15.6-4.15,1-5.86,1.34C1021.48,948.05,1023.79,947.58,1023.79,947.58Z" transform="translate(-2.81 -256.52)" fill="none"/><path d="M935.32,1152.37c15.82,10.46,52.79,7.92,78.25-2a90.07,90.07,0,0,0,35.72-25.15s-26.59,6.77-47.14,9.43a62.59,62.59,0,0,0,9.46,12.06c-22.89,4.58-43.59-8-43.59-8a21.92,21.92,0,0,0,2,14.88c-16-1.23-26.06-16.73-26.06-16.73a51.65,51.65,0,0,0-2.47,15c-13.9.88-38.73-15-38.73-15a223.49,223.49,0,0,0,35.59,25.55c1.07-.2,1.68-.34,1.68-.34A13.6,13.6,0,0,1,935.32,1152.37Z" transform="translate(-2.81 -256.52)" fill="none"/><path d="M765.18,442.2c4-.8,18-11.1,22.19-12.95s12.41-13.47,11.09-14-10.83,8.71-16.11,11.09-15.06,2.9-18.75,5.28S761.22,443,765.18,442.2Z" transform="translate(-2.81 -256.52)" fill="none"/><path d="M1398.26,945.57s14,1.83,25.84-1.82c-4.57-.58-16.41-2.47-24.39-7.33A20.52,20.52,0,0,1,1398.26,945.57Z" transform="translate(-2.81 -256.52)" fill="none"/><path d="M1177.3,513.11c-3.49-2.36-12.71-2.88-17.69-5.24s-14-11.52-15.2-11,6.47,12,10.46,13.87,17.2,12,20.94,12.84S1180.79,515.47,1177.3,513.11Z" transform="translate(-2.81 -256.52)" fill="none"/><path d="M998.31,923.44a20.7,20.7,0,0,1,2.05-2.05s-12.54,2.53-21.18-18.34c45.36,16.85,88.72,2.36,87.47-2.36-10.38-18.5-29,3-46.6-12,12.79-6.64,12-15.71,12-15.71s-23.59,9.78-31.06,2.79a13.63,13.63,0,0,0,4.73-10.54,25.47,25.47,0,0,0-9.39,11.75s.88,3.79,11.8,5.64c-7.75,33.72-54.59,10.39-75.19,25.53C930.54,913,960.22,934.54,998.31,923.44Z" transform="translate(-2.81 -256.52)" fill="none"/><path d="M928.17,1070.49l.67-.1s-3.82-1.22-4.48-6.8c34.63,6.93,58.43-4.34,60.43-10.71a49.18,49.18,0,0,1-16.77-6.63,15.83,15.83,0,0,0,5.55,11.09c-6.69,8-74.31-8.36-74.31-8.36S909.34,1061.28,928.17,1070.49Z" transform="translate(-2.81 -256.52)" fill="none"/><path d="M1780.28,1272.16a10.35,10.35,0,0,0-3.51,5.94c13.58,1.9,25.54,2.5,28.17-.64a16.7,16.7,0,0,1-4.2-5.64C1796.55,1280.84,1780.28,1272.16,1780.28,1272.16Z" transform="translate(-2.81 -256.52)" fill="#182b0e"/><path d="M1760.17,1275.37l3.36.61c-.9-1.1-1.42-1.86-1.42-1.86A14.2,14.2,0,0,0,1760.17,1275.37Z" transform="translate(-2.81 -256.52)" fill="#182b0e"/><path d="M1726.32,1271.61a17.17,17.17,0,0,0-2.09,8.39h10.9A111.56,111.56,0,0,1,1726.32,1271.61Z" transform="translate(-2.81 -256.52)" fill="#182b0e"/><path d="M1373,1067.48l1.37.29c.09-.18.13-.28.13-.28A10.89,10.89,0,0,1,1373,1067.48Z" transform="translate(-2.81 -256.52)" fill="#182b0e"/><path d="M960,1064.65c12.31,14.09,21.43,9.66,21.43,9.66s1.08-9,2.05-19.31C980.28,1058.54,972,1062.7,960,1064.65Z" transform="translate(-2.81 -256.52)" fill="#182b0e"/><path d="M1698.46,1280h12.29a88.27,88.27,0,0,1-6.52-9A18.36,18.36,0,0,0,1698.46,1280Z" transform="translate(-2.81 -256.52)" fill="#182b0e"/><path d="M1425.19,1078.19v14.53a19.28,19.28,0,0,0,10.29-12.48,54.77,54.77,0,0,0,1.53-10C1434.83,1072.61,1430.75,1075.57,1425.19,1078.19Z" transform="translate(-2.81 -256.52)" fill="#182b0e"/><path d="M206.24,1280a10.56,10.56,0,0,0-3-4.65s-15.39,8.63-19.32-.38c-1.38,1.19-3.44,2.92-6.11,5Z" transform="translate(-2.81 -256.52)" fill="#182b0e"/><path d="M1676,1256.23s-.8,12.91,4.85,23.77h8.9C1682.68,1271.64,1676,1256.23,1676,1256.23Z" transform="translate(-2.81 -256.52)" fill="#182b0e"/><path d="M1917.19,1210.11c-22.63,8.81-58.9,3.7-58.9,3.7s4-1.23,4.75-6.87c-40.67,7.75-67.26-7-63.92-12.67,15.68-15.33,40.68,3.34,43.85-2.38-9.15-5.55-6.34-11.09-6.34-11.09s10.39,5.54,22.72-1.32c-13.21-4.41-16.12-10-16.12-10s34.08-1.41,38.57-28.26c-11.53,12.23-39.62,8.71-39.62,8.71a19.21,19.21,0,0,0,1.14-11.62c-44.37,21.66-81.7-4.58-79.06-10,20.6-15.14,67.44,8.19,75.19-25.53-10.92-1.85-11.8-5.63-11.8-5.63s4.58-13,17.17-14.53c-3.22-6.39-22,5-44.11,8.72-19.63,3.3-43-1.32-43-1.32s11-20.34,34.43-11.19a31.42,31.42,0,0,0-9.61-15.23s13.3,2.56,22.46-18.48c-48.07,17-94,2.37-92.71-2.38,11-18.67,30.73,3,49.39-12.15-13.56-6.69-12.68-15.85-12.68-15.85s25,9.86,32.93,2.82c-6.16-5.46-4.93-11.54-4.93-11.54s33.45-2.9,34.07-18.49c-13,2.93-18.55-9.41-27.9-13.47-11.17-4.83-24.92-1.84-24.92-1.84s10.12-2.91,10-10.83c-5.72,5.63-19.54,4.49-19.54,4.49s12.24-7.31,9-13.21c-10.22,7.16-27.74,20-59.43,17s-28.52-25.17-28.52-25.17,28,14.61,37.33,11.09c-4.94-6.17-1.94-15.32-1.94-15.32s9.86,15.67,27.11,13c-4-4.76-7.83-13-7.83-13s28.61,9,38.29,3.87a14.22,14.22,0,0,1-7.65-11.8,37.6,37.6,0,0,0,17.69-10.91c6.55-7.53,9.72-21.17,16.64-21-14.17-11.71-30.64-7.14-30.64-7.14s7.14-3.7,5-11.62c-8.28,11.09-42.79,10.3-42.79,10.3s8.63-10.3,5.82-16.11c-37.68,29.23-97.47-18-97.47-18s-2.37-7.22,8.46-6.61,15.22,18.94,23.5,18a21,21,0,0,1,1.06-18s13.21,16.65,22.89,17.7c-4.93-8.8.09-14,.09-14s12.5,14.17,23.86,13.47c-4.14-12.07-3.05-17.41,3.52-20.79,6.34-3.25,12.67,7.93,22.89,3.18-9.07-8.11-9.33-20.43-9.33-20.43s12.15,15,29.75,6.87c-10.38-4.76-8.62-9.51-8.62-9.51s17.43.18,24-12.68c-13.64,5.81-26.41,0-26.41,0s8.37-4.93,5.81-13.2c-8.72,11.62-32,9-32,9s.53-9,7.13-13.21c-8.72.88-12.59,19.72-39.7,19s-58.11-19.73-52-27.21,15.85,10.66,23.07,8.9c-3.7-6.52,2-14.44,2-14.44s14.27,19.8,25.1,17.08c-3.44-5.55-2.38-20.78-2.38-20.78S1701.93,801,1715.31,794c-13.21-6.25-14.17-20.51-14.17-20.51s18.92,19.1,30.73,13.82c-8.46-3.44-11.45-13.82-11.45-13.82s12.67,7.48,21.13,3.25a9.8,9.8,0,0,1-3.7-9.86s22.71.18,24-9.51a47.88,47.88,0,0,1-30.9-6.86s5.11-3,2.11-9.78c-6.86,10-37,11.63-37,11.63s3.7-5.37-2.38-14.53c-1.14,6.52-16.46,3.87-16.46,3.87s4.39-7.39,2.72-11c-36.71,30-48.07,11.88-48.07,11.88s3.61-4.93,2.91-10.56c-4.92,1.39-24.16,1.19-30.46-4.23-12-10.3-10.74-30.37-10.74-30.37s12.32,28.44,20.77,27.38c-.7-8.28,5.9-13.38,5.9-13.38s12.7,20.59,21.36,17.78c-5.24-9.68-.49-17.26-.49-17.26s16.37,17.79,25.62,16.91c-.79-10,8.19-14.53,8.19-14.53s7.57,11,14.79,9.25c-3.35-6.69,2.37-11.1,2.37-11.1s16.82,9,19.81-1.58c-18-1.41-38.82-20.6-38.82-20.6s4.22-5.29,1.58-13.48C1628.24,705.11,1596,680,1596,680s43.59,16.12,73.7-22.18c-18.76,2.38-29.32-8.72-29.32-8.72s13.47,3.44,25.62-2.37c-5-6.61,14.26-7.14,12.94-15.85-13.47,0-21.92-11.36-21.92-11.36s24.56-8.45,20.86-20.6c-12.94,5-19.81-2.38-19.81-2.38s17.7-5.81,12.15-22.45C1665,582,1644.88,590,1644.88,590s-1.29-10.57-8.72-10.3c-21.66,60-43.32,49.92-43.32,49.92s-5.81-45.7-2.64-48.07c14.8-10,10.57,7.13,21.92,9-.52-8.46,3.7-12.15,3.7-12.15s9,7.92,17.17-1.06c-17.43-3.17-22.19-16.64-22.19-16.64s23.25,7.92,34.08-4.22C1628,553.76,1623.75,544,1623.75,544s15.58,1.32,19.54-18.49c-12.15,11.62-33,15.32-33,15.32s7.66-11.36-.27-12.67c-9.24,27.46-25.09,30.1-25.09,30.1l1.32-20.33s10.57-23,24.83-36.72c-10-4.22-24.3,10.83-24.3,10.83s.79-35.65-6.87-35.39c.53,14-4.22,46.75-4.22,46.75s-15.32-24.83-23-19.28c7.92,6.6,20.34,36.18,20.34,36.18V568a18.76,18.76,0,0,1-10.31-11.89c-2.81-9.52-.78-25.2-5.8-26.15-1.33,10-9.78,12.15-9.78,12.15s-9.51-14.52-24.56-10c5.75,3.07,4.84,12.09,8.45,18.76,4.17,7.71,12.41,12.94,12.41,12.94s-14.52,5.28-14,12.42c19-4.76,21.13-1.59,22.72,1.31s-1.06,16.91-1.06,16.91-15-14.26-19.81-8.45c8.19,6.86,12.94,15.84,11.89,20.86s-5.81,7.92-12.68,7.92-30.37-28.26-40.15-20.33a26,26,0,0,1,14.53,23.24s-13.47-2.64-14.26,6.34c21.92,1.59,23.5,17.17,23.5,17.17s-18,2.64-19.8,16.37a70.43,70.43,0,0,1,46.75,4s-7.66,4.22-7.14,11.35c14-5,20.34-1,20.34-1s-3.63,6.3-2.64,10c11.09-7.92,25.36-11.09,25.36-11.09l.52,19s-21.13,3.69-38.56.79-28.52-19-37-16.64c12.94,9.24,9,16.64,9,16.64s-32.23-25.09-52-22.45c11.1,9.24,6.61,14.26,6.61,14.26a34.84,34.84,0,0,0-35.4,3.17c36.19,4.49,47,12.94,47,12.94s-17.43,1.32-15.85,15.59c20.34-11.63,32.22-12.15,32.22-12.15s-10.3,5.54-6.6,20.34c12.41-11.63,33-12.68,33-12.68s-13.21,4.22-13,19.81c12.15-8.72,17.7-5,17.7-5s-3.94,6.11-.53,9.77c8.32-10.3,21.1-10.7,32.49-15.85s21.39-15,21.39-15,3.44,15.84-18,28.52-27.73,14.8-38,14.27-19.26-2.91-28-12.66a16.06,16.06,0,0,0,2.39-.2h-5.25a14.09,14.09,0,0,0,2.83.2c-3.13,5.29,5.82,15.3,5.82,15.3s-3.53-.53-8.29-1.68c-6.48-5.09-9.82-11-14.6-11.44a15.82,15.82,0,0,1,6.3,9.07c-5.09-1.73-10.22-4-13.52-7-4.19,6-.07,10.75,0,10.82-6.49-.95-13.58-3.26-17.6-8.62-1.73,5.6,1.55,9.67,3.84,11.71a27.53,27.53,0,0,1-15.81-6.51c-1.08,2.71,1.84,6.45,5.42,10.56a32.85,32.85,0,0,1-14-2.55c5.27,10.24,17.37,12.21,22.09,12.58a16.56,16.56,0,0,1,1.52,3.08c-.86,1.78-3,4.15-8.2,6.53a25.53,25.53,0,0,0,7.87,2.2c4.77,1.77,12.35,1.22,19.41,1.5a26.83,26.83,0,0,1-6.86,9.85c10.21,4.76,16.55-6.42,22.9-3.17,6.57,3.38,7.65,8.72,3.52,20.78,8.87.56,18.42-8,22.18-11.72.86,0,1.69,0,2.64,0h.17c1.12,2.2,2.22,6.4-1,12.24,6.88-.75,15.51-9.33,20-14.26,1.37-.22,2.78-.45,4.18-.7a20.5,20.5,0,0,1-.18,15.23c8.27,1,12.68-17.35,23.51-18s8.45,6.61,8.45,6.61-59.78,47.19-97.46,18c-2.82,5.81,5.81,16.11,5.81,16.11s-34.52.79-42.79-10.3c-2.11,7.92,5,11.62,5,11.62s-16.46-4.57-30.64,7.13c6.93-.12,10.09,13.52,16.64,21.05a37.61,37.61,0,0,0,17.7,10.91,14.23,14.23,0,0,1-7.66,11.8c9.68,5.11,38.3-3.88,38.3-3.88s-3.79,8.28-7.84,13c17.26,2.65,27.12-13,27.12-13s3,9.16-1.94,15.32c9.33,3.52,37.33-11.09,37.33-11.09s3.17,22.19-28.53,25.18-49.2-9.83-59.42-17c-3.26,5.9,9,13.21,9,13.21s-13.83,1.14-19.55-4.5c-.09,7.93,10,10.83,10,10.83s-13.75-3-24.92,1.85c-9.35,4.06-14.95,16.4-27.91,13.47.16,3.9,2.37,7,5.6,9.47-41.06,19.82-75.24-5.51-72.78-10.85,19.44-15,63.63,8.12,70.94-25.32-10.3-1.83-11.13-5.58-11.13-5.58s4.32-12.92,16.2-14.4c-3-6.34-20.76,5-41.62,8.64-18.53,3.27-40.62-1.32-40.62-1.32S1328.9,866,1351,875a31.24,31.24,0,0,0-9-15.1s12.54,2.53,21.18-18.33c-45.36,16.85-88.72,2.36-87.47-2.36,10.38-18.51,29,3,46.59-12-12.78-6.63-12-15.71-12-15.71s23.6,9.78,31.08,2.8c-5.82-5.42-4.66-11.44-4.66-11.44s31.57-2.88,32.15-18.33c-12.23,2.9-17.51-9.34-26.33-13.36-10.54-4.79-23.51-1.83-23.51-1.83s9.55-2.88,9.47-10.74c-5.4,5.59-18.44,4.45-18.44,4.45s11.54-7.24,8.47-13.09c-9.65,7.1-26.17,19.82-56.07,16.85s-26.92-25-26.92-25,26.42,14.49,35.22,11c-4.65-6.11-1.82-15.19-1.82-15.19s9.3,15.54,25.59,12.92c-3.83-4.71-7.4-12.92-7.4-12.92s27,8.91,36.14,3.84c-7.15-3.84-7.23-11.69-7.23-11.69a35.1,35.1,0,0,0,16.7-10.83c6.17-7.46,9.16-21,15.69-20.86a32.78,32.78,0,0,0-28.91-7.08,10.25,10.25,0,0,0,4.74-11.52c-7.81,11-40.37,10.22-40.37,10.22s8.14-10.22,5.48-16c-35.55,29-91.95-17.8-91.95-17.8s-2.25-7.16,8-6.55,14.37,18.76,22.18,17.81a21.35,21.35,0,0,1-.17-15.1c1.33.24,2.65.48,3.95.69,4.18,4.89,12.33,13.4,18.81,14.14-3.08-5.78-2-9.95-1-12.14h.17c.9,0,1.67,0,2.49,0,3.55,3.73,12.56,12.18,20.93,11.63-3.9-12-2.88-17.26,3.32-20.61,6-3.22,12,7.86,21.6,3.15a26.89,26.89,0,0,1-6.47-9.77c6.66-.28,13.81.27,18.32-1.48a23.28,23.28,0,0,0,7.42-2.19c-4.89-2.36-6.93-4.71-7.74-6.48a17.41,17.41,0,0,1,1.44-3c4.45-.37,15.87-2.32,20.84-12.47a29.69,29.69,0,0,1-13.26,2.53c3.38-4.08,6.14-7.79,5.12-10.47-5.32,4.52-10.49,6.16-14.92,6.45,2.16-2,5.25-6,3.62-11.6-3.79,5.31-10.48,7.59-16.61,8.54.07-.07,4-4.75,0-10.73-3.12,3-8,5.28-12.76,7,.82-2.91,2.47-6.66,5.95-9-4.51.47-7.66,6.29-13.78,11.34-4.49,1.14-7.83,1.66-7.83,1.66s8.45-9.92,5.5-15.16a14,14,0,0,0,2.67-.2h-5a15.53,15.53,0,0,0,2.25.19c-8.22,9.67-16.69,12-26.4,12.55s-15.7-1.57-35.88-14.14-17-28.28-17-28.28,9.44,9.82,20.18,14.93,22.81,5.5,30.66,15.71c3.22-3.63-.5-9.69-.5-9.69s5.23-3.67,16.7,5c.25-15.44-12.22-19.63-12.22-19.63s19.45,1,31.16,12.57c3.49-14.67-6.23-20.17-6.23-20.17s11.21.52,30.4,12c1.49-14.15-15-15.45-15-15.45s10.21-8.38,44.36-12.84a31.52,31.52,0,0,0-33.4-3.14s-4.24-5,6.23-14.14c-18.69-2.62-49.09,22.26-49.09,22.26s-3.74-7.34,8.47-16.5c-8-2.35-18.44,13.62-34.89,16.5s-36.38-.79-36.38-.79l.5-18.85s13.46,3.14,23.92,11c.93-3.7-2.49-10-2.49-10s6-3.93,19.19,1c.5-7.07-6.73-11.26-6.73-11.26a63.56,63.56,0,0,1,44.11-3.93c-1.74-13.61-18.69-16.23-18.69-16.23s1.49-15.45,22.18-17c-.75-8.9-13.46-6.28-13.46-6.28s-.75-15.19,13.71-23.05c-9.23-7.85-31.4,20.17-37.88,20.17s-11-2.88-12-7.86,3.48-13.88,11.21-20.69c-4.48-5.76-18.69,8.38-18.69,8.38s-2.49-13.88-1-16.76,3.49-6,21.43-1.3c.51-7.08-13.2-12.31-13.2-12.31s7.78-5.19,11.71-12.84c3.4-6.61,2.54-15.55,8-18.59-14.2-4.45-23.17,9.95-23.17,9.95s-8-2.09-9.22-12c-4.75.93-2.83,16.47-5.48,25.92A18.23,18.23,0,0,1,1198,430.1V402.6s11.71-29.34,19.19-35.88c-7.23-5.5-21.69,19.12-21.69,19.12s-4.48-32.48-4-46.36c-7.23-.26-6.48,35.1-6.48,35.1s-13.46-14.93-22.93-10.74c13.46,13.61,23.42,36.4,23.42,36.4l1.25,20.17s-15-2.62-23.67-29.86c-7.48,1.31-.25,12.57-.25,12.57s-19.69-3.66-31.16-15.19c3.74,19.64,18.45,18.33,18.45,18.33s-4,9.69-19.94,12.31c10.22,12.05,32.15,4.19,32.15,4.19s-4.49,13.36-20.94,16.5c7.73,8.9,16.2,1.05,16.2,1.05s4,3.66,3.5,12c10.71-1.83,6.72-18.85,20.68-8.9,3,2.36-2.49,47.66-2.49,47.66s-20.44,9.95-40.87-49.49c-7-.26-8.23,10.21-8.23,10.21s-18.94-7.86-23.92-15.71c-5.24,16.5,11.46,22.26,11.46,22.26s-6.48,7.33-18.69,2.36c-3.49,12,19.69,20.42,19.69,20.42s-8,11.27-20.69,11.27c-1.24,8.63,17,9.16,12.21,15.71,11.47,5.76,24.18,2.36,24.18,2.36s-10,11-27.67,8.64c28.41,38,69.53,22,69.53,22S1145.9,566,1102,538c-2.49,8.12,1.5,13.36,1.5,13.36s-19.69,19-36.64,20.43c2.83,10.47,18.69,1.56,18.69,1.56a9.15,9.15,0,0,1,2.25,11c6.81,1.75,14-9.16,14-9.16s8.47,4.45,7.73,14.4c8.72.87,24.17-16.76,24.17-16.76s4.49,7.51-.47,17.11c8.18,2.79,20.16-17.63,20.16-17.63s6.23,5.06,5.56,13.27c8,1,19.61-27.15,19.61-27.15s1.17,19.9-10.14,30.11c-5.94,5.38-24.1,5.58-28.74,4.19-.66,5.59,2.74,10.48,2.74,10.48s-10.72,18-45.35-11.79c-1.58,3.58,2.57,10.92,2.57,10.92s-14.45,2.62-15.53-3.85c-5.74,9.09-2.25,14.41-2.25,14.41s-28.41-1.66-34.88-11.52c-2.83,6.71,2,9.69,2,9.69a43.6,43.6,0,0,1-29.16,6.81c1.25,9.6,22.68,9.42,22.68,9.42a10,10,0,0,1-3.49,9.78c8,4.19,19.94-3.23,19.94-3.23s-2.83,10.3-10.81,13.71c11.14,5.23,29-13.71,29-13.71s-.91,14.14-13.37,20.34c12.62,6.9,31.31-13.79,31.31-13.79s1,15.1-2.24,20.6c10.22,2.7,23.67-16.94,23.67-16.94s5.4,7.86,1.91,14.32c6.82,1.75,15.95-16.23,21.77-8.82s-23.43,26.28-49,27-29.23-18-37.46-18.86c6.23,4.19,6.72,13.09,6.72,13.09s-21.93,2.62-30.15-8.9c-2.41,8.21,5.48,13.1,5.48,13.1s-12,5.76-24.92,0c6.23,12.75,22.68,12.57,22.68,12.57s1.66,4.71-8.14,9.42c16.61,8,28.07-6.81,28.07-6.81s-.24,12.22-8.8,20.26c9.64,4.71,15.62-6.37,21.6-3.15,6.2,3.35,7.23,8.64,3.32,20.61,10.71.7,22.51-13.36,22.51-13.36s4.74,5.15.09,13.88c9.13-1,21.59-17.55,21.59-17.55a21.78,21.78,0,0,1,1,17.81c7.81,1,12-17.19,22.18-17.81s8,6.55,8,6.55-56.42,46.79-92,17.81c-2.65,5.76,5.49,16,5.49,16s-32.56.78-40.38-10.22a10.3,10.3,0,0,0,4.74,11.53,32.78,32.78,0,0,0-28.91,7.06c6.54-.12,9.53,13.41,15.71,20.87a35.07,35.07,0,0,0,16.69,10.82s-.08,7.85-7.22,11.7c9.13,5.07,36.13-3.85,36.13-3.85s-3.57,8.21-7.39,12.92c16.27,2.63,25.58-12.92,25.58-12.92s2.83,9.09-1.83,15.2c8.81,3.49,35.22-11,35.22-11s3,22-26.91,25-46.43-9.75-56.07-16.85c-3.07,5.86,8.48,13.1,8.48,13.1s-13,1.14-18.45-4.45c-.08,7.86,9.47,10.73,9.47,10.73s-13-3-23.51,1.84c-8.82,4-14.1,16.26-26.33,13.35.4,10.56,15.25,15.25,24.63,17.16-7.81,2.51-17.86,6.19-28.73,8-19.64,3.3-43.05-1.32-43.05-1.32s11-20.34,34.42-11.19a31.45,31.45,0,0,0-9.6-15.23s13.3,2.56,22.45-18.49c-48.07,17-94,2.38-92.7-2.38,11-18.66,30.73,3,49.39-12.14-13.56-6.7-12.68-15.85-12.68-15.85s25,9.86,32.93,2.82c-6.16-5.46-4.93-11.54-4.93-11.54s33.45-2.9,34.07-18.49c-13,2.93-18.56-9.41-27.91-13.47C940.58,749,926.82,752,926.82,752s10.13-2.91,10-10.84c-5.72,5.64-19.54,4.49-19.54,4.49s12.24-7.3,9-13.2c-10.23,7.15-27.74,20-59.43,17s-28.53-25.18-28.53-25.18,28,14.61,37.34,11.09c-4.94-6.16-1.94-15.32-1.94-15.32s9.86,15.68,27.11,13c-4.05-4.75-7.83-13-7.83-13s28.61,9,38.29,3.88a14.23,14.23,0,0,1-7.65-11.8,37.6,37.6,0,0,0,17.69-10.91c6.55-7.53,9.72-21.17,16.64-21.05-14.17-11.71-30.64-7.13-30.64-7.13s7.13-3.7,5-11.62c-8.28,11.09-42.79,10.3-42.79,10.3s8.63-10.3,5.81-16.11c-37.67,29.23-97.46-18-97.46-18s-2.37-7.22,8.45-6.61,15.23,18.93,23.51,18A21,21,0,0,1,831,631s13.2,16.64,22.88,17.7c-4.92-8.8.1-14,.1-14s12.5,14.18,23.86,13.47c-4.14-12.07-3.06-17.4,3.52-20.78,6.34-3.25,12.67,7.93,22.89,3.17-9.07-8.1-9.34-20.42-9.34-20.42s12.15,15,29.76,6.87c-10.38-4.76-8.63-9.51-8.63-9.51s17.44.18,24-12.68c-13.64,5.81-26.41,0-26.41,0s8.36-4.93,5.81-13.2c-8.72,11.62-32,9-32,9s.53-9,7.13-13.2c-8.72.88-12.59,19.72-39.7,19S796.78,576.72,803,569.24s15.85,10.65,23.07,8.9c-3.7-6.52,2-14.45,2-14.45s14.26,19.81,25.09,17.09c-3.43-5.55-2.38-20.78-2.38-20.78s19.82,20.86,33.19,13.91c-13.2-6.25-14.17-20.52-14.17-20.52s18.93,19.11,30.73,13.82c-8.45-3.43-11.45-13.82-11.45-13.82s12.68,7.48,21.13,3.26a9.8,9.8,0,0,1-3.69-9.86s22.71.18,24-9.51a47.85,47.85,0,0,1-30.9-6.87s5.11-3,2.11-9.77c-6.87,10-37,11.62-37,11.62s3.69-5.37-2.38-14.52c-1.15,6.51-16.46,3.87-16.46,3.87s4.39-7.39,2.72-11c-36.71,30-48.07,11.89-48.07,11.89s3.61-4.93,2.91-10.56c-4.92,1.39-24.16,1.19-30.46-4.23-12-10.31-10.74-30.37-10.74-30.37s12.32,28.44,20.77,27.38c-.7-8.28,5.9-13.39,5.9-13.39s12.69,20.6,21.36,17.79c-5.25-9.68-.49-17.26-.49-17.26s16.37,17.78,25.62,16.91c-.8-10,8.19-14.53,8.19-14.53s7.56,11,14.79,9.24c-3.35-6.68,2.37-11.09,2.37-11.09s16.82,9,19.81-1.58c-18-1.41-38.82-20.61-38.82-20.61s4.22-5.28,1.58-13.47c-46.48,28.26-78.71,3.17-78.71,3.17s43.58,16.11,73.69-22.18C819.59,440.08,809,429,809,429s13.47,3.43,25.62-2.38c-5-6.6,14.27-7.13,13-15.84-13.47,0-21.93-11.36-21.93-11.36s24.57-8.45,20.87-20.6c-12.94,5-19.81-2.38-19.81-2.38s17.7-5.81,12.15-22.45c-5.28,7.92-25.36,15.85-25.36,15.85s-1.28-10.57-8.71-10.3c-21.66,60-43.32,49.92-43.32,49.92s-5.81-45.7-2.64-48.08c14.79-10,10.56,7.14,21.92,9-.52-8.45,3.7-12.14,3.7-12.14s9,7.92,17.17-1.06c-17.43-3.17-22.19-16.64-22.19-16.64s23.24,7.92,34.07-4.23c-16.9-2.64-21.12-12.41-21.12-12.41s15.58,1.32,19.54-18.49c-12.15,11.62-33,15.32-33,15.32s7.66-11.36-.26-12.68c-9.25,27.47-25.09,30.11-25.09,30.11l1.32-20.34s10.56-23,24.83-36.71c-10-4.23-24.3,10.83-24.3,10.83s.79-35.66-6.87-35.39c.53,14-4.23,46.75-4.23,46.75S729,278.44,721.33,284c7.93,6.6,20.34,36.18,20.34,36.18v27.74A18.76,18.76,0,0,1,731.37,336c-2.81-9.53-.78-25.2-5.81-26.15-1.32,10-9.77,12.15-9.77,12.15s-9.51-14.53-24.56-10c5.75,3.07,4.84,12.09,8.45,18.76,4.16,7.71,12.41,12.94,12.41,12.94s-14.53,5.28-14,12.41c19-4.75,21.13-1.58,22.72,1.32s-1.06,16.91-1.06,16.91-15-14.27-19.81-8.45c8.19,6.86,12.94,15.84,11.89,20.86s-5.81,7.92-12.68,7.92S668.77,366.39,659,374.32a26,26,0,0,1,14.53,23.24s-13.47-2.64-14.26,6.34c21.92,1.58,23.5,17.17,23.5,17.17s-18,2.64-19.81,16.37a70.38,70.38,0,0,1,46.75,4s-7.66,4.23-7.13,11.36c14-5,20.34-1.06,20.34-1.06s-3.63,6.31-2.64,10c11.09-7.92,25.36-11.09,25.36-11.09l.52,19s-21.13,3.69-38.56.79-28.52-19-37-16.64c13,9.24,9,16.64,9,16.64s-32.23-25.09-52-22.45c11.09,9.24,6.6,14.26,6.6,14.26a34.82,34.82,0,0,0-35.39,3.17c36.19,4.49,47,12.94,47,12.94S628.36,479.7,630,494c20.34-11.63,32.22-12.15,32.22-12.15s-10.3,5.54-6.6,20.33c12.41-11.62,33-12.68,33-12.68s-13.2,4.23-12.94,19.81c12.15-8.71,17.7-5,17.7-5s-4,6.11-.53,9.77c8.32-10.3,21.1-10.7,32.49-15.85s21.39-15.05,21.39-15.05,3.44,15.84-18,28.52-27.73,14.79-38,14.26-19.27-2.9-28-12.65a16.17,16.17,0,0,0,2.39-.2h-5.25a14.8,14.8,0,0,0,2.83.2c-3.13,5.29,5.82,15.29,5.82,15.29s-3.53-.53-8.3-1.67c-6.47-5.1-9.81-11-14.59-11.44a15.82,15.82,0,0,1,6.3,9.07c-5.09-1.73-10.22-4-13.52-7-4.19,6-.07,10.75,0,10.82-6.49-.95-13.58-3.26-17.6-8.62-1.73,5.6,1.55,9.67,3.84,11.71a27.48,27.48,0,0,1-15.81-6.51c-1.08,2.71,1.84,6.45,5.42,10.56a32.85,32.85,0,0,1-14-2.55c5.26,10.24,17.37,12.2,22.09,12.58a16.8,16.8,0,0,1,1.52,3.07c-.86,1.79-3,4.16-8.2,6.53a25.29,25.29,0,0,0,7.87,2.21c4.77,1.77,12.35,1.22,19.41,1.5a27.07,27.07,0,0,1-6.86,9.85c10.21,4.75,16.55-6.42,22.89-3.17,6.58,3.38,7.66,8.71,3.53,20.78,8.87.55,18.42-8,22.18-11.72.86,0,1.69,0,2.64,0h.17c1.12,2.21,2.22,6.41-1,12.25,6.88-.75,15.51-9.34,20-14.26l4.18-.7a20.52,20.52,0,0,1-.18,15.22c8.27,1,12.68-17.34,23.5-18s8.46,6.61,8.46,6.61-59.78,47.19-97.46,18c-2.82,5.81,5.81,16.11,5.81,16.11s-34.52.79-42.79-10.3c-2.12,7.92,5,11.62,5,11.62s-16.47-4.58-30.64,7.13c6.92-.12,10.09,13.51,16.64,21a37.58,37.58,0,0,0,17.7,10.92A14.22,14.22,0,0,1,608.9,662c9.69,5.11,38.3-3.88,38.3-3.88s-3.78,8.28-7.84,13c17.27,2.64,27.12-13,27.12-13s3,9.16-1.93,15.32c9.33,3.52,37.33-11.09,37.33-11.09s3.17,22.18-28.53,25.18-49.2-9.84-59.43-17c-3.25,5.89,9,13.2,9,13.2s-13.82,1.15-19.54-4.49c-.09,7.93,10,10.83,10,10.83s-13.75-3-24.92,1.85c-9.35,4.06-15,16.4-27.91,13.47.62,15.58,34.07,18.49,34.07,18.49s1.23,6.07-4.93,11.53c7.92,7,32.93-2.81,32.93-2.81s.88,9.15-12.68,15.84c18.67,15.15,38.39-6.51,49.39,12.15,1.33,4.76-44.63,19.37-92.7,2.38,9.15,21,22.44,18.49,22.44,18.49a31.47,31.47,0,0,0-9.59,15.23c23.42-9.16,34.42,11.18,34.42,11.18s-23.41,4.62-43,1.32c-22.11-3.72-40.89-15.1-44.11-8.71,12.59,1.49,17.17,14.52,17.17,14.52s-.88,3.79-11.8,5.64c7.75,33.72,54.59,10.39,75.19,25.53,2.64,5.46-34.69,31.69-79.06,10a19.26,19.26,0,0,0,1.15,11.62s-28.09,3.52-39.63-8.72a28.93,28.93,0,0,0,5.93,13.47,36.62,36.62,0,0,0-19.94-1.1s7.13-3.7,5-11.63c-8.28,11.1-42.79,10.3-42.79,10.3s8.63-10.3,5.81-16.11c-37.68,29.23-97.46-18-97.46-18s-2.38-7.22,8.45-6.6,15.23,18.93,23.51,18a21,21,0,0,1,1.06-18s13.2,16.64,22.88,17.69c-4.92-8.8.1-14,.1-14s12.5,14.17,23.86,13.47c-4.14-12.07-3.06-17.41,3.52-20.78,6.34-3.26,12.67,7.92,22.89,3.17-9.07-8.11-9.34-20.43-9.34-20.43s12.15,15,29.76,6.87c-10.38-4.75-8.63-9.51-8.63-9.51s17.44.18,24-12.68c-13.64,5.82-26.41,0-26.41,0s8.36-4.93,5.81-13.2c-8.72,11.62-32,9-32,9s.53-9,7.13-13.21c-8.72.88-12.59,19.73-39.71,19s-58.11-19.72-51.94-27.21,15.85,10.66,23.07,8.9c-3.7-6.52,2-14.44,2-14.44s14.26,19.8,25.09,17.08c-3.43-5.55-2.38-20.78-2.38-20.78S419,779.26,432.36,772.3c-13.2-6.25-14.17-20.51-14.17-20.51s18.93,19.1,30.73,13.82c-8.45-3.44-11.45-13.82-11.45-13.82s12.68,7.48,21.13,3.25a9.8,9.8,0,0,1-3.69-9.86s22.71.18,24-9.51a47.88,47.88,0,0,1-30.9-6.86s5.11-3,2.11-9.77c-6.87,9.94-37,11.62-37,11.62s3.7-5.37-2.37-14.53c-1.15,6.52-16.46,3.87-16.46,3.87s4.39-7.39,2.72-11C360.35,739,349,720.88,349,720.88s3.61-4.93,2.9-10.56c-4.91,1.39-24.15,1.19-30.46-4.23-12-10.3-10.74-30.37-10.74-30.37S323,704.16,331.47,703.1c-.7-8.28,5.9-13.38,5.9-13.38s12.69,20.6,21.36,17.78c-5.25-9.68-.49-17.25-.49-17.25s16.37,17.78,25.61,16.9c-.79-10,8.19-14.53,8.19-14.53s7.57,11,14.8,9.25c-3.35-6.69,2.37-11.1,2.37-11.1s16.82,9,19.81-1.58c-18-1.41-38.82-20.6-38.82-20.6s4.22-5.28,1.58-13.47c-46.48,28.26-78.71,3.17-78.71,3.17s43.58,16.11,73.69-22.19c-18.75,2.38-29.32-8.72-29.32-8.72s13.47,3.44,25.62-2.37c-5-6.61,14.27-7.14,12.95-15.85-13.47,0-21.93-11.36-21.93-11.36s24.57-8.45,20.87-20.6c-12.94,5-19.81-2.38-19.81-2.38s17.7-5.81,12.15-22.45c-5.28,7.93-25.36,15.85-25.36,15.85s-1.28-10.56-8.71-10.3c-21.66,60-43.32,49.92-43.32,49.92s-5.81-45.7-2.64-48.07c14.79-10,10.56,7.13,21.92,9-.53-8.45,3.7-12.15,3.7-12.15s9,7.92,17.17-1.06c-17.43-3.17-22.19-16.64-22.19-16.64s23.24,7.93,34.07-4.22C345,532,340.8,522.26,340.8,522.26s15.59,1.32,19.55-18.49c-12.15,11.63-33,15.32-33,15.32s7.66-11.35-.26-12.67C317.82,533.88,302,536.53,302,536.53l1.32-20.34s10.56-23,24.83-36.71c-10-4.23-24.3,10.82-24.3,10.82s.79-35.65-6.87-35.39c.53,14-4.23,46.75-4.23,46.75s-15.31-24.83-23-19.28c7.93,6.6,20.34,36.18,20.34,36.18V546.3a18.76,18.76,0,0,1-10.3-11.89c-2.81-9.52-.78-25.2-5.81-26.15-1.32,10-9.77,12.15-9.77,12.15s-9.51-14.52-24.56-10c5.75,3.06,4.84,12.08,8.45,18.75,4.16,7.71,12.41,12.94,12.41,12.94s-14.53,5.29-14,12.42c19-4.76,21.13-1.59,22.72,1.32s-1.06,16.9-1.06,16.9-15.06-14.26-19.81-8.45c8.19,6.86,12.94,15.84,11.89,20.86s-5.81,7.93-12.68,7.93-30.38-28.26-40.15-20.34A26,26,0,0,1,222,596s-13.47-2.64-14.26,6.34c21.92,1.59,23.5,17.17,23.5,17.17s-18,2.64-19.81,16.38a70.38,70.38,0,0,1,46.75,4S250.47,644,251,651.15c14-5,20.34-1,20.34-1s-3.63,6.3-2.64,10c11.09-7.93,25.35-11.1,25.35-11.1l.53,19s-21.13,3.7-38.56.79-28.52-19-37-16.64c12.94,9.25,9,16.64,9,16.64s-32.22-25.09-52-22.45c11.09,9.24,6.6,14.26,6.6,14.26a34.82,34.82,0,0,0-35.39,3.17c36.19,4.49,47,12.95,47,12.95s-17.43,1.32-15.84,15.58c20.34-11.62,32.22-12.15,32.22-12.15s-10.3,5.54-6.6,20.34c12.41-11.63,33-12.68,33-12.68s-13.2,4.22-12.94,19.81c12.15-8.72,17.7-5,17.7-5s-3.95,6.12-.53,9.77c8.32-10.3,21.1-10.7,32.49-15.84s21.39-15.06,21.39-15.06,3.44,15.85-18,28.53-27.73,14.79-38,14.26-19.27-2.91-28-12.66a16.17,16.17,0,0,0,2.39-.2h-5.25a14,14,0,0,0,2.83.2C208,717,216.93,727,216.93,727s-3.53-.53-8.3-1.68c-6.48-5.09-9.81-11-14.59-11.44a15.82,15.82,0,0,1,6.3,9.07c-5.09-1.73-10.22-4-13.52-7-4.19,6-.08,10.74,0,10.81-6.49-.95-13.59-3.26-17.6-8.62-1.73,5.61,1.54,9.67,3.84,11.71a27.41,27.41,0,0,1-15.81-6.51c-1.08,2.71,1.84,6.45,5.42,10.57a33,33,0,0,1-14-2.56c5.26,10.24,17.37,12.21,22.09,12.58a17.21,17.21,0,0,1,1.52,3.08c-.86,1.78-3,4.15-8.2,6.53a25.25,25.25,0,0,0,7.87,2.2c4.77,1.77,12.35,1.22,19.41,1.5a27.1,27.1,0,0,1-6.86,9.86c10.21,4.75,16.55-6.43,22.89-3.18,6.58,3.38,7.66,8.72,3.53,20.78,8.87.56,18.42-8,22.18-11.72.86,0,1.69,0,2.64,0h.17c1.12,2.2,2.22,6.41-1,12.24,6.88-.75,15.51-9.33,19.94-14.26,1.38-.22,2.78-.45,4.19-.7a20.55,20.55,0,0,1-.18,15.23c8.27,1,12.68-17.35,23.5-18s8.46,6.61,8.46,6.61-59.78,47.19-97.47,18c-2.81,5.81,5.82,16.11,5.82,16.11s-34.52.79-42.79-10.3c-2.12,7.92,5,11.62,5,11.62s-16.47-4.57-30.64,7.13c6.92-.12,10.09,13.52,16.64,21A37.6,37.6,0,0,0,165,848.54a14.19,14.19,0,0,1-7.66,11.8c9.69,5.11,38.3-3.87,38.3-3.87s-3.78,8.27-7.84,13c17.26,2.65,27.12-13,27.12-13s3,9.15-1.93,15.32c9.32,3.52,37.33-11.1,37.33-11.1s3.16,22.19-28.53,25.18-49.2-9.83-59.43-17c-3.25,5.9,9,13.21,9,13.21s-13.82,1.14-19.54-4.49c-.09,7.92,10,10.82,10,10.82s-13.75-3-24.92,1.85c-9.35,4.06-15,16.4-27.91,13.48.61,15.58,34.07,18.48,34.07,18.48s1.23,6.08-4.93,11.54c7.92,7,32.93-2.82,32.93-2.82s.88,9.15-12.68,15.85c18.66,15.14,38.39-6.52,49.39,12.14,1.32,4.76-44.64,19.38-92.7,2.38,9.15,21,22.44,18.5,22.44,18.5A31.33,31.33,0,0,0,127.92,995c23.42-9.15,34.42,11.18,34.42,11.18s-23.41,4.63-43,1.32c-22.11-3.72-40.89-15.1-44.11-8.71,12.59,1.49,17.17,14.53,17.17,14.53s-.88,3.78-11.8,5.63c7.75,33.72,54.59,10.39,75.19,25.53,2.64,5.46-34.69,31.7-79.06,10a19.18,19.18,0,0,0,1.15,11.62s-28.09,3.52-39.63-8.72c4.49,26.86,38.57,28.27,38.57,28.27s-2.91,5.63-16.11,10c12.32,6.87,22.71,1.32,22.71,1.32s2.82,5.55-6.34,11.09c3.17,5.73,28.17-12.93,43.84,2.38,3.35,5.64-23.24,20.43-63.91,12.68.7,5.63,4.75,6.87,4.75,6.87s-36.27,5.1-58.9-3.7A26.66,26.66,0,0,0,30,1139.87s-.71,19.1-15.5,19.46c3.34,7.4,30.81-.36,48,17.26,28.43,26.58,58.1,6.07,58.1,6.07a15.79,15.79,0,0,1-5.54,11.09c6.68,8,74.3-8.36,74.3-8.36s-13.29,16.23-37.86,25.35c-27,10-66.16,12.58-82.93,2a13.54,13.54,0,0,0,5,9.77s-30,6.34-50.63-1.23c0,7,7.84,9.42,7.84,9.42s-13.82,8-25.89,7.13c10.66,12.15,37.77,4.49,37.77,4.49a32.52,32.52,0,0,0-17.43,15.32c42.79-7.84,64.45,7.66,64.45,7.66A77.13,77.13,0,0,1,80,1280h29.85a65.17,65.17,0,0,0,10.78-4.9,20.86,20.86,0,0,1,.5,4.9h17.76a43.36,43.36,0,0,0,5.78-6.74,50.46,50.46,0,0,1,1.67,6.74h27.53c4.21-2.13,7.75-4.17,9.87-5.44-.1-.28-.2-.56-.28-.87.71-.06,1.43-.16,2.16-.27l.25-.16-.16.14c17.39-2.84,36.52-21.33,36.52-21.33s-4.22-5.55-1.58-14.14c46.43,29.66,78.61,3.32,78.61,3.32s-43.53,16.91-73.6-23.28c18.73,2.49,29.28-9.15,29.28-9.15s-13.45,3.61-25.59-2.49c5-6.93-14.24-7.49-12.92-16.63,13.45,0,21.89-11.93,21.89-11.93s-24.53-8.87-20.83-21.62c12.92,5.27,19.78-2.49,19.78-2.49s-17.67-6.1-12.14-23.57c5.28,8.32,25.33,16.64,25.33,16.64s1.28-11.09,8.71-10.81c21.62,62.92,43.26,52.39,43.26,52.39s5.8-48,2.63-50.45c-14.77-10.54-10.55,7.48-21.89,9.42.52-8.87-3.69-12.75-3.69-12.75s-9,8.32-17.15-1.11c17.41-3.33,22.16-17.46,22.16-17.46s-23.21,8.32-34-4.44c16.88-2.77,21.1-13,21.1-13s-15.56,1.39-19.52-19.4c12.13,12.2,33,16.08,33,16.08s-7.64-11.92.27-13.31c9.23,28.83,25.06,31.6,25.06,31.6L309,1092.12s-10.55-24.12-24.8-38.53c10-4.44,24.27,11.36,24.27,11.36s-.79-37.42,6.86-37.14c-.53,14.69,4.22,49.06,4.22,49.06s15.3-26,22.95-20.23c-7.91,6.92-20.31,38-20.31,38v29.11a19.28,19.28,0,0,0,10.29-12.48c2.81-10,.78-26.44,5.8-27.44,1.32,10.54,9.76,12.75,9.76,12.75s9.49-15.24,24.53-10.53c-5.75,3.22-4.84,12.68-8.44,19.68-4.16,8.09-12.4,13.58-12.4,13.58s14.51,5.55,14,13c-19-5-21.1-1.66-22.68,1.39s1.05,17.74,1.05,17.74,15-15,19.78-8.87c-8.17,7.21-12.92,16.63-11.86,21.9s5.8,8.31,12.66,8.31,30.33-29.66,40.09-21.34c-15.3,8.32-14.5,24.39-14.5,24.39s13.45-2.77,14.24,6.66c-21.9,1.66-23.47,18-23.47,18s17.93,2.77,19.78,17.18a67.26,67.26,0,0,0-46.69,4.16s7.65,4.44,7.12,11.92c-14-5.27-20.31-1.11-20.31-1.11s3.62,6.62,2.63,10.54c-11.07-8.32-25.32-11.65-25.32-11.65l-.52,20s21.1,3.88,38.5.83,28.5-19.95,36.94-17.46c-12.93,9.7-9,17.46-9,17.46s32.18-26.33,52-23.56c-11.08,9.7-6.59,15-6.59,15a33.53,33.53,0,0,1,21.56-3l.14-.14s-17.67-6.1-12.14-23.57c5.28,8.32,25.33,16.64,25.33,16.64s1.28-11.09,8.71-10.81c21.62,62.92,43.26,52.39,43.26,52.39s1.37-11.36,2.42-23.3a14.94,14.94,0,0,1-2.39-7.37l.44.29a15.07,15.07,0,0,0,2.17,4.46c1-11.76,1.51-23.34,0-24.53-14.77-10.54-10.55,7.48-21.89,9.42.52-8.87-3.69-12.75-3.69-12.75s-9,8.32-17.15-1.11c17.41-3.33,22.16-17.46,22.16-17.46s-23.21,8.32-34-4.44c16.88-2.77,21.1-13,21.1-13s-15.56,1.39-19.52-19.4c12.13,12.2,33,16.08,33,16.08s-7.64-11.92.27-13.31c9.23,28.83,25.06,31.6,25.06,31.6L523,1179.12s-10.55-24.12-24.8-38.53c10-4.44,24.27,11.36,24.27,11.36s-.55-26.24,3.77-34.61a117.1,117.1,0,0,1-37.05-14.62c22.15-6.63,58.35,7.35,66.66-19.36a69.67,69.67,0,0,0,16.34-6.65,21.82,21.82,0,0,1-2,14.88c16-1.23,26.06-16.73,26.06-16.73a51.84,51.84,0,0,1,2.46,15c13.91.88,38.74-15,38.74-15s-36,33-76.86,42.63c-.06-.31-.12-.63-.2-1-.76.37-1.52.73-2.27,1.07H532.94c-.05.28-.12.57-.2.87-1.15-.16-2.3-.35-3.45-.55.11,15.92,4.26,45.94,4.26,45.94s15.3-26,23-20.23c-7.91,6.92-20.31,38-20.31,38v29.11a19.28,19.28,0,0,0,10.29-12.48c2.81-10,.78-26.44,5.8-27.44,1.32,10.54,9.76,12.75,9.76,12.75s9.49-15.24,24.53-10.53c-5.75,3.22-4.84,12.68-8.44,19.68-4.16,8.09-12.4,13.58-12.4,13.58s14.51,5.55,14,13c-19-5-21.1-1.66-22.68,1.39s1.05,17.74,1.05,17.74,15-15,19.78-8.87a39.74,39.74,0,0,0-10.89,15,56.91,56.91,0,0,0,7.58-6,35.33,35.33,0,0,1,4.77-4.09,112.7,112.7,0,0,0,15.15-6.16s17.56,3-9.51,13a169.23,169.23,0,0,1-18.78,5.87,10.39,10.39,0,0,0-.18,4.25c1,5.27,5.8,8.31,12.66,8.31s30.33-29.66,40.09-21.34c-15.3,8.32-14.5,24.39-14.5,24.39s8.66-1.78,12.49,2.4a116.44,116.44,0,0,0,15.47-12.16s-4.22-5.55-1.58-14.14c46.43,29.66,78.61,3.32,78.61,3.32s-43.53,16.91-73.6-23.28c18.73,2.49,29.28-9.15,29.28-9.15s-13.45,3.61-25.59-2.49c5-6.93-14.24-7.49-12.92-16.63,13.45,0,21.89-11.93,21.89-11.93s-24.53-8.87-20.83-21.62c12.92,5.27,19.78-2.49,19.78-2.49s-17.67-6.1-12.14-23.57c5.28,8.32,25.33,16.64,25.33,16.64s1.28-11.09,8.71-10.81c21.62,62.92,43.26,52.39,43.26,52.39s5.8-48,2.63-50.45c-14.77-10.54-10.55,7.48-21.89,9.42.52-8.87-3.69-12.75-3.69-12.75s-9,8.32-17.15-1.11c17.41-3.33,22.16-17.46,22.16-17.46s-23.21,8.32-34-4.44c16.88-2.77,21.1-13,21.1-13s-15.56,1.39-19.52-19.4c12.13,12.2,33,16.08,33,16.08s-7.64-11.92.27-13.31c9.23,28.83,25.06,31.6,25.06,31.6L719,1093.12s-10.55-24.12-24.8-38.53c10-4.44,24.27,11.36,24.27,11.36s-.79-37.42,6.86-37.14c-.53,14.69,4.22,49.06,4.22,49.06s15.3-26,23-20.23c-7.91,6.92-20.31,38-20.31,38v29.11a19.28,19.28,0,0,0,10.29-12.48c2.81-10,.78-26.44,5.8-27.44,1.32,10.54,9.76,12.75,9.76,12.75s9.49-15.24,24.53-10.53c-5.75,3.22-4.84,12.68-8.44,19.68-4.16,8.09-12.4,13.58-12.4,13.58s14.51,5.55,14,13c-19-5-21.1-1.66-22.68,1.39s1.05,17.74,1.05,17.74,15-15,19.78-8.87c-8.17,7.21-12.92,16.63-11.86,21.9s5.8,8.31,12.66,8.31,30.33-29.66,40.09-21.34c-15.3,8.32-14.5,24.39-14.5,24.39s13.45-2.77,14.24,6.66c-21.9,1.66-23.47,18-23.47,18s17.93,2.77,19.78,17.18a67.26,67.26,0,0,0-46.69,4.16s7.65,4.44,7.12,11.92c-14-5.27-20.31-1.11-20.31-1.11s3.62,6.62,2.63,10.54c-11.07-8.32-25.32-11.65-25.32-11.65l-.52,20s21.1,3.88,38.5.83,28.5-19.95,36.94-17.46c-12.93,9.7-9,17.46-9,17.46s24.16-19.76,43.48-23.23a12.27,12.27,0,0,1-4.77-1.31,10.61,10.61,0,0,0,3.69-10.35s-22.68.19-24-10a46.13,46.13,0,0,0,30.87-7.21s-5.11-3.15-2.11-10.26c6.85,10.44,36.92,12.2,36.92,12.2s-3.69-5.64,2.38-15.25c1.14,6.84,16.44,4.07,16.44,4.07s-4.39-7.76-2.72-11.55c36.66,31.51,48,12.47,48,12.47s-3.6-5.17-2.89-11.09c4.91,1.47,24.12,1.26,30.42-4.43,5.7-5.16,8.4-12.64,9.67-19.06-1.78.19-3.56.34-5.32.45-4.25,7.81-9.87,16.06-14.38,15.47.71-8.69-5.89-14-5.89-14s-12.68,21.62-21.33,18.67c5.24-10.16.49-18.11.49-18.11s-16.35,18.66-25.59,17.74c.79-10.54-8.18-15.25-8.18-15.25s-7.55,11.55-14.77,9.7a9.68,9.68,0,0,0-2.37-11.64s-16.79,9.42-19.78-1.66c17.94-1.48,38.77-21.62,38.77-21.62s-4.22-5.55-1.58-14.14c16.82,10.74,31.76,14.13,44,14.1.22-.76.37-1.19.37-1.19s.29.45.83,1.17c20.81-.44,33.42-10.76,33.42-10.76s-43.53,16.91-73.6-23.28c18.73,2.49,29.28-9.15,29.28-9.15s-13.45,3.61-25.59-2.49c5-6.93-14.24-7.49-12.92-16.63,12.07,0,20.1-9.6,21.63-11.57-.58-.38-1.15-.76-1.7-1.14-5.73-2.43-21.92-10.3-18.87-20.84,12.92,5.27,19.78-2.49,19.78-2.49s-17.67-6.1-12.14-23.57c5.28,8.32,25.33,16.64,25.33,16.64s1.28-11.09,8.71-10.81c6,17.49,12,29.31,17.57,37.25,8.95.76,15.93.48,17.85-1.83a15.83,15.83,0,0,1-5.55-11.09,49,49,0,0,0,15.66,6.39c1.18-13.07,2.06-27.45.36-28.78-14.77-10.54-10.55,7.48-21.89,9.42.52-8.87-3.69-12.75-3.69-12.75s-9,8.32-17.15-1.11c17.41-3.33,22.16-17.46,22.16-17.46s-23.21,8.32-34-4.44c16.88-2.77,21.1-13,21.1-13S935,985.88,931,965.09c12.13,12.2,33,16.08,33,16.08s-7.64-11.92.27-13.31c9.23,28.83,25.06,31.6,25.06,31.6l-.78-12.58c-8.52-1.89-14.76-4.76-18.15-7.48a164,164,0,0,0,17.71.36l-.1-1.64S977.45,954,963.2,939.59c10-4.44,24.27,11.36,24.27,11.36s-.3-14.49,1.31-25.37c-33.38,5.39-58-13-55.88-17.47,20.6-15.14,67.44,8.19,75.19-25.53-10.92-1.85-11.8-5.64-11.8-5.64a25.47,25.47,0,0,1,9.39-11.75,13.63,13.63,0,0,1-4.73,10.54c7.47,7,31.06-2.79,31.06-2.79s.83,9.07-12,15.71c17.61,15,36.22-6.46,46.6,12,1.25,4.72-42.11,19.21-87.47,2.36,3.45,8.33,7.52,12.93,11.17,15.45,1-2.9,2.26-4.76,4-4.69-.07,2,0,4.27,0,6.8a12.19,12.19,0,0,0,6,.78,20.7,20.7,0,0,0-2.05,2.05q-1.89.55-3.75,1c.94,16.34,4,38.44,4,38.44s15.3-26,23-20.23c-7.34,6.42-18.54,33.6-20.12,37.49a37.22,37.22,0,0,1,12,2.89c.49-6.77,1-12.64,3.95-13.22,1.32,10.54,9.76,12.75,9.76,12.75s9.49-15.24,24.53-10.53c-5.75,3.22-4.84,12.68-8.44,19.68-4.16,8.09-12.4,13.58-12.4,13.58s14.51,5.55,14,13c-19-5-21.1-1.66-22.68,1.39s1.05,17.74,1.05,17.74,15-15,19.78-8.87c-8.17,7.21-12.92,16.63-11.86,21.9s5.8,8.31,12.66,8.31,30.33-29.66,40.09-21.34c-15.3,8.32-14.5,24.39-14.5,24.39s13.45-2.77,14.24,6.66c-21.9,1.66-23.47,18-23.47,18s17.93,2.77,19.78,17.18a67.26,67.26,0,0,0-46.69,4.16s7.65,4.44,7.12,11.92c-14-5.27-20.31-1.11-20.31-1.11s3.62,6.62,2.63,10.54c-11.07-8.32-25.32-11.65-25.32-11.65l-.52,20s3.18.58,8.08,1.12c-1-1.4-1.87-2.76-2.64-4,20.55-2.66,47.14-9.43,47.14-9.43a78.91,78.91,0,0,1-14.12,13.14h0c17.41-3,28.5-19.95,36.94-17.46-12.93,9.7-9,17.46-9,17.46s30.08-24.61,50-23.74a9.18,9.18,0,0,1,.34-3.45c12.92,5.27,19.78-2.49,19.78-2.49s-17.67-6.1-12.14-23.57c5.28,8.32,25.33,16.64,25.33,16.64s1.28-11.09,8.71-10.81c21.62,62.92,43.26,52.39,43.26,52.39s5.8-48,2.63-50.45c-14.77-10.54-10.55,7.48-21.89,9.42.52-8.87-3.69-12.75-3.69-12.75s-9,8.32-17.15-1.11c17.41-3.33,22.16-17.46,22.16-17.46s-23.21,8.32-34-4.44c16.88-2.77,21.1-13,21.1-13s-15.56,1.39-19.52-19.4c12.13,12.2,33,16.08,33,16.08s-7.64-11.92.27-13.31c9.23,28.83,25.06,31.6,25.06,31.6l-1.32-21.34s-10.55-24.12-24.8-38.53c10-4.44,24.27,11.36,24.27,11.36s-.79-37.42,6.86-37.14c-.53,14.69,4.22,49.06,4.22,49.06s15.3-26,23-20.23c-7.91,6.92-20.31,38-20.31,38v29.11a19.28,19.28,0,0,0,10.29-12.48c2.81-10,.78-26.44,5.8-27.44,1.32,10.54,9.76,12.75,9.76,12.75s9.49-15.24,24.53-10.53c-5.75,3.22-4.84,12.68-8.44,19.68-4.16,8.09-12.4,13.58-12.4,13.58s14.51,5.55,14,13c-19-5-21.1-1.66-22.68,1.39s1,17.74,1,17.74,15-15,19.78-8.87c-8.17,7.21-12.92,16.63-11.86,21.9s5.8,8.31,12.66,8.31,30.33-29.66,40.09-21.34c-15.3,8.32-14.5,24.39-14.5,24.39s13.45-2.77,14.24,6.66c-21.9,1.66-23.47,18-23.47,18s17.93,2.77,19.78,17.18a67.26,67.26,0,0,0-46.69,4.16s7.65,4.44,7.12,11.92c-14-5.27-20.31-1.11-20.31-1.11s3.62,6.62,2.63,10.54c-11.07-8.32-25.32-11.65-25.32-11.65l-.52,20s21.1,3.88,38.5.83,28.5-19.95,36.94-17.46c-12.93,9.7-9,17.46-9,17.46s32.18-26.33,52-23.56a37.22,37.22,0,0,0-3.27,3.22c18.58,2.36,29.05-9.18,29.05-9.18s-13.45,3.61-25.59-2.49c5-6.93-14.24-7.49-12.92-16.63a26,26,0,0,0,16-6l-.71.06c.32-1.22.55-1.93.55-1.93s.3.49.88,1.29a31.54,31.54,0,0,0,5.2-5.4s-24.53-8.87-20.83-21.62c12.92,5.27,19.78-2.49,19.78-2.49s-17.67-6.1-12.14-23.57c5.28,8.32,25.33,16.64,25.33,16.64s1.28-11.09,8.71-10.81c21.62,62.92,43.26,52.39,43.26,52.39s5.8-48,2.63-50.45c-14.77-10.54-10.55,7.48-21.89,9.42.52-8.87-3.69-12.75-3.69-12.75s-9,8.32-17.15-1.11c17.41-3.33,22.16-17.46,22.16-17.46s-16,5.71-27.6.38a17,17,0,0,0,.9,2.57s-28.09,3.52-39.62-8.72a29.86,29.86,0,0,0,2.23,7.41c-19.75-9.23-30.36-22.84-30.36-22.84s63.79,16.23,70.11,8.3a16,16,0,0,1-5.23-11,39.75,39.75,0,0,0,7.16,3.85c-4-2.5-8.24-7.36-10-16.81,12.13,12.2,33,16.08,33,16.08s-7.64-11.92.27-13.31a73.56,73.56,0,0,0,6.83,15.52,43.87,43.87,0,0,0,11.28-6c1.77,0,3.54,0,5.3,0-1.86-4.09-11.67-24.86-24.47-37.81,10-4.44,24.27,11.36,24.27,11.36s-.43-20.57,2.46-31.09c-36.09,5.92-59.33-7.91-56.28-13.29,14.78-15.2,38.37,3.31,41.37-2.37-8.65-5.5-6-11-6-11s9.8,5.49,21.43-1.32c-12.45-4.36-15.2-9.94-15.2-9.94s13.33-.6,24-8.12c9.52,4.23,30.79-4.15,30.79-4.15s.88,9.15-12.67,15.84c18.66,15.15,38.38-6.51,49.39,12.15,1.32,4.76-44.64,19.37-92.71,2.38,5.25,12.08,11.86,16.38,16.55,17.85.94-2.55,2.17-4.15,3.77-4.09,0,1.43,0,3.05,0,4.81a9.22,9.22,0,0,0,2.14-.08,21.49,21.49,0,0,0-2.08,2c.59,16.44,4.17,42.35,4.17,42.35s15.3-26,23-20.23c-6.63,5.8-16.39,28.5-19.39,35.74a30.63,30.63,0,0,1,11.26,4c.48-6.49,1.07-12,3.91-12.57,1.32,10.54,9.76,12.75,9.76,12.75s9.49-15.24,24.53-10.53c-5.75,3.22-4.84,12.68-8.44,19.68-4.16,8.09-12.4,13.58-12.4,13.58s14.51,5.55,14,13c-19-5-21.1-1.66-22.68,1.39s1,17.74,1,17.74,15-15,19.78-8.87c-8.17,7.21-12.92,16.63-11.86,21.9s5.8,8.31,12.66,8.31,30.33-29.66,40.09-21.34c-15.3,8.32-14.5,24.39-14.5,24.39s13.45-2.77,14.24,6.66c-21.9,1.66-23.47,18-23.47,18s17.93,2.77,19.78,17.18a67.26,67.26,0,0,0-46.69,4.16s7.65,4.44,7.12,11.92c-14-5.27-20.31-1.11-20.31-1.11s3.62,6.62,2.63,10.54c-11.07-8.32-25.32-11.65-25.32-11.65l-.52,20a146.61,146.61,0,0,0,23,2,37.35,37.35,0,0,1-3.61-2.75s14,2.18,18.93-6.55a71.09,71.09,0,0,1-11-.84c13.41-2.63,24.22-5.25,24.22-5.25s-6,7.27-17.26,14.81c1.4-.16,2.8-.35,4.16-.59,17.41-3,28.5-19.95,36.94-17.46-12.93,9.7-9,17.46-9,17.46s32.18-26.33,52-23.56c-11.08,9.7-6.59,15-6.59,15a33.35,33.35,0,0,1,35.35,3.33c-36.15,4.71-47,13.58-47,13.58s11,.88,14.7,8.74a28.51,28.51,0,0,1,4.76,1.89s4.75-5.31-7-15.1c21-2.79,55.08,23.77,55.08,23.77s4.19-7.83-9.51-17.61c9-2.52,20.69,14.53,39.14,17.61s40.82-.84,40.82-.84l-.56-20.13s-15.1,3.36-26.84,11.74c-1-4,2.8-10.62,2.8-10.62s-6.71-4.19-21.53,1.12c-.56-7.55,7.55-12,7.55-12a74.49,74.49,0,0,0-49.48-4.2c1.95-14.54,21-17.33,21-17.33s-1.68-16.5-24.88-18.17c.84-9.51,15.1-6.71,15.1-6.71a27.57,27.57,0,0,0-15.38-24.61c10.35-8.38,35.23,21.53,42.5,21.53s12.3-3.07,13.42-8.39-3.92-14.81-12.58-22.08c5-6.15,21,8.94,21,8.94s2.8-14.81,1.12-17.89-3.91-6.43-24-1.4c-.56-7.54,14.81-13.14,14.81-13.14s-8.72-5.54-13.13-13.7c-3.82-7.06-2.86-16.6-9-19.85,15.94-4.75,26,10.63,26,10.63s9-2.24,10.35-12.86c5.32,1,3.16,17.59,6.14,27.67a19.87,19.87,0,0,0,10.91,12.59v-29.36s-13.14-31.31-21.53-38.3c8.11-5.87,24.32,20.41,24.32,20.41s5-34.67,4.48-49.49c8.11-.28,7.27,37.47,7.27,37.47s15.09-15.94,25.72-11.47c-15.1,14.54-26.28,38.87-26.28,38.87l-1.4,21.52s16.77-2.79,26.56-31.87c8.39,1.4.28,13.42.28,13.42s22.09-3.91,35-16.22c-4.2,21-20.69,19.58-20.69,19.58s4.47,10.34,22.36,13.14c-11.46,12.86-36.06,4.47-36.06,4.47s5,14.25,23.48,17.61c-8.67,9.51-18.17,1.12-18.17,1.12s-4.47,3.91-3.92,12.86c-12-2-7.54-20.13-23.2-9.51-3.35,2.52,2.8,50.89,2.8,50.89s22.92,10.62,45.85-52.84c7.86-.28,9.22,10.9,9.22,10.9s21.25-8.39,26.84-16.78c5.87,17.62-12.86,23.77-12.86,23.77s7.27,7.83,21,2.52c3.91,12.86-22.09,21.8-22.09,21.8s9,12,23.21,12c1.4,9.22-19,9.78-13.7,16.77-12.86,6.15-27.12,2.52-27.12,2.52s11.19,11.74,31,9.22c-31.87,40.54-78,23.49-78,23.49s34.11,26.56,83.31-3.36c2.8,8.67-1.67,14.26-1.67,14.26s21.26,19.55,40,21.69a13.22,13.22,0,0,1-.77-4s29.67,20.51,58.11-6.08c17.17-17.61,44.63-9.85,48-17.25-14.79-.36-15.5-19.46-15.5-19.46A26.64,26.64,0,0,0,1917.19,1210.11ZM1571.72,632.47c-4.23,2.64-24.57-17.16-21.4-19S1575.94,629.83,1571.72,632.47Zm-1.86-28c-3.16,0-4.75-14-8.74-18.76s-2.35-13.47-2.35-13.47,13.21,13.21,13.47,16.11S1573,604.48,1569.86,604.48ZM1219.42,475.14c3,1.83-16.2,21.47-20.19,18.85S1216.43,473.3,1219.42,475.14Zm-20.69-24.88c.25-2.88,12.71-16,12.71-16s1.57,8.64-2.21,13.35-5.26,18.6-8.25,18.6S1198.48,453.14,1198.73,450.26ZM740.35,412.35c-4.22,2.64-24.56-17.17-21.39-19S744.58,409.71,740.35,412.35Zm-1.85-28c-3.17,0-4.75-14-8.75-18.75s-2.34-13.47-2.34-13.47,13.2,13.21,13.47,16.11S741.67,384.35,738.5,384.35ZM288.77,610.74c-4.23,2.65-24.56-17.16-21.39-19S293,608.1,288.77,610.74Zm-1.85-28c-3.17,0-4.75-14-8.75-18.76s-2.34-13.47-2.34-13.47,13.2,13.21,13.47,16.12S290.09,582.75,286.92,582.75ZM312,630c3.69-2.37,13.47-2.9,18.75-5.28s14.79-11.62,16.11-11.09-6.87,12.15-11.1,14-18.22,12.15-22.18,12.94S308.32,632.4,312,630ZM415.29,947.85c-31.7-3-28.53-25.17-28.53-25.17s28,14.61,37.33,11.09c-4.93-6.16-1.93-15.32-1.93-15.32s9.86,15.67,27.11,13c-4-4.76-7.83-13-7.83-13s28.61,9,38.29,3.87a14.18,14.18,0,0,1-7.65-11.79,37.67,37.67,0,0,0,17.69-10.92c5.52-6.35,8.64-17,13.63-20.16,11.19,7.3,25,7.88,25,7.88s-2.91,5.64-16.11,10c12.32,6.87,22.71,1.32,22.71,1.32s2.82,5.55-6.34,11.09c3.17,5.73,28.17-12.94,43.84,2.38,3.35,5.64-23.24,20.42-63.91,12.68.7,5.63,4.75,6.87,4.75,6.87a184.54,184.54,0,0,1-38,.81,4.39,4.39,0,0,0-.52-1.66l-2,1.39A76.56,76.56,0,0,1,454.39,928a27.86,27.86,0,0,0,9.52,9.92C453.24,944.09,437.86,950,415.29,947.85Zm50.44-3.78a36.8,36.8,0,0,0,4.58-3.35,26.65,26.65,0,0,0,11.29.76s0,.18,0,.51C475.06,944.84,465.73,944.07,465.73,944.07Zm14.79,3.74c-.18.63-.38,1.28-.61,1.94a44.77,44.77,0,0,0-4.67.66A19.64,19.64,0,0,0,480.52,947.81Zm22.21,168.78a56.88,56.88,0,0,1-9.34,1.16c-8.46-4.26-13.06-9.2-12.07-11.24a23.15,23.15,0,0,1,4.74-2.67C489,1111.64,502.73,1116.59,502.73,1116.59Zm15-47.06c-19.64,3.3-43-1.32-43-1.32A29.45,29.45,0,0,1,485,1058c27.25-3.37,44.69,2.9,52.15,6.55A140.34,140.34,0,0,1,517.77,1069.53Zm85.32-57.18c-27,10-66.16,12.58-82.93,2a13.54,13.54,0,0,0,5,9.77s-1.44.3-3.89.7c.24-.51.47-1,.7-1.54q-3.91,1.38-7.82,2.49c-10.62,1.16-26.91,1.79-39.62-2.89,0,4.4,3.05,7,5.35,8.29-29.6,1.1-51.53-7-50.61-10.27,11-18.67,30.73,3,49.39-12.15-13.56-6.69-12.68-15.85-12.68-15.85s25,9.87,32.93,2.82c-6.16-5.46-4.93-11.54-4.93-11.54s11.55-1,21.21-5c28.09,25,57,5.06,57,5.06a15.79,15.79,0,0,1-5.54,11.09c6.68,8,74.3-8.37,74.3-8.37S627.66,1003.23,603.09,1012.35ZM763.6,431.63c3.69-2.38,13.47-2.9,18.75-5.28s14.79-11.62,16.11-11.09-6.87,12.15-11.09,14-18.23,12.15-22.19,12.95S759.9,434,763.6,431.63Zm254.15,517c1.71-.3,3.71-.74,5.86-1.34l.18.33S1021.48,948.05,1017.75,948.59Zm158.06-425c-3.74-.79-17-11-20.94-12.84s-11.71-13.35-10.46-13.87,10.21,8.64,15.2,11,14.2,2.88,17.69,5.24S1179.54,524.37,1175.81,523.59Zm120.88,627.62-.35-.33.58.38Zm105.93-15c-2.39,2.58-7.63,5.49-15.15,7.66l-.42-.86S1392.27,1139.11,1402.62,1136.23ZM1313,1161.6a24.93,24.93,0,0,1-.32,2.84c-1.16-.87-2.28-1.73-3.34-2.55A21.21,21.21,0,0,0,1313,1161.6Zm85.3-216a20.52,20.52,0,0,0,1.45-9.15c8,4.86,19.82,6.75,24.39,7.33C1412.27,947.4,1398.26,945.57,1398.26,945.57ZM1595,651.75c3.69-2.37,13.47-2.9,18.75-5.28s14.79-11.62,16.11-11.09-6.86,12.15-11.09,14-18.22,12.15-22.19,12.94S1591.26,654.13,1595,651.75Z" transform="translate(-2.81 -256.52)" fill="#182b0e"/><path d="M1359.21,1079.16a34.86,34.86,0,0,0,3.65-1.38c-1.07-.47-2.15-1-3.23-1.49A15.54,15.54,0,0,0,1359.21,1079.16Z" transform="translate(-2.81 -256.52)" fill="#182b0e"/><path d="M1011.48,997.24a48.22,48.22,0,0,0,1.38-8.3,105.8,105.8,0,0,1-11.67-.23v21A19.28,19.28,0,0,0,1011.48,997.24Z" transform="translate(-2.81 -256.52)" fill="#182b0e"/><path d="M1413.31,1082.42l-.09,0,.1,0Z" transform="translate(-2.81 -256.52)" fill="#182b0e"/><path d="M218.32,1280h5.54a15.91,15.91,0,0,0-3.5-2.71A32,32,0,0,1,218.32,1280Z" transform="translate(-2.81 -256.52)" fill="#182b0e"/><path d="M298.39,1280a55.38,55.38,0,0,0,3.22-20.45s-4.93,12-10.69,20.45Z" transform="translate(-2.81 -256.52)" fill="#182b0e"/><path d="M249.14,1280h6.7a16,16,0,0,0-1.71-5.2S252.13,1277.08,249.14,1280Z" transform="translate(-2.81 -256.52)" fill="#182b0e"/><path d="M275,1274.24s-1.49,2.54-3.8,5.76h8.13A18.17,18.17,0,0,0,275,1274.24Z" transform="translate(-2.81 -256.52)" fill="#182b0e"/></svg>