<svg xmlns="http://www.w3.org/2000/svg" viewBox="0 0 243.02 302.15"><title>forest-bg-branchРесурс 3</title><path d="M228.32,87.28l-.7-.4-.17-.1-.12-.07-.93-.53,0,0-.31-.17-.15-.09h0l.15.09.31.17,0,0,.93.53.12.07.17.1.7.4a37.41,37.41,0,0,0-9.2-5.11c-27.73-7-66.87-26.9-95.81-82.17-12.81,11.16-11,24.4-11,24.4S57.42,35.61,25.61,19.69C19.91,40.61,57.5,42.55,57.5,42.55s5.19,13.28-7.28,21.18c10.42,10.34,34.43-.56,34.43-.56s10.62,16.74-1,32.91c14.74,10.9,60.56-2.49,60.56-2.49a33.13,33.13,0,0,1-8.52,20.58c-16.1.72-32.11-2.8-46-13.59-4,8.33,8.33,23.09,8.33,23.09s-49.47,1.14-61.33-14.76c-3,11.35,7.19,16.65,7.19,16.65S20.32,119,0,135.79c9.92-.18,14.47,19.37,23.85,30.16,10.53,12.12,25.36,15.64,25.36,15.64a20.35,20.35,0,0,1-11,16.91c13.88,7.33,54.9-5.55,54.9-5.55s-5.43,11.86-11.24,18.67c24.74,3.79,38.87-18.67,38.87-18.67s2.72,8.35.24,16.21a60.39,60.39,0,0,1-10.22-3.92l0,0c-1.27,8.71,16,17.12,16,17.12s-5,1.21-11.91,2.29c-11.36-3.24-19-9.2-25.58-7.25,6.16,1.12,10.55,5.19,13.29,8.61-7.69.48-15.74.19-21.76-2-2.28,10.28,5.75,14.3,5.87,14.35-9.13,2.27-19.79,3.06-28-1.86.75,8.37,7.3,12,11.46,13.44-6.39,2.17-14.56,2.95-24.52,0,0,4.18,5.95,7.56,12.94,11.06a47.14,47.14,0,0,1-20,4.26C51.06,276,68.19,272,74.65,269.92a23.66,23.66,0,0,1,3.69,3.25c-.17,2.83-1.75,7.15-7.33,13.11a36.11,36.11,0,0,0,11.63-1.35c7.3-.25,17-5.1,26.56-8.56a38.7,38.7,0,0,1-3.73,16.79c16.12.75,18.45-17.52,28.63-16.65,10.55.91,14.89,7.39,16,25.64,12.06-4.09,20.1-20.57,23-27.6,1.15-.45,2.26-.87,3.51-1.42l.23-.1c2.68,2.31,6.42,7.29,5.26,16.81,8.71-4.74,15.49-20.81,18.7-29.76,1.7-1,3.43-2.11,5.17-3.2a29.48,29.48,0,0,1,8,20.29c11.5-3.21,7.39-29.89,21.41-36.6a19.12,19.12,0,0,1,7.6-2.16V91.11A47.43,47.43,0,0,1,228.32,87.28Z" fill="#122007"/></svg>