<svg xmlns="http://www.w3.org/2000/svg" viewBox="0 0 380 447"><defs/><path d="M380 132V24h-1c-46 5-71-14-85-24-5 8 13 19 13 19s-20 2-28-7c-1 12 14 16 14 16s-20-4-36 3c-13 5-21 23-40 19 1 22 49 26 49 26s2 9-7 17c11 10 47-4 47-4s1 13-18 23c-17 8-71 18-127-1 13 30 32 26 32 26a45 45 0 00-14 22c34-13 50 16 50 16s-34 6-62 2c-32-6-59-22-63-13 18 2 24 21 24 21s-1 5-17 8c12 48 79 15 108 37 4 8-50 45-113 14a28 28 0 002 17s-41 5-57-13c6 39 55 41 55 41s-4 8-23 14c18 10 32 2 32 2s4 8-9 16c5 8 41-19 63 3 5 8-33 30-91 19 1 8 6 9 6 9s-52 8-84-5c14 24 39 19 39 19s-1 28-22 28c5 11 44 0 69 25 40 38 83 9 83 9s0 8-8 16c9 11 106-12 106-12a107 107 0 01-14 14c18-3 37-9 53-21 15-11 33-19 52-21a162 162 0 01-11 33l9-2c9-3 19-11 24-20V136" fill="#122007"/></svg>