<svg xmlns="http://www.w3.org/2000/svg" viewBox="0 0 1914 1024"><defs/><path d="M482 801a29 29 0 00-10 11s23 4 43 1a140 140 0 0019-5c-7-4-25-10-52-7zm-10-107a45 45 0 015-1l1-2a20 20 0 01-6 3zm-20-23a77 77 0 0018 5l2-2a4 4 0 010 2 185 185 0 0038-1s-4-1-4-7c40 8 67-7 64-12-16-16-41 3-44-3 9-5 6-11 6-11s-10 6-23-1c14-5 17-10 17-10s-14-1-25-8c-5 3-9 14-14 20a38 38 0 01-18 11 14 14 0 008 12c-10 5-38-4-38-4s3 8 7 13c-17 3-27-13-27-13s-3 9 2 15c-9 4-37-11-37-11s-3 22 28 25c23 2 38-3 49-10a28 28 0 01-9-10zM311 384c4-1 18-11 22-13s12-13 11-14-11 9-16 11-15 3-19 5-2 12 2 11zm180 477a57 57 0 009-1s-14-5-17-13a23 23 0 00-4 3c-1 2 3 7 12 11zm105-28a52 52 0 00-3-15s-10 16-26 17a22 22 0 002-15 70 70 0 01-16 7c-8 27-44 13-67 19 10 6 27 13 44 16v-1h25l3-1v1c41-10 77-43 77-43s-25 16-39 15zM467 996a72 72 0 0012 2l-12-2zm50 0h2a15 15 0 01-5-8 15 15 0 003 8zm75-24a113 113 0 01-15 6 35 35 0 00-5 4 52 52 0 01-15 10 150 150 0 0025-7c27-10 10-13 10-13zm-129 23l-18-4s7 9 21 17a64 64 0 006-3s-8-3-9-10z" fill="none"/><path d="M479 685a27 27 0 01-12-1 37 37 0 01-4 4s9 0 16-3zm1077-369s-2 8 2 13 6 19 9 19 3-13 2-16-13-16-13-16zm-8 41c-4 2 17 22 21 19s-18-21-21-19zm-352-120c4 3 24-17 21-18s-25 16-21 18zm2-27c3 0 5-14 8-19s3-13 3-13-13 13-13 16-1 16 2 16zM725 96s-2 8 2 13 6 19 9 19 2-13 2-16-13-16-13-16zM265 335c-4 2 17 22 21 19s-18-21-21-19zm451-198c-3 2 17 21 22 19s-19-21-22-19zM273 294s-2 9 2 13 6 19 9 19 3-13 2-16-13-16-13-16zm1021 600v1zm16 14a25 25 0 000-3 21 21 0 01-4 0l4 3zm74-22l1 1c7-2 12-5 15-7-11 3-16 6-16 6zm72 71c-5 8-19 6-19 6a50 50 0 009 6c15-9 23-18 23-18l-24 5a71 71 0 0011 1zm-45-205v1l1-1a5 5 0 01-1 0zm-847-13a16 16 0 005-11s-29 20-57-5c-9 4-21 5-21 5s-1 6 5 11c-8 7-33-3-33-3s-1 10 13 16c-19 15-39-6-50 12 0 4 21 12 51 11-2-2-5-4-5-9 12 5 29 4 39 3l8-2-1 1h4a14 14 0 01-5-10c17 10 56 8 83-2 25-9 38-26 38-26s-67 17-74 9zm1030-333c4-1 18-11 22-13s12-14 11-14-11 9-16 11-15 3-19 5-2 12 2 11zm-273 424a30 30 0 01-3-7c12 12 40 8 40 8a19 19 0 01-1-11c44 21 82-5 79-10-8-6-20-6-32-6-25 18-49 1-49 1a16 16 0 005 11c-6 7-70-9-70-9s11 14 31 23zm118-118c13-7 12-16 12-16s-21 9-31 4c-10 8-24 8-24 8s3 6 16 10c-12 7-22 2-22 2s-2 5 6 11c-3 5-26-13-41 2-3 6 22 20 60 13a11 11 0 010 2 24 24 0 013-3s-14 3-23-18c48 17 94 2 93-3-11-19-31 3-49-12zm-107 182v2h2l-2-2zm-318-162l1-3c-12-9-31-4-47-6 6 5 23 11 46 9zm7-41l-6 1 6-1zm-88 205c15 10 52 8 78-2a90 90 0 0035-25s-26 6-47 9a63 63 0 0010 12c-23 5-44-8-44-8a22 22 0 002 15c-16-1-26-17-26-17a52 52 0 00-2 15c-14 1-39-15-39-15a223 223 0 0036 26h1a14 14 0 01-4-10zM762 186c4-1 18-11 23-13s12-14 11-14-11 8-16 11-16 3-19 5-3 11 1 11zm633 503s14 2 26-2c-4 0-16-2-24-7a21 21 0 01-2 9zm-221-432c-3-3-12-3-17-6s-14-11-15-11 6 12 10 14 17 12 21 13 5-8 1-10zM996 667a21 21 0 012-2s-13 2-22-18c46 16 89 2 88-3-11-18-29 3-47-12 13-6 12-16 12-16s-23 10-31 3a14 14 0 005-10 25 25 0 00-9 11s0 4 11 6c-7 34-54 10-75 26-2 4 27 26 65 15zm-71 147h1s-4-1-4-7c34 7 58-4 60-11a49 49 0 01-17-6 16 16 0 006 11c-7 8-75-9-75-9s11 13 29 22z" fill="none"/><path d="M1777 1016a10 10 0 00-3 6c14 1 26 2 28-1a17 17 0 01-4-6c-4 9-21 1-21 1zm-20 3h4l-2-1a14 14 0 00-2 1zm-33-4a17 17 0 00-3 8h11a112 112 0 01-8-8zm-354-204h2a11 11 0 01-2 0zm-413-3c13 14 22 10 22 10l2-20c-4 4-12 8-24 10zm739 215h12a88 88 0 01-7-9 18 18 0 00-5 9zm-274-201v14a19 19 0 0011-12 55 55 0 001-10l-12 8zM203 1023a11 11 0 00-3-4s-15 8-19-1l-6 5zm1470-23s-1 13 5 23h9c-7-8-14-23-14-23z" fill="#182b0e"/><path d="M1914 954c-22 8-59 3-59 3s4-1 5-7c-40 8-67-7-64-12 16-16 41 3 44-3-9-5-6-11-6-11s10 6 23-1c-14-4-17-10-17-10s35-1 39-28c-12 12-40 8-40 8a19 19 0 002-11c-45 21-82-5-80-10 21-15 68 8 76-26-11-2-12-5-12-5s4-13 17-15c-3-6-22 5-44 9-20 3-43-1-43-1s11-21 34-12a31 31 0 00-9-15s13 3 22-18c-48 17-94 2-93-3 11-18 31 3 50-12-14-7-13-16-13-16s25 10 33 3c-6-5-5-11-5-11s34-3 34-19c-13 3-18-9-28-13-11-5-25-2-25-2s11-3 10-11c-5 6-19 4-19 4s12-7 9-13c-10 7-28 20-60 17s-28-25-28-25 28 15 37 11c-5-6-2-15-2-15s10 15 27 13c-4-5-7-13-7-13s28 9 38 4a14 14 0 01-8-12 38 38 0 0018-11c6-8 10-21 17-21-15-12-31-7-31-7s7-4 5-12c-8 11-43 10-43 10s9-10 6-16c-38 30-97-18-97-18s-3-7 8-6 15 19 23 18a21 21 0 012-18s13 16 22 17c-5-8 1-14 1-14s12 15 23 14c-4-12-3-18 4-21 6-3 13 8 23 3-9-8-10-20-10-20s13 15 30 7c-10-5-8-10-8-10s17 0 24-12c-14 5-27 0-27 0s9-5 6-14c-9 12-32 9-32 9s1-9 7-13c-9 1-12 20-40 19s-58-20-52-27 16 11 23 9c-3-7 2-15 2-15s15 20 26 17c-4-5-3-20-3-20s20 20 34 13c-14-6-15-20-15-20s19 19 31 14c-8-4-11-14-11-14s12 7 21 3a10 10 0 01-4-10s23 1 24-9a48 48 0 01-31-7s5-3 2-10c-7 10-37 12-37 12s4-6-2-15c-1 7-17 4-17 4s5-7 3-11c-37 30-48 12-48 12s4-5 3-10c-5 1-24 1-30-5-12-10-11-30-11-30s12 28 21 27c-1-8 5-13 5-13s13 20 22 18c-5-10-1-18-1-18s17 18 26 17c-1-10 8-14 8-14s8 11 15 9c-3-7 2-11 2-11s17 9 20-2c-18-1-39-20-39-20s4-6 2-14c-47 29-79 3-79 3s44 17 74-22c-19 3-29-8-29-8s13 3 25-3c-5-6 14-7 13-16-13 0-22-11-22-11s25-8 21-21c-13 5-20-2-20-2s18-6 12-22c-5 7-25 15-25 15s-1-10-9-10c-21 60-43 50-43 50s-6-46-3-48c15-10 11 7 22 9 0-8 4-12 4-12s9 8 17-1c-17-3-22-17-22-17s23 8 34-4c-17-3-21-13-21-13s16 2 19-18c-12 12-33 15-33 15s8-11 0-12c-9 27-25 30-25 30l1-21s11-23 25-36c-10-5-24 11-24 11s1-36-7-36c1 14-4 47-4 47s-15-25-23-19c8 6 20 36 20 36v27a19 19 0 01-10-11c-3-10-1-26-6-27-1 10-10 13-10 13s-9-15-24-10c6 3 5 12 8 18 4 8 13 13 13 13s-15 6-14 13c19-5 21-2 22 1s-1 17-1 17-15-14-20-9c9 7 13 16 12 21s-5 8-12 8-31-28-40-20a26 26 0 0114 23s-13-2-14 7c22 1 23 17 23 17s-18 2-19 16a70 70 0 0146 4s-7 4-7 11c14-5 20-1 20-1s-3 7-2 10c11-8 25-11 25-11l1 19s-21 4-39 1-28-19-37-17c13 10 9 17 9 17s-32-25-52-22c11 9 7 14 7 14a35 35 0 00-36 3c37 5 47 13 47 13s-17 1-16 16c21-12 33-13 33-13s-11 6-7 21c13-12 33-13 33-13s-13 4-13 20c12-9 18-5 18-5s-4 6-1 10c9-11 21-11 33-16s21-15 21-15 4 16-18 28-28 15-38 15-19-3-28-13a16 16 0 003 0h-6a14 14 0 003 0c-3 5 6 15 6 15l-8-1c-7-5-10-11-15-12a16 16 0 016 9c-5-1-10-4-13-7-4 6 0 11 0 11-7-1-14-3-18-9-1 6 2 10 4 12a28 28 0 01-16-6c-1 2 2 6 6 10a33 33 0 01-14-2c5 10 17 12 22 12a17 17 0 011 3c-1 2-3 4-8 7a26 26 0 008 2c5 2 12 1 19 2a27 27 0 01-6 9c10 5 16-6 22-3 7 4 8 9 4 21 9 1 18-8 22-12h3c1 2 2 7-1 13 7-1 15-10 20-15h4a21 21 0 010 15c8 1 13-18 23-18s9 6 9 6-60 48-98 18c-2 6 6 17 6 17s-34 0-43-11c-2 8 5 12 5 12s-16-5-30 7c7 0 10 13 16 21a38 38 0 0018 11 14 14 0 01-8 12c10 5 39-4 39-4s-4 8-8 13c17 2 27-13 27-13s3 9-2 15c9 4 37-11 37-11s4 22-28 25-49-10-59-17c-4 6 9 13 9 13s-14 2-20-4c0 8 10 11 10 11s-14-3-25 2c-9 4-15 16-28 13 0 4 3 7 6 10-41 19-76-6-73-11 19-15 64 8 71-26-10-1-11-5-11-5s4-13 16-15c-3-6-21 5-42 9-18 3-40-1-40-1s10-21 32-12a31 31 0 00-9-15s13 3 21-18c-45 17-88 2-87-2 10-19 29 3 46-12-12-7-12-16-12-16s24 10 32 3c-6-6-5-12-5-12s31-3 32-18c-12 3-17-9-26-13-11-5-24-2-24-2s10-3 10-11c-6 6-19 5-19 5s12-8 9-14c-10 8-26 20-56 17s-27-25-27-25 26 15 35 11c-5-6-2-15-2-15s9 16 26 13l-8-13s27 9 36 4c-7-4-7-12-7-12a35 35 0 0017-11c6-7 9-21 16-20a33 33 0 00-29-8 10 10 0 004-11c-7 11-40 10-40 10s8-10 6-16c-36 29-92-18-92-18s-3-7 8-6 14 19 22 18a21 21 0 010-15h4c4 5 12 14 18 14-3-5-2-10-1-12h3c4 4 13 12 21 12-4-12-3-17 3-21 6-3 12 8 22 3a27 27 0 01-7-9c7-1 14 0 19-2a23 23 0 007-2c-5-2-7-5-8-7a17 17 0 012-3c4 0 16-2 21-12a30 30 0 01-14 3c4-5 7-8 6-11-6 5-11 6-15 7 2-2 5-6 3-12-4 5-10 8-16 8 0 0 4-4 0-10-3 3-8 5-13 7 1-3 2-7 6-9-5 0-8 6-14 11l-8 2s9-10 6-15a14 14 0 002-1h-5a16 16 0 003 1c-9 9-17 12-27 12s-15-1-36-14-17-28-17-28 10 10 21 15 22 5 30 15c3-3 0-9 0-9s5-4 16 5c1-16-12-20-12-20s20 1 31 13c4-15-6-21-6-21s11 1 31 12c1-14-15-15-15-15s10-8 44-13a32 32 0 00-34-3s-4-5 7-14c-19-3-49 22-49 22s-4-7 8-16c-8-3-18 13-35 16s-36-1-36-1v-19s14 4 24 11c1-3-2-10-2-10s6-3 19 1c0-7-7-11-7-11a64 64 0 0144-4c-1-13-18-16-18-16s1-15 22-17c-1-9-14-6-14-6s0-15 14-23c-9-8-31 20-38 20s-11-3-12-8 4-14 11-21c-4-5-18 9-18 9s-3-14-1-17 3-6 21-1c1-7-13-13-13-13s8-5 12-13c3-6 2-15 8-18-15-5-24 10-24 10s-8-2-9-12c-5 1-3 16-5 26a18 18 0 01-10 12v-28s12-29 19-36c-7-5-21 19-21 19s-5-32-4-46c-8 0-7 35-7 35s-13-15-23-11c14 14 24 37 24 37l1 20s-15-3-24-30c-7 1 0 13 0 13s-20-4-31-16c4 20 18 19 18 19s-4 9-20 12c11 12 33 4 33 4s-5 14-21 17c7 9 16 1 16 1s4 3 3 12c11-2 7-19 21-9 3 2-3 48-3 48s-20 9-40-50c-7 0-9 10-9 10s-19-8-24-15c-5 16 12 22 12 22s-7 7-19 2c-3 12 20 21 20 21s-8 11-21 11c-1 8 17 9 12 16 12 5 25 2 25 2s-10 11-28 9c28 38 69 22 69 22s-30 24-74-4c-2 9 2 14 2 14s-20 19-37 20c3 11 19 2 19 2a9 9 0 012 11c7 2 14-9 14-9s8 4 8 14c8 1 24-17 24-17s4 8-1 17c9 3 21-17 21-17s6 5 5 13c8 1 20-27 20-27s1 20-10 30c-6 5-24 6-29 4-1 6 3 11 3 11s-11 18-46-12c-1 3 3 11 3 11s-15 2-16-4c-5 9-2 14-2 14s-28-1-35-11c-3 7 2 10 2 10a44 44 0 01-29 6c1 10 23 10 23 10a10 10 0 01-4 10c8 4 20-4 20-4s-3 11-11 14c11 5 29-14 29-14s-1 14-13 21c13 7 31-14 31-14s1 15-2 20c10 3 24-16 24-16s5 7 2 14c6 2 16-16 21-9s-23 26-49 27-29-18-37-19c6 4 7 13 7 13s-22 3-31-9c-2 9 6 13 6 13s-12 6-25 0c6 13 23 13 23 13s1 5-8 9c16 8 28-6 28-6s-1 12-9 20c9 5 15-6 21-3 7 3 8 8 4 20 10 1 22-13 22-13s5 5 0 14c10-1 22-18 22-18a22 22 0 011 18c8 1 12-17 22-18s8 7 8 7-56 47-92 18c-3 5 6 16 6 16s-33 0-41-11a10 10 0 005 12 33 33 0 00-29 7c7 0 10 13 16 21a35 35 0 0016 11s0 8-7 11c9 6 36-3 36-3l-7 13c16 2 26-13 26-13s2 9-2 15c9 3 35-11 35-11s3 22-27 25-46-10-56-17c-3 6 8 13 8 13s-13 1-18-4c0 7 9 10 9 10s-13-3-23 2c-9 4-14 16-26 14 0 10 15 15 24 17l-28 8c-20 3-43-2-43-2s11-20 34-11a31 31 0 00-10-15s14 3 23-19c-48 17-94 3-93-2 11-19 31 3 49-12-13-7-12-16-12-16s25 10 33 3c-6-6-5-12-5-12s33-3 34-18c-13 3-19-10-28-14-11-5-25-2-25-2s10-2 10-10c-6 5-20 4-20 4s13-7 9-13c-10 7-27 20-59 17s-28-25-28-25 28 14 37 11c-5-6-2-15-2-15s10 15 27 13l-8-13s29 9 38 3a14 14 0 01-7-11 38 38 0 0018-11c6-8 9-21 16-21-14-12-30-7-30-7s7-4 5-12c-9 11-43 10-43 10s8-10 6-16c-38 29-98-18-98-18s-2-7 9-7 15 19 23 18a21 21 0 011-18s13 17 23 18c-5-9 0-14 0-14s13 14 24 14c-4-12-3-18 4-21 6-3 12 8 22 3-9-8-9-20-9-20s12 15 30 6c-11-4-9-9-9-9s18 0 24-13c-13 6-26 0-26 0s8-5 6-13c-9 12-32 9-32 9s0-9 7-13c-9 1-13 20-40 19s-58-20-52-27 16 10 23 9c-3-7 2-15 2-15s15 20 25 17c-3-5-2-21-2-21s20 21 33 14c-13-6-14-20-14-20s19 19 31 14c-9-4-12-14-12-14s13 7 21 3a10 10 0 01-3-10s22 0 24-9a48 48 0 01-31-7s5-3 2-10c-7 10-37 12-37 12s4-6-2-15c-2 7-17 4-17 4s4-7 3-11c-37 30-48 12-48 12s3-5 3-11c-5 2-25 2-31-4-12-10-11-30-11-30s13 28 21 27c0-8 6-13 6-13s13 20 21 18c-5-10 0-18 0-18s16 18 26 17c-1-10 8-14 8-14s7 11 15 9c-4-7 2-11 2-11s17 9 20-2c-18-1-39-20-39-20s4-6 2-14c-47 28-79 3-79 3s43 16 73-22c-18 3-29-9-29-9s14 4 26-2c-5-7 14-7 13-16-14 0-22-11-22-11s24-9 21-21c-13 5-20-2-20-2s18-6 12-23c-5 8-25 16-25 16s-2-10-9-10c-22 60-43 50-43 50s-6-46-3-48c15-10 11 7 22 9-1-9 4-12 4-12s9 8 17-1c-18-4-22-17-22-17s23 8 34-4c-17-3-21-13-21-13s15 2 19-18c-12 12-33 15-33 15s8-11 0-12c-9 27-25 30-25 30l1-21s11-23 25-36c-10-5-24 10-24 10s0-35-7-35c0 14-4 47-4 47s-16-25-23-20c7 7 20 37 20 37v27a19 19 0 01-10-12c-3-9-1-25-6-26-2 10-10 12-10 12s-10-14-25-10c6 4 5 13 9 19 4 8 12 13 12 13s-14 5-14 13c19-5 21-2 23 1s-1 17-1 17-15-14-20-9c8 7 13 16 12 21s-6 8-13 8-30-28-40-20a26 26 0 0115 23s-14-3-15 6c22 2 24 18 24 18s-18 2-20 16a70 70 0 0147 4s-8 4-7 11c14-5 20-1 20-1s-4 7-3 10c12-8 26-11 26-11v19s-21 4-38 1-29-19-37-17c13 10 9 17 9 17s-32-25-52-23c11 10 6 15 6 15a35 35 0 00-35 3c36 4 47 13 47 13s-17 1-16 15c21-11 32-12 32-12s-10 6-6 21c12-12 33-13 33-13s-13 4-13 20c12-9 18-5 18-5s-4 6-1 10c8-11 21-11 33-16s21-15 21-15 3 15-18 28-28 15-38 14-19-2-28-12a16 16 0 002 0h-5a15 15 0 003 0c-3 5 6 15 6 15l-9-2c-6-5-9-11-14-11a16 16 0 016 9c-5-2-10-4-13-7-5 6 0 11 0 11-7-1-14-3-18-9-2 6 2 10 4 12a27 27 0 01-16-7c-1 3 2 7 5 11a33 33 0 01-14-3c6 11 18 13 23 13a17 17 0 011 3c-1 2-3 4-8 7a25 25 0 008 2c5 2 12 1 19 1a27 27 0 01-7 10c10 5 17-6 23-3 7 3 8 9 4 21 9 0 18-8 22-12h3c1 2 2 6-1 12 7 0 15-9 20-14l4-1a21 21 0 010 16c8 1 12-18 23-18s9 6 9 6-60 47-98 18c-3 6 6 16 6 16s-35 1-43-10c-2 8 5 12 5 12s-16-5-30 7c6 0 10 13 16 21a38 38 0 0018 11 14 14 0 01-8 11c10 6 38-3 38-3s-3 8-7 13c17 2 27-13 27-13s3 9-2 15c9 3 37-11 37-11s3 22-28 25-50-10-60-17c-3 6 9 13 9 13s-14 1-19-4c-1 8 10 11 10 11s-14-3-25 1c-10 4-15 17-28 14 0 15 34 18 34 18s1 6-5 12c8 7 33-3 33-3s1 9-13 16c19 15 39-7 50 12 1 5-45 19-93 2 9 21 22 19 22 19a31 31 0 00-9 15c23-9 34 11 34 11s-23 5-43 2c-22-4-41-15-44-9 13 1 17 14 17 14s-1 4-12 6c8 34 55 11 76 26 2 5-35 31-80 10a19 19 0 002 11s-28 4-40-8a29 29 0 006 13 37 37 0 00-20-1s7-4 5-12c-8 11-43 11-43 11s9-11 6-17c-38 30-97-18-97-18s-3-7 8-6 15 19 24 18a21 21 0 011-18s13 17 22 18c-4-9 1-14 1-14s12 14 23 13c-4-12-3-17 4-21 6-3 13 8 23 3-9-8-10-20-10-20s13 15 30 7c-10-5-8-10-8-10s17 1 24-12c-14 5-27 0-27 0s9-5 6-14c-9 12-32 9-32 9s1-9 7-13c-9 1-12 20-40 19s-58-19-52-27 16 11 24 9c-4-7 2-14 2-14s14 19 25 17c-4-6-3-21-3-21s20 21 34 14c-14-6-15-21-15-21s19 19 31 14c-8-3-11-14-11-14s12 8 21 4a10 10 0 01-4-10s23 0 24-10a48 48 0 01-31-7s5-3 2-9c-7 9-37 11-37 11s4-5-2-14c-1 6-17 3-17 3s5-7 3-11c-36 30-48 12-48 12s4-5 3-10c-5 1-24 1-30-4-12-11-11-31-11-31s12 29 21 28c-1-9 6-14 6-14s12 21 21 18c-5-10-1-17-1-17s17 18 26 17c-1-10 8-15 8-15s8 11 15 9c-3-6 2-11 2-11s17 9 20-1c-18-2-39-21-39-21s5-5 2-13c-47 28-79 3-79 3s44 16 74-22c-19 2-29-9-29-9s13 3 25-3c-5-6 15-7 13-15-13 0-22-12-22-12s25-8 21-20c-13 5-20-3-20-3s18-6 12-22c-5 8-25 16-25 16s-1-11-9-11c-21 60-43 50-43 50s-6-45-3-48c15-10 11 7 22 9 0-8 4-12 4-12s9 8 17-1c-17-3-22-17-22-17s23 8 34-4c-17-3-21-12-21-12s16 1 20-19c-13 12-33 16-33 16s7-12-1-13c-9 27-25 30-25 30l2-20s10-23 24-37c-10-4-24 11-24 11s1-36-7-36c1 14-4 47-4 47s-15-25-23-19c8 6 20 36 20 36v28a19 19 0 01-10-12c-3-10-1-25-6-26-1 10-10 12-10 12s-9-15-24-10c6 3 5 12 8 19 4 7 13 13 13 13s-15 5-14 12c19-5 21-2 22 1s-1 17-1 17-15-14-19-8c8 7 12 16 11 21s-5 8-12 8-31-29-40-21a26 26 0 0114 23s-13-2-14 7c22 1 23 17 23 17s-18 3-19 16a70 70 0 0146 4s-7 4-7 12c14-5 21-1 21-1s-4 6-3 10c11-8 25-11 25-11l1 19s-21 3-39 0-28-19-37-16c13 9 9 16 9 16s-32-25-52-22c11 9 7 14 7 14a35 35 0 00-36 3c37 5 47 13 47 13s-17 2-15 16c20-12 32-12 32-12s-10 5-7 20c13-12 33-13 33-13s-13 5-13 20c12-9 18-5 18-5s-4 6-1 10c9-10 22-11 33-16s21-15 21-15 4 16-18 29-27 14-38 14-19-3-28-13a16 16 0 003 0h-6a14 14 0 003 0c-3 5 6 15 6 15l-8-1c-7-5-10-11-15-12a16 16 0 017 9c-6-1-11-4-14-7-4 6 0 11 0 11-6-1-14-3-18-8-1 5 2 9 4 11a27 27 0 01-16-6c-1 3 2 6 6 10a33 33 0 01-14-2c5 10 17 12 22 12a17 17 0 011 3c0 2-3 5-8 7a25 25 0 008 2c5 2 12 1 20 2a27 27 0 01-7 10c10 4 16-7 23-4 6 4 7 9 3 21 9 1 19-8 22-12h3c1 3 2 7-1 13 7-1 16-10 20-15h4a21 21 0 010 15c8 1 13-17 24-18s8 7 8 7-60 47-97 18c-3 5 5 16 5 16s-34 0-42-11c-3 8 5 12 5 12s-17-5-31 7c7 0 10 14 17 21a38 38 0 0017 11 14 14 0 01-7 12c9 5 38-4 38-4s-4 8-8 13c17 3 27-13 27-13s3 9-2 15c10 4 38-11 38-11s3 22-29 25-49-9-59-17c-4 6 9 14 9 14s-14 1-20-5c0 8 10 11 10 11s-14-3-25 2c-9 4-15 16-28 13 1 16 34 19 34 19s1 6-5 11c8 7 33-3 33-3s1 10-12 16c18 15 38-6 49 12 1 5-45 20-93 3 9 21 23 18 23 18a31 31 0 00-10 15c24-9 35 12 35 12s-24 4-43 1c-23-4-41-15-45-9 13 2 18 15 18 15s-1 4-12 5c8 34 54 11 75 26 3 5-35 32-79 10a19 19 0 001 12s-28 3-40-9c5 27 39 28 39 28s-3 6-16 10c12 7 23 1 23 1s2 6-7 12c3 5 28-13 44 2 3 6-23 20-64 13 1 5 5 6 5 6s-36 6-59-3a27 27 0 0027 13s-1 19-15 20c3 7 31-1 48 17 28 27 58 6 58 6a16 16 0 01-6 11c7 8 75-8 75-8s-14 16-38 25c-27 10-66 13-83 2a14 14 0 005 10s-30 6-51-1c0 7 8 9 8 9s-14 8-26 7c11 12 38 5 38 5a33 33 0 00-18 15c43-8 65 8 65 8a77 77 0 01-10 14h30a65 65 0 0011-4 21 21 0 010 4h18a43 43 0 006-6 50 50 0 012 6h27l10-5v-1h2c17-3 36-21 36-21s-4-6-1-15c46 30 78 4 78 4s-43 17-73-24c19 3 29-9 29-9s-13 4-25-2c5-7-15-8-13-17 13 0 22-12 22-12s-25-9-21-21c13 5 19-3 19-3s-17-6-12-23c6 8 26 16 26 16s1-11 8-11c22 63 44 53 44 53s5-48 2-51c-15-10-10 8-22 10 1-9-3-13-3-13s-9 8-17-1c17-3 22-18 22-18s-24 9-34-4c17-3 21-13 21-13s-16 1-20-19c12 12 33 16 33 16s-7-12 1-14c9 29 25 32 25 32l-2-21s-10-25-25-39c10-4 25 11 25 11s-1-37 7-37c-1 15 4 49 4 49s15-26 23-20c-8 7-21 38-21 38v29a19 19 0 0011-12c2-10 0-27 5-28 2 11 10 13 10 13s10-15 25-10c-6 3-5 12-9 19-4 8-12 14-12 14s14 5 14 13c-19-5-21-2-23 1s1 18 1 18 15-15 20-9c-8 7-13 17-12 22s6 8 13 8 30-29 40-21c-15 8-15 24-15 24s14-2 15 7c-22 2-24 18-24 18s18 3 20 17a67 67 0 00-47 4s8 5 7 12c-14-5-20-1-20-1s4 7 3 11c-11-9-26-12-26-12v20s21 4 38 1 29-20 37-18c-13 10-9 18-9 18s33-26 52-24c-11 10-6 15-6 15a34 34 0 0121-3s-17-6-12-23c6 8 26 16 26 16s1-11 8-11c22 63 44 53 44 53l2-24a15 15 0 01-2-7 15 15 0 002 5c1-12 2-23 0-25-14-10-10 8-22 10 1-9-3-13-3-13s-9 8-17-1c17-3 22-18 22-18s-24 9-34-4c17-3 21-13 21-13s-16 1-20-19c12 12 33 16 33 16s-7-12 1-14c9 29 25 32 25 32l-2-21s-10-25-25-39c10-4 25 11 25 11s-1-26 3-34a117 117 0 01-37-15c23-6 59 8 67-19a70 70 0 0016-7 22 22 0 01-2 15c16-1 26-17 26-17a52 52 0 013 15c14 1 39-15 39-15s-36 33-77 43v-1l-3 1h-25v1a103 103 0 01-4-1l5 46s15-26 23-20c-8 7-21 38-21 38v29a19 19 0 0011-12c3-10 1-27 6-28 1 11 9 13 9 13s10-15 25-11c-6 4-5 13-9 20-4 8-12 14-12 14s14 5 14 13c-19-5-21-2-23 1s1 18 1 18 15-15 20-9a40 40 0 00-11 15 57 57 0 008-6 35 35 0 015-4 113 113 0 0015-6s17 3-10 13a169 169 0 01-19 6 10 10 0 000 4c1 5 6 8 13 8s30-29 40-21c-15 8-14 24-14 24s8-2 12 3a116 116 0 0015-13s-4-5-1-14c46 30 79 4 79 4s-44 17-74-24c19 3 29-9 29-9s-13 4-25-2c5-7-15-8-13-17 13 0 22-12 22-12s-25-9-21-21c13 5 20-3 20-3s-18-6-13-24c6 9 26 17 26 17s1-11 8-11c22 63 44 53 44 53s5-48 2-51c-14-10-10 8-22 10 1-9-3-13-3-13s-9 8-17-1c17-4 22-18 22-18s-23 9-34-4c17-3 21-13 21-13s-16 1-20-19c12 12 33 16 33 16s-7-12 1-14c9 29 25 32 25 32l-2-21s-10-25-25-39c10-4 25 11 25 11s-1-37 7-37c-1 15 4 49 4 49s15-26 23-20c-8 7-21 38-21 38v29a19 19 0 0011-12c3-10 1-27 6-28 1 11 9 13 9 13s10-15 25-10c-6 3-5 12-9 19-4 8-12 14-12 14s14 5 14 13c-19-5-21-2-23 1s1 18 1 18 15-15 20-9c-8 7-13 17-12 22s6 8 13 8 30-29 40-21c-15 8-14 24-14 24s13-2 14 7c-22 2-24 18-24 18s18 3 20 17a67 67 0 00-47 4s8 5 7 12c-14-5-20-1-20-1s4 7 3 11c-11-9-26-12-26-12v20s21 4 38 1 29-20 37-18c-13 10-9 18-9 18s25-20 44-23a12 12 0 01-5-2 11 11 0 004-10s-23 0-24-10a46 46 0 0031-7s-5-3-2-11c6 11 36 13 36 13s-3-6 3-16c1 7 16 4 16 4s-4-7-2-11c36 31 48 12 48 12s-4-5-3-11c5 2 24 2 30-4 6-5 9-13 10-19h-6c-4 8-9 16-14 16 1-9-6-14-6-14s-12 21-21 18c5-10 0-18 0-18s-16 19-25 18c1-10-8-15-8-15s-8 11-15 10a10 10 0 00-3-12s-16 9-19-2c18-1 38-21 38-21s-4-6-1-15c17 11 32 15 44 15v-2l1 2c21-1 33-11 33-11s-43 17-73-24c19 3 29-9 29-9s-13 4-25-2c5-7-15-8-13-17 12 0 20-9 21-11l-1-1c-6-3-22-11-19-21 13 5 19-3 19-3s-17-6-12-23c6 8 26 16 26 16s1-11 8-11c6 18 12 30 18 38 9 0 16 0 18-2a16 16 0 01-6-11 49 49 0 0016 6c1-13 2-27 0-29-14-10-10 8-22 10 1-9-3-13-3-13s-9 8-17-1c17-3 22-18 22-18s-24 9-34-4c17-3 21-13 21-13s-16 1-20-19c12 12 33 16 33 16s-7-12 0-14c10 29 26 32 26 32l-1-13c-9-2-15-4-18-7a164 164 0 0017 0v-1s-10-25-25-39c10-4 25 11 25 11s-1-14 1-25c-33 5-58-13-56-17 21-16 68 8 75-26-11-2-12-6-12-6a25 25 0 0110-11 14 14 0 01-5 10c8 7 31-3 31-3s1 9-12 16c18 15 36-6 47 12 1 5-42 19-88 2 4 9 8 13 11 16 1-3 3-5 4-5v7a12 12 0 006 1 21 21 0 00-2 2l-3 1 4 38s15-26 23-20c-8 7-19 34-20 38a37 37 0 0112 2c0-6 1-12 4-13 1 11 9 13 9 13s10-15 25-11c-6 4-5 13-9 20-4 8-12 14-12 14s14 5 14 13c-19-5-21-2-23 1s1 18 1 18 15-15 20-9c-8 7-13 17-12 22s6 8 13 8 30-29 40-21c-15 8-14 24-14 24s13-3 14 7c-22 2-24 18-24 18s18 3 20 17a67 67 0 00-47 4s8 5 7 12c-14-5-20-1-20-1s4 7 3 11c-11-9-26-12-26-12v20l8 1-3-4 48-9a79 79 0 01-15 13c18-3 29-20 37-18-13 10-9 18-9 18s30-25 50-24a9 9 0 011-3c13 5 19-3 19-3s-17-6-12-23c6 8 26 16 26 16s1-11 8-11c22 63 44 53 44 53s5-48 2-51c-14-10-10 8-22 10 1-9-3-13-3-13s-9 8-17-1c17-3 22-18 22-18s-23 9-34-4c17-3 21-13 21-13s-16 1-20-19c12 12 33 16 33 16s-7-12 1-14c9 29 25 32 25 32l-2-21s-10-25-24-39c10-4 24 11 24 11s-1-37 7-37c-1 15 4 49 4 49s15-26 23-20c-8 7-20 38-20 38v29a19 19 0 0010-12c3-10 1-27 6-28 1 11 9 13 9 13s10-15 25-10c-6 3-5 12-9 19-4 8-12 14-12 14s15 5 14 13c-19-5-21-2-23 1s1 18 1 18 15-15 20-9c-8 7-13 17-12 22s6 8 13 8 30-29 40-21c-15 8-14 24-14 24s13-2 14 7c-22 2-24 18-24 18s18 3 20 17a67 67 0 00-47 4s8 5 8 12c-14-5-21-1-21-1s4 7 3 11c-11-9-25-12-25-12l-1 20s21 4 39 1 28-20 36-18c-12 10-9 18-9 18s33-27 52-24a37 37 0 00-3 3c19 3 29-9 29-9s-13 4-25-2c5-7-15-8-13-17a26 26 0 0016-6h-1l1-2v2a32 32 0 006-6s-25-9-21-21c13 5 20-3 20-3s-18-6-13-23c6 8 26 16 26 16s1-11 9-11c21 63 43 53 43 53s6-48 2-51c-14-10-10 8-21 10 0-9-4-13-4-13s-9 8-17-1c17-3 22-18 22-18s-16 6-28 1a17 17 0 001 2s-28 4-39-8a30 30 0 002 7c-20-9-31-23-31-23s64 16 70 8a16 16 0 01-5-11 40 40 0 007 4c-4-2-8-7-10-16 13 12 33 16 33 16s-7-12 1-14a74 74 0 007 16 44 44 0 0011-6h5c-2-4-12-25-24-38 10-4 24 11 24 11s-1-20 2-31c-36 6-59-8-56-13 15-15 38 3 41-2-8-6-6-11-6-11s10 5 22-2c-13-4-15-10-15-10s13 0 24-8c9 4 30-4 30-4s1 9-12 16c18 15 38-7 49 12 2 5-44 19-93 2 6 13 12 17 17 18 1-2 2-4 4-4v5a9 9 0 002 0 21 21 0 00-2 2c0 16 4 42 4 42s15-26 23-20c-7 6-16 29-19 36a31 31 0 0111 4c0-7 1-12 4-13 1 11 10 13 10 13s9-15 24-11c-6 4-5 13-8 20-4 8-13 14-13 14s15 5 14 13c-19-5-21-2-22 1s1 18 1 18 15-15 19-9c-8 7-13 17-11 22s5 8 12 8 30-29 40-21c-15 8-14 24-14 24s13-3 14 7c-22 2-23 18-23 18s17 3 19 17a67 67 0 00-46 4s7 5 7 12c-14-5-21-1-21-1s4 7 3 11c-11-9-25-12-25-12l-1 20a147 147 0 0023 2 37 37 0 01-3-3s14 2 19-6a71 71 0 01-11-1l24-5s-6 7-18 14h5c17-3 28-20 37-18-13 10-9 18-9 18s32-27 52-24c-11 10-7 15-7 15a33 33 0 0135 4c-36 4-47 13-47 13s11 1 15 9a29 29 0 015 2s5-6-7-15c21-3 55 23 55 23s4-7-10-17c9-3 21 14 40 17s40 0 40 0v-21s-15 4-27 12c-1-4 3-10 3-10s-7-5-22 1c0-8 8-12 8-12a74 74 0 00-50-5c2-14 21-17 21-17s-1-16-25-18c1-10 16-7 16-7a28 28 0 00-16-24c10-9 35 21 43 21s12-3 13-8-4-15-13-22c5-6 21 9 21 9s3-15 2-18-4-7-24-2c-1-7 14-13 14-13s-8-5-13-13c-4-8-3-17-9-20 16-5 26 10 26 10s9-2 11-13c5 1 3 18 6 28a20 20 0 0011 13v-30s-13-31-22-38c8-6 24 20 24 20s5-34 5-49c8 0 7 37 7 37s15-15 26-11c-15 15-26 39-26 39l-2 21s17-2 27-31c8 1 0 13 0 13s22-4 35-16c-4 21-21 19-21 19s5 11 23 13c-12 13-36 5-36 5s5 14 23 18c-8 9-18 1-18 1s-4 4-4 12c-12-2-7-20-23-9-3 2 3 51 3 51s23 10 46-53c7 0 9 11 9 11s21-8 27-17c5 18-13 24-13 24s7 8 21 2c4 13-22 22-22 22s9 12 23 12c1 9-19 10-14 17-13 6-27 3-27 3s11 11 31 9c-32 40-78 23-78 23s34 27 83-3c3 9-1 14-1 14s21 20 40 22a13 13 0 01-1-4s30 20 58-6c17-18 45-10 48-18-15 0-15-19-15-19a27 27 0 0026-13zm-345-578c-4 3-25-17-21-19s25 16 21 19zm-2-28c-3 0-5-14-9-19s-2-13-2-13 13 13 13 16 1 16-2 16zm-350-129c3 1-17 21-21 18s18-20 21-18zm-21-25c0-3 13-16 13-16s1 8-3 13-5 19-8 19-2-13-2-16zm-458-38c-5 2-25-17-22-19s26 16 22 19zm-2-28c-3 0-5-14-9-19s-2-13-2-13 13 13 13 16 1 16-2 16zM286 354c-4 3-25-17-21-19s25 17 21 19zm-2-28c-3 0-5-14-9-19s-2-13-2-13 13 13 13 16 1 16-2 16zm25 47c4-2 14-2 19-5s15-11 16-11-7 12-11 14-18 12-22 13-5-8-2-11zm103 318c-31-3-28-25-28-25s28 15 37 11c-5-6-2-15-2-15s10 16 27 13c-4-5-7-13-7-13s28 9 38 4a14 14 0 01-8-12 38 38 0 0018-11c5-6 9-17 14-20 11 7 25 8 25 8s-3 5-17 10c13 7 23 1 23 1s3 6-6 11c3 6 28-13 44 3 3 5-24 20-64 12 0 6 5 7 5 7a185 185 0 01-38 1 4 4 0 00-1-2l-2 2a77 77 0 01-18-5 28 28 0 009 10c-11 7-26 12-49 10zm51-3a37 37 0 004-4 27 27 0 0012 1c-7 3-16 3-16 3zm15 3l-1 2a45 45 0 00-5 1 20 20 0 006-3zm22 169a57 57 0 01-9 1c-9-4-13-9-12-11a23 23 0 014-3c3 8 17 13 17 13zm15-47c-20 3-43-1-43-1a29 29 0 0110-11c27-3 45 3 52 7a140 140 0 01-19 5zm85-57c-27 10-66 12-83 2a14 14 0 005 10h-4l1-1-8 2c-10 1-27 2-39-3 0 5 3 7 5 9-30 1-51-7-51-11 11-18 31 3 50-12-14-6-13-16-13-16s25 10 33 3c-6-5-5-11-5-11s12-1 21-5c28 25 57 5 57 5a16 16 0 01-5 11c6 8 74-9 74-9s-13 17-38 26zm161-581c3-2 13-3 19-5s14-12 16-11-7 12-11 14-19 12-23 13-5-9-1-11zm254 517l6-1-6 1zm158-425c-4-1-17-11-21-13s-12-13-10-14 10 9 15 11 14 3 17 6 3 11-1 10zm121 628v-1 1zm106-15c-3 2-8 5-15 7h-1s5-4 16-7zm-90 25a25 25 0 010 3l-3-3a21 21 0 003 0zm85-216a21 21 0 002-9c8 5 20 7 24 7-12 4-26 2-26 2zm197-294l19-5c5-2 15-12 16-11s-7 12-11 14-18 12-22 13-6-8-2-11z" fill="#182b0e"/><path d="M1356 823a35 35 0 004-2l-3-1a16 16 0 00-1 3zm-347-82a48 48 0 001-9 106 106 0 01-12 0v21a19 19 0 0011-12zm402 85h-1 1zM216 1023h5a16 16 0 00-3-2 32 32 0 01-2 2zm80 0a55 55 0 003-20s-5 12-11 20zm-50 0h7a16 16 0 00-2-5l-5 5zm26-5l-4 5h9a18 18 0 00-5-5z" fill="#182b0e"/></svg>