<svg xmlns="http://www.w3.org/2000/svg" viewBox="0 0 403 559"><defs/><path d="M403 20a18 18 0 01-1-5c-6 5-14 8-27 9-46 5-71-14-86-24-4 8 13 19 13 19s-19 2-28-7c0 12 15 16 15 16s-20-4-36 3c-13 5-21 23-40 19 1 22 49 26 49 26s2 9-7 17c11 10 47-4 47-4s1 13-18 23c22 17 44 0 60 7a143 143 0 01-36 10c-41 5-97-4-117-24a19 19 0 004 15s-44-1-70-18c-2 9 8 15 8 15s-22 7-39 2c11 20 51 19 51 19a47 47 0 00-29 15c62 3 88 32 88 32s-11 13-24 21c30 14 63 3 63 3a32 32 0 01-2 12l-4 1a67 67 0 00-17 3c1 3-3 7-21 14-43 16-72 17-98 1a21 21 0 007 15s-47 10-79-2c0 11 12 15 12 15s-22 13-41 11c17 19 60 7 60 7a51 51 0 00-28 24c68-12 102 13 102 13s-8 16-20 28c36 7 69-13 69-13s3 12-4 23c26-1 42-26 42-26a82 82 0 014 24c10 0 71-16 80 2l4-2c-15 11-33 22-52 29l-38 4a12 12 0 01-1 1c-28 0-56-10-70-18 0 15 27 21 27 21s-29 11-59-1c19 26 55 20 55 20s-15 14-46 17c9 12 30 6 30 6a82 82 0 01-16 13c-15 1-30 1-42-3 18 25 45 16 45 16s2 30-21 34c20 35 84 9 47 43 27 13 122-12 90 14 22 14 67-16 67-16s7 1 8 4a68 68 0 0117-6c18-4 34-10 51-18l2-1V20z" fill="#122007"/></svg>