<svg xmlns="http://www.w3.org/2000/svg" viewBox="0 0 373.43 421.21"><title>forest-bg-branchРесурс 8</title><path d="M0,59.52V326.24c5.71,5.66,11.39,11.37,15.64,17.22,12.63,17.1,23.31,33.77,36,50.87a28.12,28.12,0,0,0,5,4.5l2.65.79a27.77,27.77,0,0,1,1.28-9.91s34.72,29.05,48.87,27c-5-10.14,2-22,2-22s9,25,34,26.56c-4.2-7.9-7-20.64-7-20.64s37.3,21.35,52.42,17.17a20.41,20.41,0,0,1-7.1-18.87S199,398.6,211.83,389c11.48-8.53,20.1-26.66,29.76-24.36-16.25-20.74-40.71-19.38-40.71-19.38s11.12-3,10.59-14.73c-15,13-63.06,1.29-63.06,1.29s15.23-11.77,13.07-20.77c-15.54,7.4-31.57,7.57-46.84,3.7a61.82,61.82,0,0,0,8.57-.81c-11.11-10-4.55-29.52-4.55-29.52s8.08,16.4,24.23,18.54c-4.29-14,4.17-22.33,4.17-22.33s24.1,17.16,21.57,26.5c12.63-.26,15.9-5.68,15.9-5.68s0,14.26,15.39,17.79C199.8,307,203.46,300,203.46,300s7.07,15,26.25,11.23c-5.05-8.58-8.08-36.21-8.08-36.21s23.47,27.63,47.2,27.63c-3-8.07-2.53-18.16-2.53-18.16s25.62,20.57,43.41,15.14A48.18,48.18,0,0,1,297,284.44s6.94,2,15.52-2.28c-15.65-8.08-16.28-25.74-16.28-25.74s32.93,27.39,48.58,23c-6.56-9.21-6.94-15.4-6.94-15.4s23.6,3.53,34.7-14.64c-51.36,2.52-112.68-24-112.68-24s32.18,2.52,52.37-13.63c-8.33-4.66-11.11-14.38-11.11-14.38s19.18,7.57,30.79-2c-13.25-4-19.06-9.72-19.06-9.72s8.46,2.14,18.56-6.06A34.48,34.48,0,0,1,322,169s18.55,8.2,38-.88a82.79,82.79,0,0,1-20.58-12s21.33,3.15,28.78-9.47c-31.43,0-47.32-12.11-47.32-12.11s36.09,2,52.61-25.75c-28.64,14.89-59.43,7.58-59.43,7.58s26-9.34,24.61-23.48c-15.52,11.72-52.45,28.22-87.32,27.44-18.4,4.54-38.08,3-56.48,1.35-15-1-30-4-46-8-20-4-40-6-57-16A82.76,82.76,0,0,0,80.93,93c-.64-6.74,2.62-13.19,2.62-13.19s24.63,24.85,39.35,18.56c-6.1-7.08-8-28.88-8-28.88S147.6,94.54,165,81.7c-20.1-5.89-24.66-25.87-24.66-25.87s31.07,22.8,46.6,12.68c-12.74-3-19.31-17-19.31-17s19.62,7.75,30.64-.13a14,14,0,0,1-7.44-13.13S223,33.41,222.7,19.4a68.54,68.54,0,0,1-45.29-2.79s6.56-5.39.8-14.31c-7.49,15.62-49.74,24.75-49.74,24.75s4-8.43-6.62-20c-.16,9.48-22.43,9.17-22.43,9.17S104,4.74,100.81,0C55.57,50.73,35.42,27.61,35.42,27.61s4-7.79,1.75-15.61C31.71,14.52,12.37,17.68,0,15.28V59.52Z" fill="#122007"/></svg>