<svg xmlns="http://www.w3.org/2000/svg" viewBox="0 0 1920 1059"><defs/><path d="M866 1006a15 15 0 00-1 4l4-1-3-3zm-22 0a13 13 0 00-6 1 81 81 0 0013 2 12 12 0 00-7-3zm-458-15zm824-44l3-1h-3a6 6 0 000 1zm47-9a23 23 0 002 1c2 2 5 3 9 4a14 14 0 00-11-5zm-64 75a142 142 0 0023-10 25 25 0 00-23 10zm106 38a20 20 0 00-15-5 160 160 0 0017 10c1-2 0-4-2-5zm-82-56a27 27 0 014 5l10-5a4 4 0 000-2 26 26 0 00-14 2zm81-3c-4-3-8-6-11-3a13 13 0 0011 3zm-44-58a11 11 0 014-4 103 103 0 01-9-15s0 10 5 19zm296 14h-1l4 1a18 18 0 01-3-1zm2 43c9-4 9-10 9-10l-7 2a19 19 0 00-2 8zm103-133c-9 0-13 14-20 13a13 13 0 001-6c-14 6-18 15-19 17 24-4 45-19 45-19s2-6-7-5zm78 7l-7-3a11 11 0 01-2-1v-1c-4-3-7-5-10-2-5 6 21 20 44 20s26-13 34-14a12 12 0 00-5 6c8-5 13-10 10-14a4 4 0 00-3-1 14 14 0 003 1 13 13 0 01-8 1c-4 3-9 8-13 7a8 8 0 001-2 25 25 0 01-10-2c-4 4-10 8-15 7a5 5 0 000-1c-4-1-9-4-12-7a28 28 0 01-8 3 7 7 0 001 3zm-101-5l-3 3a32 32 0 017 0 15 15 0 00-1-3h-3zm-438 35c0-6 7-9 7-9a44 44 0 00-5-2 36 36 0 01-7 2 11 11 0 005 9zm421-33h-2a47 47 0 01-7 5 29 29 0 010 12 30 30 0 0110-12 7 7 0 000-5zm-427 92l-4-1a5 5 0 000 1h4zm-51-38h1a25 25 0 014 0s-6-5-27-9c3 4 10 8 22 9zm577-4a151 151 0 0017 9 15 15 0 000-6l-6-6c-3-1-6 2-11 3zm-142 87a59 59 0 0111-3c-9-2-20 4-31-2 1 6 8 11 20 5z" fill="none"/><path d="M1164 903l9 6s4-6-8-13c6-2 13 5 22 9l5-2c1 1 0 3-1 4a37 37 0 008 2c12 2 26 1 32 0a9 9 0 013-10v-3a40 40 0 01-4-2 73 73 0 00-19 8c-1-3 2-8 2-8s-6-3-18 1a14 14 0 002 1c-9 4-36-3-36-3l8 10a25 25 0 01-5 0zm69 27c3-6 2-11 2-11a85 85 0 01-10 7 26 26 0 008 4zm518-14a52 52 0 01-11 9 103 103 0 0011 3c4-8 0-12 0-12zm2 12c13 3 28 3 39-5a4 4 0 011 2l9-6s2-7-8-6-14 17-21 16a18 18 0 000-12 22 22 0 01-4-2c-3 4-10 11-16 13zm-744-334s-1 7 2 11 6 15 8 15 3-10 3-13-13-13-13-13zM902 960a50 50 0 01-11-6 26 26 0 00-7-1c0 4 1 10 3 13a163 163 0 0018-2 23 23 0 00-3-4zM576 688c3 0 4-12 8-17s2-12 2-12-12 12-12 15-1 14 2 14zm227 194s-1 16 10 24c6 5 24 5 28 4 1 4-3 8-3 8s11 15 45-9c1 3-3 9-3 9s14 2 15-3c6 7 2 11 2 11s23-1 32-7c-9 1-18 3-28-3 13-6 12-13 12-13s-23 8-30 2a13 13 0 003-3 26 26 0 01-8-6s-8 3-7 11c-9 1-24-13-24-13s-4 6 0 14c-8 2-19-15-19-15s-6 4-6 11c-7 1-19-22-19-22zm-402 7l-3 1v1a33 33 0 014-1 13 13 0 01-1-1zm1453-175c4 2 22-16 20-17s-24 14-20 17zm2-26c3 0 4-12 8-17s2-12 2-12-12 12-12 15-1 14 2 14zm-854-60c-3 1 15 17 19 15s-17-17-19-15zm648 67s-2 6 2 10 4 14 7 14 2-10 2-12-11-12-11-12zm-8 31c-2 1 15 16 19 14s-16-16-19-14zM574 714c4 2 22-16 20-17s-24 14-20 17zm155 181c-15 1-14 19-9 21 2 1 6-6 12-12a34 34 0 00-8 4 15 15 0 015-13zm-354 45a7 7 0 004 3 22 22 0 002-5 21 21 0 01-6 2zm508 26c-9-2-19-14-19-14s-6 6-2 12c-7 1-16-14-21-8a3 3 0 00-1 3l26 6a106 106 0 0017 1zm894-108a18 18 0 00-3-7l-1 2a19 19 0 004 5zm-192 88a86 86 0 0019 1c27-3 24-19 24-19s-18 8-28 8c-5 5-10 5-13 8a6 6 0 00-2 2zm-464-46l-10-4a13 13 0 000 4 36 36 0 0110 0zm489-98a18 18 0 017-4 64 64 0 00-10 1 14 14 0 013 3zm-25 22a15 15 0 000-2l-2 2h2zm15 3s-8-7-5-11h-1a69 69 0 00-8 5 65 65 0 006 5l8 1zm-817 2c4-2-17-17-19-15s15 17 19 15zm-43 83l-1-1a20 20 0 000 10s3-2 7 0c6-1 13-4 26-11 20-11 17-23 17-23s-9 8-20 12-22 4-29 13zm-26-63l2 5c4 3 12-12 18-2-5 2-9 6-11 11 7 2 16 11 30 13 16 3 35 0 35 0v-16s-13 3-23 9c-1-3 2-8 2-8s-6-3-19 1c0-6 7-9 7-9a72 72 0 00-41-4zm67-43c3 0 3-10 3-13s-13-13-13-13-1 7 2 11 6 15 8 15zm-59 59a44 44 0 00-2 7l7 4s3-5-5-11zm-9-19c5-8 17-10 17-10s-1-11-17-13v23zm497 1c-3 1 15 17 19 15s-17-17-19-15zm-24-65c1 6-6 9-6 9a36 36 0 0010 2c-1-4-1-8-4-11zM645 964a73 73 0 0014-1c2-4 5-6 13-6a12 12 0 002 1l4-2c1-3-1-6-3-10a26 26 0 01-6-1 29 29 0 003-2 23 23 0 00-6-4l-5-1a8 8 0 00-2 0 58 58 0 007 11c-16 2-25-12-25-12s-2 8 2 14h-10a163 163 0 0112 13zm519-124c1 3-1 7-3 10a24 24 0 017 0s1-12-14-19c9-6 31 17 37 17a23 23 0 003 0 12 12 0 004-3 8 8 0 010 2c3-1 4-3 5-6 1-4-3-11-11-17 4-4 18 7 18 7s3-11 1-13-3-5-21-1c0-6 13-11 13-11a39 39 0 01-9-7 37 37 0 01-12 2s-1 4 8 8c-16 7-27-5-27-5a24 24 0 009 16c-10 4-16-5-21-3-6 3-7 8-4 17-10 1-22-11-22-11s-4 5 0 12c-8-1-21-15-21-15s-4 7-1 15c-7 1-11-14-21-15s-8 6-8 6 55 38 90 14zm-359 28s30 20 73-3a12 12 0 010 6 20 20 0 014-1c10-4 23-2 23-2s-10-2-10-9c6 5 18 4 18 4s-11-6-8-11c9 6 26 17 55 14s26-20 26-20-26 12-34 9c4-5 1-13 1-13s-9 13-25 11l8-11s-27 8-36 3a11 11 0 007-9s-9-2-16-9c-5-5-8-15-13-17-6 5-17 9-17 9s8 9 21 9c1 7-17 7-12 13-11 4-24 2-24 2s10 9 27 7c-27 31-68 18-68 18zm239-201c4 0 16-9 20-10s12-11 11-12-10 8-15 9-14 3-17 5-3 9 1 8zM806 853c4 0 16-9 20-10s12-11 11-12-10 8-15 9-14 3-17 5-3 9 1 8zM553 731c-3-2-12-2-17-4s-14-11-15-11 7 11 10 13 17 11 21 12 4-8 1-10zm674 108c3 0 3-10 3-13s-13-13-13-13-1 7 2 11 6 15 8 15zm-749-46c-8 4-11 14-11 20h11s-4-7-2-10c33 27 43 11 43 11s-3-5-2-10c4 2 22 1 27-4 11-9 10-27 10-27s-11 26-19 25c1-8-5-12-5-12s-12 18-19 16c4-9 0-16 0-16s-15 16-23 15c0-9-8-13-8-13a32 32 0 01-3 4 8 8 0 011 1zm-10 1c0-5-3-7-3-7l-3 1 2 7c1 1 2 0 4-1zm-66 128h-11c4 8 10 10 14 8 5-3 8-21 3-27-10 7-18-3-20 6-1 10 16 6 14 13zm741-28l2 1a19 19 0 01-1-2 12 12 0 00-1 1zm-662-30c4 3 4 8 7 8s4-12 8-16a18 18 0 00-2-5s-6 9-13 13zm15 0a8 8 0 001-2c-3 6-5 11-3 14a83 83 0 0011-5c3-5 6-12 10-9l-3 4c5-4 7-7 5-10-5-6-14 10-21 8zm18 49a9 9 0 00-4 1 8 8 0 006 4c2 1 3-1 5-4-1-1-3-2-7-1zm740-27l18-10c4-2 12-11 11-12s-10 8-15 9l-16 4 2 9zm-322 33a5 5 0 01-3 6 44 44 0 0012 4c4-1 6-3 6-4-4-5-9-6-15-6zm-155 37a12 12 0 00-7 3 33 33 0 001 11 141 141 0 0014-8s2-6-8-6zm-47-62a19 19 0 016-2h-6a8 8 0 010 2zm-100 56a144 144 0 01-21-9s-3 19 23 23a28 28 0 01-2-14zm1058-138c4 2 12 3 19 3a9 9 0 010-3 12 12 0 004 3 21 21 0 003 0 8 8 0 010 2c8 4 19 5 24 6l2-1c0-2-1-7 3-12 1 6 15 3 15 3a27 27 0 01-2-5 24 24 0 01-7-6s-8 3-7 10c-8 1-22-12-22-12s-4 5 0 13c-7 2-18-14-18-14s-6 4-5 10c-7 1-18-20-18-20s-1 15 9 23z" fill="none"/><path d="M1621 809s-3-1-8 0a12 12 0 01-1 3 11 11 0 00-4-1l-2 2a15 15 0 010-2c-4 1-8 2-12 5h3a15 15 0 01-2 0c7 7 15 9 23 9s15-1 33-10 15-22 15-22-9 8-18 12-21 4-28 11c-3-2 1-7 1-7zm-53-13c3-6 12-6 12-6s-6-5-27-8a23 23 0 01-3 8c-7 9 0 9 18 6zm199 0a15 15 0 00-7-8 32 32 0 01-2 3 78 78 0 009 5zm-215 93s-6-2-4-8c2 2 6 4 11 5a29 29 0 004-9c4 1 3 6 4 10a135 135 0 0016 1h1c-2-2-7-8-5-12a40 40 0 0012 6 30 30 0 007-12 15 15 0 01-4 1c4-9 3-13-3-16-5-2-10 6-19 2a21 21 0 006-7h-7a35 35 0 00-3 6s14 4 10 12c-15-10-43 7-42 16a8 8 0 002 5 35 35 0 0114 0zm-241-34v-5l-3 2a26 26 0 003 3zm371-92l19-10c4-1 10-10 9-11s-9 7-14 9-12 2-16 4-2 8 2 8zm98 36c-3 8-17 1-17 1s-4 3-3 7c30 22 39 7 39 7s-3-5-2-10c4 2 22 1 27-4 11-9 10-27 10-27s-11 26-19 25c1-8-5-12-5-12s-12 18-19 16c4-9 0-16 0-16s-7 8-15 13a30 30 0 004 0zm53-68c-3-2-12-2-17-4s-13-11-15-11 7 11 10 13 17 11 21 12 4-8 1-10zM524 399l2 3v-5a14 14 0 00-2 2zm10-117a28 28 0 01-4 6h9a23 23 0 00-5-6zm-14-3c0-10 13-12 13-12a91 91 0 00-11-10c-2 3-2 7 0 14-6 0-13-6-16-9h-2c0 2-1 5 1 9-5-1-11-7-14-11h-3a16 16 0 000 11c-6 1-9-13-16-13s-6 5-6 5 37 31 64 16a14 14 0 00-10 0zm409 75a52 52 0 0016 1s-1-8-5-12a61 61 0 00-16 6 18 18 0 015 5zm-432-17a17 17 0 006 6l1-2c0-2-3-4-7-4zm-29-215c3 0 4-11 7-14s1-10 1-10-9 9-9 12-1 12 1 12zm49 80l2 17a31 31 0 003-2 11 11 0 01-2 0h4a10 10 0 01-2 0c1 1 0 4-1 6a12 12 0 003 3c4-3 7-7 10-8a12 12 0 00-5 7l10-5a7 7 0 010 8c4-1 9-3 12-7a8 8 0 01-3 9 19 19 0 0012-5l-4 8a22 22 0 008-1l-3-5c-7-11-2-24-17-29a10 10 0 011 4c-15-8-23-9-23-9s7 5 5 15a30 30 0 00-10-6zm37 116a11 11 0 006 8c-2 2-5 2-9 2a18 18 0 005 5c8 6 18 0 19-7 0-4-5-9-11-13a26 26 0 01-10 5zM41 167l15-10c3-2 8-9 7-10s-7 6-11 8l-12 4c-2 2-2 8 1 8zm526 230a20 20 0 00-12-4 18 18 0 01-9 2 23 23 0 00-11 10 94 94 0 0033 1c2-3 3-6-1-9zm-11 37l2 1-1-2a16 16 0 00-1 1zm260-93a30 30 0 009-5 41 41 0 01-10 1c-1 2-1 4 1 4zm92 70a45 45 0 00-11 5 49 49 0 008 6v-1a13 13 0 003 4h1c11 6 34 6 34 6a34 34 0 01-5-9c-8-8-20-9-30-14-11-5-21-16-21-16s-2 9 5 19a30 30 0 0116 0zm-13-122c3 0 5-15 9-20s2-14 2-14-13 14-13 17-1 17 2 17zm18 91h-1c9-5 7-9 7-9a30 30 0 01-6-1c-4-1-9-3-13-7a81 81 0 00-12-5l-1 20a144 144 0 0026 2zm-105-76a64 64 0 01-8-3 32 32 0 002 10 32 32 0 006-7zm130 70v-1a21 21 0 01-2 3l2-2zm-45-56c2 2 10-4 15-10a6 6 0 01-2-3 38 38 0 005 0c3-3 5-6 3-7-3-2-25 17-21 20zM512 210a19 19 0 015-8 46 46 0 00-13-3 14 14 0 018 11zm292 223a7 7 0 000 1c8 5 14 6 19 5 3-2 5-6 7-12a14 14 0 010-4c5 1 24 1 31-5a28 28 0 006-9v-2a7 7 0 011 1c4-11 3-22 3-22s-12 30-20 29c0-9-6-14-6-14l-4 5c4 2 7 5 5 10a19 19 0 00-10-3c-4 4-9 8-13 7a22 22 0 002-5c-11 3-22 12-21 18zm42-59a20 20 0 016 2c11-3 17-8 17-8a66 66 0 01-21 3l-2 3zm0-38h1a32 32 0 006-2 18 18 0 01-2-1l-16-12c-1 0 7 13 11 15zm-19 212a11 11 0 00-6 2c2 5 5 8 12 7l3-2s2-8-9-7zM467 142c3 2 17-12 15-14s-18 12-15 14zM145 421s0 5 7 10l-3-9-4-1zm-21-37c4-2 6-4 7-6a16 16 0 00-1-1 17 17 0 01-8-3 23 23 0 01-7-4c-1 2-1 5 1 8-6 2-25-8-25-8s-2 16 19 18a55 55 0 0021-1v-1a22 22 0 01-7-2zm92-152c-3 2 15 21 19 18s-16-19-19-18zm-68 203l7 1-2-3a16 16 0 01-5 2zm76-241s-2 8 2 12 5 18 7 18 3-12 3-15-12-15-12-15zm251 22l5 3a46 46 0 01-5-10c17 10 28 14 34 16a23 23 0 004-2 22 22 0 01-1-10c-8-5-12-3-12-3s3 5 1 7c-6-7-15-8-23-11s-15-12-15-12-3 12 12 22zm-335 81a5 5 0 001-3c-7-1-11-6-11-6a24 24 0 001 6 28 28 0 019 3zm-10 23c2 5-4 12-4 12s24 1 29-7a7 7 0 01-3 8 22 22 0 017-1c-2-12 6-16 6-16s-10 0-28 11c-2-13 14-15 14-15s-8-6-33-10c-2 2-2 6 0 13-8 1-16-10-16-10s-4 4-1 11c-6-1-15-13-15-13a16 16 0 00-1 13c-6 0-9-13-16-13s-6 5-6 5 41 34 67 12zm99 77c-9 1-13 18-21 17a20 20 0 000-14l-3 1c-4 4-12 12-18 13 3-5 2-9 1-11-3 9-24 11-24 11s0 5 4 9c-3 2-9 2-14 0 34 21 83-19 83-19s2-7-8-7zm-56-59c-3 0-5 3-7 7h2a13 13 0 01-2 0c8 9 16 11 25 12 9 0 15-2 34-13s16-27 16-27-9 9-19 14-22 5-29 15c-3-4 0-9 0-9s-5-4-16 4c0-14 12-18 12-18s-16 1-27 10a23 23 0 0111 5zm84-60c4 0 16-10 20-12s11-12 10-13-10 8-14 10-14 3-17 5-2 11 1 10zm-86 81s-6-6-6-12a34 34 0 01-3 6l-2 2a44 44 0 004 3l7 1zm191-25a28 28 0 01-3-7c-5 5-16-2-16-2a9 9 0 00-3 6c9 3 22 3 22 3zm16 57c18-2 20-13 20-17a33 33 0 01-6 2l-9 3a9 9 0 004 7c-8 4-19-3-19-3a26 26 0 005 8h5zm-27-8a24 24 0 001 5 50 50 0 007 2 71 71 0 01-8-7zm100-227l-13-3-12-9c-1 0 5 9 8 11l16 9c3 0 3-6 1-8zM315 471v1c-7 1-11-16-21-16s-7 6-7 6a143 143 0 0033 20 105 105 0 0017-2s-8-14-22-9z" fill="none"/><path d="M314 468a22 22 0 015-8 9 9 0 01-5 0 21 21 0 000 8zm20-134a28 28 0 01-7-7 15 15 0 00-7 9 25 25 0 0114-2zm0 59h2a13 13 0 01-2-1v1zm-28 11c-5-4-11-11-15-6s12 18 32 23a8 8 0 000-3s-23-2-24-14a11 11 0 007 0zm5-3l5-5-3-4a19 19 0 00-2 9zm-47-61c6 5 23 5 28 4 0 5-3 10-3 10s8 13 33-4c-2-5-4-10-8-10h1c-8-4-18-15-18-15s-4 7 1 16c-8 3-19-17-19-17s-6 5-6 13c-7 1-18-26-18-26s-1 19 9 29zm269-7a13 13 0 005 1c4 0 5-4 6-7a106 106 0 01-11-3 51 51 0 005 9 17 17 0 01-5 0zm1165-43a22 22 0 004 6 53 53 0 01-3-6zm7 9c5 6 14 13 19 12 4-1 3-8 4-15a35 35 0 00-5 4c-4-16 7-22 7-22s-7 0-18 5c1 3 2 6 0 8a12 12 0 00-8-4l-4 2c3 2 7 7 5 10zM1704 299a2 2 0 001 0 55 55 0 01-3-3 18 18 0 002 3zm71 77c-3 4-10 11-16 14 1 3 0 8 5 9 4 0 11-3 16-9a23 23 0 000-15l-5 1zm-29-59c-2 2-2 4-2 5a35 35 0 005 2l16-3c16-4 13-8 16-20-8 2-14 5-20 12-3-4 1-11 1-11s-4-2-11 1c-2 4-2 10-5 14zm-10-13a56 56 0 0110-7 21 21 0 0111-11 66 66 0 00-24 7c0 8 3 11 3 11zm-281 167a23 23 0 000 3l1 2h-1c2 5 5 8 9 10a87 87 0 0012-8c-1-3-4-7-8-10a139 139 0 01-19-5 87 87 0 004 8 5 5 0 012 0zm-6 100a116 116 0 0032 4 7 7 0 000-4c-3-8-21-7-32 0zm45-126c3 3 7 3 12-2s4-12 1-18c-5 3-8 13-13 19zm7-27c-4-5-10-8-15-9a11 11 0 01-5 7 33 33 0 0120 2zm200-161c1-1 2-3 0-7a22 22 0 01-4-2s3 4 4 9zm96-119s-2 10 2 15 6 20 9 20 3-14 3-18-14-17-14-17zm39 97c4-1 18-12 22-14s13-14 12-15-11 10-17 12-15 3-19 6-2 12 2 11zM156 503c-1 1 1 3 5 6a79 79 0 0014 0 45 45 0 009-2 42 42 0 00-1-9c-10 0-21-1-27 4zM76 821c1-7-5-16-12-21l2 22 10-1zm1712-638c-3 2 18 23 22 20s-19-22-22-20zm-343 299c4 0 5-3 5-6a22 22 0 01-7-2c0 4 0 7 2 8zm357-96l10-7v-1a27 27 0 00-10 8zm10-10c-1-2-3-4-9-4-5 0-9 5-12 10a25 25 0 010 6s6-13 21-12zm-30-59a37 37 0 008-2l8-5c22-14 19-31 19-31s-11 11-22 16a103 103 0 01-13 5c6 8 0 17 0 17zm-33 165c1 5 6 7 15 3l5-1a23 23 0 002-12 165 165 0 01-22 10zm7-91h-1c3-6 2-10 1-13a29 29 0 00-5 1c-3 4-8 8-14 10a7 7 0 00-2 4c1 7 15 12 21-2zm-350 95c7-1 8-4 8-4s-12-1-11-8a11 11 0 006-1l-12-6a21 21 0 009 19zm-330-299c4 3 22-16 19-17s-22 15-19 17zm2-26c3 0 4-13 8-17s2-13 2-13-12 12-12 15-1 15 2 15zm77 201a33 33 0 0129-7 10 10 0 01-5-12c8 11 40 10 40 10s-8-10-5-16c36 29 92-17 92-17s2-8-8-7-14 19-22 18a21 21 0 000-15h-4c-4 5-12 14-19 15 3-6 2-10 1-13h-2c-4 4-13 13-21 12 3-12 2-17-4-21-6-3-12 8-21 4a27 27 0 006-10l-12-1c-5 8-14 10-18 10a16 16 0 00-2 3c1 2 3 4 8 6a22 22 0 01-7 3l-18 1a25 25 0 006 9c-9 5-14-6-20-3s-7 8-3 20c-8 0-17-8-20-11h-2c-1 2-2 6 1 11-7 0-14-9-18-13l-4-1a20 20 0 000 14c-7 1-11-16-21-16s-7 6-7 6 47 39 80 21zm-99-156c-4-3-12-3-17-5s-13-11-15-11 7 12 10 13 17 12 20 12 5-7 2-9zm387 363c2-6 11-12 11-12-7-1-13 0-17 8 0 1 2 3 6 4zM956 401a62 62 0 00-11-2 20 20 0 019 8 40 40 0 002-6zm5-81a70 70 0 01-9 7 34 34 0 016 2 27 27 0 003-9zm272 97c4-7 1-16 1-16s-9 16-25 13c4-4 7-13 7-13a136 136 0 01-20 5 33 33 0 01-9 5 14 14 0 002 6c10 7 26 16 52 14 30-3 27-25 27-25s-27 14-35 11zm-264 72a42 42 0 002 12c-9 0-18-9-22-13h-3c-1 3-2 7 1 13-7-1-15-10-20-15l-4-1a24 24 0 00-1 11c9 5 22 10 41 8 22-2 26-16 26-21a21 21 0 01-3-1 130 130 0 01-17 7zm-59 0c-3-3-6-6-10-6-11-1-9 6-9 6l10 7c5 5 17 4 17 4s-9-6-8-11zm107-96c-9 0-13 17-21 17a19 19 0 002-10l-6-3c-4 4-9 9-13 11a29 29 0 01-1 4 41 41 0 00-12-8l-11 5a23 23 0 013 11c-12-9-18-6-18-6a15 15 0 012 5c9 5 18 6 28 5h1a16 16 0 01-3 0h5a14 14 0 01-2 0c27-3 54-25 54-25s2-7-8-6zm180-91a17 17 0 01-3-1 22 22 0 01-3 0l-2 2a29 29 0 008-1zm87-164a1 1 0 000 1c3-2 20 12 21 17 0-4-18-19-21-18zm42 39c4-3 13-3 18-6s14-11 15-11v0c-1 0-10 9-15 11s-14 3-18 5l-2 6 2-5zM974 360c24 0 52-18 46-25s-14 10-20 8c3-6-2-14-2-14s-13 19-22 16c3-5 2-19 2-19a66 66 0 01-11 10 17 17 0 013 8 66 66 0 00-29-1c6 4 11 18 33 17zm318-263a26 26 0 000 4 25 25 0 010-3s13 13 13 16a72 72 0 010-1c0-3-13-16-13-16zm33 125c2 2 13 13 13 23 1-11-13-23-13-23zm-143 270c1 3 4 7 11 11-15 12-30-2-41 7 41 10 77-2 76-7-11-18-29 2-46-11zm-8 244a89 89 0 0015 10 95 95 0 0015-11l-12-2-18 3zm8-245l2-2-3-1a10 10 0 001 3z" fill="none"/><path d="M1161 366a37 37 0 01-5 7h8a61 61 0 00-3-7zm23 67s-9-3-9-11c5 6 18 5 18 5a35 35 0 01-5-4c-11 1-28-5-28-5l7 12c-16 3-25-12-25-12s-2 9 2 14c-8 4-33-10-33-10s-3 21 25 24a82 82 0 0010 0c5-3 9-9 15-11 10-5 23-2 23-2zm-273-72a30 30 0 0011-2 10 10 0 01-2-1c-6-1-9 1-9 1v2zm284 461l-6 4 3 2a3 3 0 012-1l4-4-3-1zm8-3l2-1h-2v1zM9 131c-2 2 12 16 15 14s-13-15-15-14zm1290 923a20 20 0 00-15-5 160 160 0 0017 10c1-2 0-3-2-5zM23 911a29 29 0 00-7 1 45 45 0 007-1zM2 845l4 4a28 28 0 019-6 64 64 0 01-13 2zm42 20c1-2 0-4-2-7a81 81 0 00-19-2c0 16 17 16 21 9zm-33-9c1 4 0 9 2 9 7 1 4-7 7-9h-9zm4-754s-1 6 1 9 4 14 6 14 2-10 2-12-9-11-9-11z" fill="none"/><path d="M1725 912c-3-1-6 2-11 4a151 151 0 0017 8 15 15 0 000-5l-6-7zm-11-51c-5 6 21 20 44 21s26-14 34-15a12 12 0 00-5 6c8-5 13-10 10-13a4 4 0 00-3-2 14 14 0 003 2 13 13 0 01-8 0c-4 3-9 9-13 8a8 8 0 001-2 25 25 0 01-10-3c-4 4-10 8-15 7l-12-8a28 28 0 01-8 3 7 7 0 001 3c-2 0-5-1-7-3a11 11 0 01-2-1c-4-3-7-6-10-3zm119-127c-3-2-12-2-17-4s-13-11-15-10 7 11 10 12 17 11 21 12 4-7 1-10zm-93 194a103 103 0 0011 3c4-7 0-12 0-12a52 52 0 01-11 9zm-105-65l-3 1-3 2a32 32 0 017 0 15 15 0 00-1-3zm157 63a4 4 0 011 2l9-6s2-7-8-6-14 17-21 16a18 18 0 000-12 22 22 0 01-4-1c-3 4-10 11-16 12 13 3 28 3 39-5z" fill="#1f360d"/><path d="M1774 855l-1 1a19 19 0 004 5 18 18 0 00-3-6zm-179-36c7 7 15 9 23 10s15-2 33-11 15-22 15-22-9 8-18 12-21 4-28 12c-3-3 1-8 1-8s-3-1-8 1a12 12 0 01-1 2 11 11 0 00-4-1l-2 2a15 15 0 010-2l-12 5h3a15 15 0 01-2 0zm168-16s-4 3-3 7c30 22 39 7 39 7s-3-4-2-10c4 2 22 2 27-3 11-10 10-28 10-28s-11 26-19 25c1-8-5-12-5-12s-12 18-20 16c5-9 1-16 1-16s-7 8-15 13a30 30 0 004 0c-3 8-17 1-17 1z" fill="#1f360d"/><path d="M1600 831s-8-8-5-12h-1a69 69 0 00-8 5 65 65 0 006 5l8 2zm-48 61s-6-2-4-8c2 2 6 4 11 5a29 29 0 004-9c4 1 3 7 4 11a135 135 0 0016 0h1c-2-2-7-8-5-12a39 39 0 0012 6 30 30 0 007-11 15 15 0 01-4 0c4-9 3-13-3-16-5-2-10 6-19 3a21 21 0 006-8h-7a35 35 0 00-3 6s14 4 10 13c-15-11-43 6-42 15a8 8 0 002 5 35 35 0 0114 0zm33-66l-2 1h2a15 15 0 000-1zm103-11c4 3 12 4 19 4a9 9 0 010-4 12 12 0 004 3 21 21 0 003 0 8 8 0 010 2c8 4 19 5 24 6l2-1c0-2-1-6 3-12 1 6 15 3 15 3a27 27 0 01-2-5 24 24 0 01-7-6s-8 3-7 11c-8 0-22-13-22-13s-4 6 0 13c-7 2-18-13-18-13s-6 3-5 10c-7 0-18-21-18-21s-1 15 9 23zm72-24a32 32 0 01-2 3 78 78 0 009 5 15 15 0 00-7-8zm-78-25l19-10c4-1 10-10 9-11s-9 7-14 9-12 2-16 4-2 8 2 8zm-65 35a64 64 0 00-10 2 14 14 0 013 2 18 18 0 017-4zm0 84c24-4 45-19 45-19s2-6-7-5-13 14-20 13a13 13 0 001-6c-14 6-18 15-19 17zm237-168c4 2 22-16 20-17s-24 15-20 17zm2-25c3 0 4-13 8-17s2-13 2-13-12 12-12 15-1 15 2 15zm-214 37c-2 1 15 16 19 14s-16-15-19-14zm8-31s-2 7 2 10 4 14 7 14 2-10 2-12-11-12-11-12zM17 989s-11-9-6-15c18 15 30 14 32 7 1-2-3-8-2-13 2-6 10-11 8-17-3-9-28-5-37 4-3-8 10-17 10-17s-5-4-13 2c-1-14 29-21 24-26-1-2-6-3-10-3a45 45 0 01-7 1 25 25 0 00-13 9 43 43 0 0016 2s-6 5-19 7v8a28 28 0 007-1 45 45 0 01-7 5v47l5 2c4-5 12-2 12-2zm-1 7c0 2-2 5-8 9 4 3 12 5 20 5 0-6-5-11-12-14zm-1-153a28 28 0 00-9 6 24 24 0 013 4 8 8 0 012 3h9a4 4 0 013-1v1a81 81 0 0119 2c-5-7-17-15-25-10-2-8 16-4 14-14s-11 3-23-8a53 53 0 01-8-2v5a12 12 0 005 3 52 52 0 01-5 3v8a11 11 0 002 2 64 64 0 0013-2zm987-212c-3 1 15 17 19 15s-17-17-19-15zm-426 61c3 0 4-13 8-17s2-13 2-13-12 12-12 15-1 15 2 15zm985 292l-7 2a19 19 0 00-2 9c9-5 9-11 9-11zm55-114a7 7 0 000-5h-3a47 47 0 01-7 6 29 29 0 010 11 30 30 0 0110-12zm-64 127c1 7 7 11 19 6a59 59 0 0112-4c-9-1-20 4-31-2zm35-50a6 6 0 00-2 2 86 86 0 0019 1c27-2 24-19 24-19s-18 8-28 9c-5 4-10 4-13 7zm-399 10l-4-1a5 5 0 000 1h4zm361-6l4 1a18 18 0 01-3-1h-1zM574 717c4 2 22-16 20-17s-24 15-20 17zm435-120s-1 8 2 11 6 16 8 16 3-11 3-13-13-14-13-14zM803 885s-1 16 10 25c6 4 24 4 28 3 1 5-3 9-3 9s11 14 45-10c1 3-3 9-3 9s14 2 15-3c6 7 2 12 2 12s23-2 32-8c-9 1-18 3-28-3 13-6 12-13 12-13s-23 8-30 2a13 13 0 003-3 26 26 0 01-8-6s-8 3-7 11c-9 1-24-13-24-13s-4 6 0 14c-8 2-19-15-19-15s-6 5-6 11c-7 1-19-22-19-22zm35 125a81 81 0 0013 3 12 12 0 00-7-3 13 13 0 00-6 0zm91-82a44 44 0 0012 4l6-3c-4-6-9-7-15-7a5 5 0 01-3 6zm214-31l2 1a19 19 0 01-1-2 12 12 0 00-1 1zm-6 23h1a25 25 0 014-1s-6-5-27-9c3 5 10 9 22 10zm-247 37a26 26 0 00-6-1c0 4 1 10 3 13a163 163 0 0018-2 23 23 0 00-3-4 50 50 0 01-12-6z" fill="#1f360d"/><path d="M42 811c14 3 17 31 31 17a12 12 0 003-7l-10 1-2-22c-6-5-13-7-18-4-3-7 7-14 7-14s-14-2-22-21c16 14 30 15 30 15s-1-18 8-15c-7 10-4 24 2 27s6-4 22 3 19-8 12-16 20-14 10-21-24-1-26 11c-8-6-4-14-7-17s-13-2-19-20c-5-7-13-6-20 0 1-11 25-12 24-15s-11-5-18 0c2-13 10-13 10-13s-3-10-18-14c19-5 26 11 26 11s-2-12 6-14c-2 15 14 25 20 24s3-10 7-11c6 18 21 13 21 6s-21-20-32-12c-3-7 8-10 8-10s-5-17-18-12c0-8 10-9 10-9s-16-18-26-13c-3-8 5-11 5-11s-16-1-23-19c20 12 30 12 30 12s-6-9 2-17c3 13-1 17 15 21s25 5 19-3-1-18-15-21c9-7 24 8 24 8a10 10 0 002-3c-2-8-2-19-8-23 17-1 15 18 22 16s8-10 8-13 0-7-13-7c1-7 11-2 12-9s3-14-6-25c8-5 10 18 18 15s2-12-5-22c9-3 10 16 13 16s3-8 11-8-1-7-14-12c5-5 8-2 8-2s4-11-8-21c12-2 20 19 24 17s4-16-8-16c-1-6 9-10 9-10v-2a45 45 0 01-10 2 79 79 0 01-14 0c-4-3-6-5-5-7 6-5 17-4 27-4-1-5-4-10-10-12 5-8 11 3 14 1s2-13 2-24a22 22 0 015 23s6 6 14-7c7 6-7 26-7 26s20-13 24-8c-15 6-11 24-11 24s20-1 29-12c-2 16-17 21-17 21s10 3 9 12c-8-3-10 4-10 4s6 2 6 7c-8-3-23 16-10 15s8 9 14 9 2-1 17-16a21 21 0 01-5 18s11 2 11 8c-7-3-12 0-17 5s-3 23 2 26 16-3 17-21c6 1 6 8 6 8s10 1 26-13c-10 22-21 21-21 21s0 7 8 11c-4 6-13 2-13 2s2 9 9 12c-4 8-15 2-15 2s7 7 4 14 4 8 19 2c-1 9-12 12-12 12s8 10 4 13c-5-5-14-4-14-4s10 8 7 12c-5-4-11-1-10 3s21 11 28 9 0-21 10-25c-3 13 3 18 3 18s16-15 24-8c-14 3-9 13-15 21s2 7 19 3 13-8 16-21c7 8 1 18 1 18s10-1 30-13c-7 18-23 19-23 19s9 3 5 11c-10-5-26 13-26 13s10 1 10 9c-13-5-17 12-17 12s10 3 8 10c-12-8-34 5-33 12s16 12 21-6c5 1 0 11 7 12s22-10 21-25c7 2 5 14 5 14s7-16 26-11c-15 5-17 14-17 14s7 0 10 13c-8-5-18-4-19 0s23 4 24 15c-7-6-15-7-20 0-6 18-15 16-18 20s0 11-8 17c-1-12-16-19-26-11s17 13 10 21-4 23 12 16 15-1 22-3 9-17 2-27c10-3 9 15 9 15s13-1 29-15c-7 19-21 21-21 21s10 7 6 14c-13-7-40 19-26 32 4 4 7 5 9 3l-1-3 3 2c6-4 10-17 20-18s12 0 18-2a18 18 0 01-3-5 28 28 0 004 1 22 22 0 01-1-10l8 8 5-4c1 3 0 5-1 7a31 31 0 009-2s-8-5-6-12c5 7 16 8 23 8 1-4-9-16-16-13 0-6 6-7 6-7s-2-7-10-5c-1-8 7-11 9-12a29 29 0 01-5-3c-7-1-16-3-17-8a41 41 0 009 0 28 28 0 01-4-11c3 4 8 7 13 9a41 41 0 0010-5s-4-2-1-9c1 3 4 5 8 6a17 17 0 00-11-13c4-5 24 9 24 9s-14-22-7-27c9 13 14 6 14 6a19 19 0 01-1-3c-3 0-7 0-8-5a34 34 0 008-2 23 23 0 017-13v11a102 102 0 0020-14s-4-5-1-13c42 26 71 3 71 3s-40 15-67-20c17 2 27-8 27-8s-13 3-24-2c5-6-13-7-11-14 12 0 20-11 20-11s-23-7-19-19c11 5 18-2 18-2s-17-5-11-20c4 7 23 14 23 14s1-9 7-9c20 54 40 45 40 45s5-41 2-43c-13-9-9 6-20 8 1-8-3-11-3-11s-8 7-16-1c16-3 20-15 20-15s-21 7-31-4c16-3 20-11 20-11s-14 1-18-17c11 10 30 14 30 14s-7-11 0-12c9 25 23 27 23 27l-1-18s-10-21-23-33c9-4 22 9 22 9s0-32 7-32c-1 13 3 43 3 43s14-23 21-18c-7 6-18 33-18 33v25a17 17 0 009-10c3-9 1-23 6-24a13 13 0 008 11s9-13 23-9c-5 2-5 11-8 17-4 7-11 11-11 11s13 5 13 12c-18-5-20-2-21 1s1 15 1 15 14-13 18-7c-8 6-12 14-11 19s5 7 12 7 27-26 36-19a24 24 0 00-13 22s12-3 13 5c-20 2-22 16-22 16s17 2 18 15a64 64 0 00-42 3s7 4 6 11c-12-5-18-1-18-1s3 5 2 9c-10-7-23-10-23-10v17s19 3 35 1 26-18 34-15c-12 8-9 15-9 15s30-23 48-21c-10 9-6 13-6 13a32 32 0 0132 3c-33 4-43 12-43 12s16 1 14 14c-18-10-29-11-29-11s9 5 6 19c-11-11-30-12-30-12s12 4 12 18c-11-8-16-4-16-4s3 5 0 8c-7-9-19-9-29-14s-20-14-20-14-3 15 17 26 25 14 34 13 18-2 26-11a15 15 0 01-3 0h5a14 14 0 01-2 0c2 5-6 14-6 14l8-2c6-4 9-10 13-10a14 14 0 00-6 8l13-6c4 5 0 9 0 9 6 0 12-3 16-7 1 5-2 8-4 10a25 25 0 0015-6c1 3-2 6-5 10a30 30 0 0012-2c-4 9-15 11-20 11a15 15 0 00-1 3c1 1 3 4 7 6a23 23 0 01-7 2l-17 1a25 25 0 006 9c-9 4-15-6-21-3s-7 8-3 19c-8 1-17-7-20-11h-3c-1 2-2 6 1 12-6-1-14-9-18-13l-4-1a19 19 0 000 14c-7 1-11-16-21-17s-8 6-8 6 39 31 72 25a36 36 0 01-1-6 30 30 0 004 5 40 40 0 0014-7c2 4-2 10-4 13l5 1a103 103 0 0019-2 28 28 0 00-3-14 208 208 0 00-25-5 35 35 0 0115-5l-1-1c2-3 10 0 16 3a22 22 0 013 1s4-4-6-12a30 30 0 018 1c-2-7-3-13 1-16 10 17 17 9 17 9a29 29 0 017-29l-4-1c0-7 13-5 13-5s1-12-14-18c9-7 31 16 37 16s11-2 12-6-3-12-11-17c4-5 18 6 18 6s3-11 1-13-3-5-21-1c0-6 13-10 13-10s-7-5-11-11c-3-5-3-13-8-15 14-4 23 8 23 8s7-2 9-10c4 1 2 14 5 21a16 16 0 009 10v-22s-11-24-18-30c7-4 21 16 21 16s4-27 4-38c7 0 6 29 6 29s13-13 22-9c-13 11-22 30-22 30l-2 16s15-2 23-24c8 1 1 10 1 10s19-3 30-12c-4 16-18 15-18 15s4 7 19 10c-10 9-31 3-31 3s4 11 20 14c-7 7-15 0-15 0s-4 3-4 10c-10-1-6-15-20-7-3 2 3 39 3 39s20 8 39-41c7 0 8 9 8 9s19-7 24-13c5 13-11 18-11 18s6 6 18 2a6 6 0 01-1 6 37 37 0 0124-4s-6-3-4-9c7 9 39 8 39 8s-8-8-6-13c35 24 90-14 90-14s2-6-8-6-14 16-21 15a15 15 0 000-12h-4c-4 4-12 11-18 12 3-5 2-8 1-10h-3c-3 3-12 10-20 9 3-9 2-14-4-17-5-2-11 7-21 3a22 22 0 007-8l-18-1a26 26 0 01-7-2l7-5a12 12 0 00-1-3c-5 0-16-2-21-10a34 34 0 0013 2c-3-3-6-6-5-8a27 27 0 0015 5c-2-2-5-5-4-10 4 5 11 7 17 7-1 0-4-4 0-8l12 5a13 13 0 00-6-7c5 0 8 5 14 9l7 2s-8-9-5-13a16 16 0 01-3 0h5a18 18 0 01-2 0c8 8 16 10 26 10s15-1 34-11 17-23 17-23-9 8-20 12-22 4-30 13c-3-3 1-8 1-8s-5-3-16 4c-1-13 12-16 12-16s-19 1-31 10c-3-12 6-16 6-16s-11 0-29 9c-2-11 14-12 14-12s-10-7-43-11a36 36 0 0133-2s4-4-6-12c18-2 47 18 47 18s4-6-8-13c8-2 18 11 34 13s36 0 36 0l-1-16s-13 3-23 9c-1-3 2-8 2-8s-6-3-19 1c0-6 7-9 7-9a72 72 0 00-43-3c2-11 18-14 18-14s-1-12-21-14c0-7 13-5 13-5s1-12-14-19c9-6 31 17 37 17s11-2 12-6-3-12-11-17c4-5 18 6 18 6s3-11 1-13-3-5-21-1c0-6 13-10 13-10s-7-5-11-11c-3-5-3-13-8-15 14-4 23 8 23 8s7-2 9-10c4 1 2 14 5 21a16 16 0 009 10v-22s-11-24-18-30c7-4 21 16 21 16s4-27 4-38c7 0 6 29 6 29s13-13 22-9c-13 11-22 30-22 30l-2 16s15-2 23-24c8 1 1 10 1 10s19-3 30-12c-4 16-18 15-18 15s4 7 19 10c-10 9-31 3-31 3s4 11 20 14c-7 7-15 0-15 0s-4 3-4 10c-10-1-6-15-20-7-3 2 3 39 3 39s19 8 39-41c7 0 8 9 8 9s19-7 24-13c5 13-12 18-12 18s7 6 19 2c3 10-19 17-19 17s7 9 20 9c1 7-17 8-12 13-11 5-24 2-24 2s10 9 27 7c-28 31-68 18-68 18s30 20 73-3a11 11 0 01-2 11s19 16 36 17c-3 8-18 1-18 1s-5 4-2 9c-7 2-14-7-14-7s-8 3-8 11c-8 1-23-13-23-13s-4 6 0 14c-8 2-19-15-19-15s-6 5-6 11c-7 1-19-22-19-22s-1 16 10 25c6 4 24 4 28 3 1 5-3 9-3 9s11 14 45-10c1 3-3 9-3 9s14 2 15-3c6 7 2 12 2 12s28-2 34-10c3 6-2 8-2 8a48 48 0 0029 6c-1 7-22 7-22 7s-2 5 3 8c-8 4-19-2-19-2s3 8 10 11c-11 4-28-11-28-11a21 21 0 0013 16c-12 6-30-11-30-11s-1 12 2 17c-10 2-23-14-23-14s-5 6-2 12c-7 1-16-14-21-7s23 21 47 22 29-15 37-16c-6 4-7 11-7 11s20 2 29-7a7 7 0 00-1 0h2c13-3 21 8 21 8s7-2 9-10c4 1 2 14 5 21a16 16 0 009 10v-22s-11-24-18-30c7-4 21 16 21 16s4-27 4-38c7 0 6 29 6 29s13-13 22-9c-13 11-22 30-22 30l-2 16s15-2 23-24c8 1 1 10 1 10s19-3 30-12c-4 16-18 15-18 15s4 7 19 10c-10 9-31 3-31 3s4 11 20 14c-7 7-15 0-15 0s-4 3-4 10c-10-1-6-15-20-7-3 2 3 39 3 39s19 8 39-41c7 0 8 9 8 9s19-7 24-13c5 13-12 18-12 18s7 6 19 2c2 7-8 12-14 15 2 2 4 5 4 9a26 26 0 0011 2c0 5-6 6-10 8 0 6 0 11 4 12 10 3 37-5 38-11s-8-9-13-3c-5-6 8-16 8-16s-11-2-17 5c-6-4 5-17 5-17s-14-4-16-15c20 8 28 5 25-4s5-17 5-17-14 7-19-3c9-4 12-15 12-15s-13 5-18-2c10-6 10-15 10-15s-14 1-26-27c21 18 33 16 33 16s0-9 8-10c2 24 15 32 22 28s10-28 3-34-13-10-22-7c0-7 15-10 15-10a28 28 0 01-7-24c19 20 14 20 22 21s2-13 19-11-3-24-14-19c0-7 8-9 8-9s-2-9-13-6c-1-11 12-15 12-15s-19-6-22-28c11 15 37 16 37 16s6-23-13-31c5-6 30 11 30 11s-17-27-9-34c11 17 18 9 18 9a29 29 0 017-30c0 15-1 29 3 32s11-12 18-2c-15 6-15 30-15 30s12 5 11 14c-16-1-15 18-10 20s14-25 31-21c-16 12-12 26-12 26s5-4 11 3c-17 7-29 15-19 15s10 11 15 11 5-25 17-22c-9 14-16 25-6 29s13-25 23-19c-12 15-11 24-9 33s15 2 17 12c-18-1-18 3-18 8s1 15 10 17 7-22 30-20c-8 4-9 19-12 30a13 13 0 003 3s20-19 31-11c-10 2-12 7-14 13a33 33 0 0115 3s4-4-5-11c8-1 19 3 28 8l1-8a17 17 0 015 11l10 6s3-6-8-13c6-1 12 5 21 10l13-7a43 43 0 01-5 9l3 1c15 2 33-1 33-1l-1-14s-12 2-21 8c-1-2 2-7 2-7s-6-3-18 1c0-6 7-9 7-9a67 67 0 00-40-3c1-10 17-12 17-12s-2-12-20-13c0-7 12-5 12-5s0-11-13-17c9-6 29 15 35 15s9-2 10-6-3-11-10-16c4-4 17 7 17 7s2-11 1-13-3-5-19-1c-1-5 12-9 12-9s-7-4-11-10c-3-5-2-12-7-14 13-4 21 7 21 7s7-1 8-9c4 1 3 13 5 20a15 15 0 009 9v-21s-11-22-18-27c7-4 20 14 20 14s4-24 4-35c6 0 5 27 5 27s13-11 21-8c-12 10-21 27-21 27l-1 16s13-2 21-23c7 1 0 9 0 9s18-2 29-11c-4 15-17 14-17 14s3 7 18 9c-9 9-29 3-29 3s4 10 19 13c-7 7-15 1-15 1s-3 2-3 9c-10-2-6-15-19-7-2 2 3 36 3 36s18 8 36-37c7-1 8 7 8 7s17-6 21-12c5 13-10 17-10 17s6 6 17 2c3 9-18 16-18 16s7 8 19 8c1 7-15 7-11 12-10 4-22 2-22 2s9 8 25 6c-26 29-63 17-63 17s28 19 67-2a11 11 0 011 2 105 105 0 0013-9s-4-5-2-13c43 26 72 3 72 3s-40 15-67-20c17 2 27-8 27-8s-13 3-24-2c5-6-13-7-11-14 12 0 20-11 20-11s-23-7-19-19c11 5 18-2 18-2s-17-5-11-20c4 7 23 14 23 14s1-9 7-9c20 54 40 45 40 45s5-41 2-43c-13-9-9 6-20 8 1-8-3-11-3-11s-8 7-16-1c16-3 21-15 21-15s-22 7-31-4c15-3 19-11 19-11s-14 1-18-17c11 10 30 14 30 14s-7-11 0-12c9 25 23 28 23 28l-1-19s-10-21-23-33c9-4 22 9 22 9s0-32 7-32c-1 13 3 43 3 43s14-23 21-18c-7 6-18 33-18 33v25a17 17 0 009-10c3-9 1-23 5-24a13 13 0 009 11s9-13 23-9c-6 2-5 11-8 17-4 7-11 11-11 11s13 5 12 12c-17-5-19-2-20 1s1 15 1 15 13-13 18-7c-8 6-12 14-11 19s5 7 12 7c4 0 18-16 28-19V560a23 23 0 01-9-21l9 5v-71c-27-7-51-27-51-27s-2-8 9-7 15 20 24 19a24 24 0 011-19s9 11 17 16v-54c-25-4-51-22-46-29 7-8 17 11 24 10-4-7 2-16 2-16s10 15 20 18v-63h-2a33 33 0 002-5v-7c-37 32-48 13-48 13s4-6 3-12c-5 2-25 2-31-4-13-11-11-33-11-33s12 31 21 30c-1-9 6-15 6-15s13 22 22 19c-6-10-1-18-1-18s17 19 27 18c-1-11 8-16 8-16a37 37 0 004 6v-26l-6-6s4-5 2-14c-48 30-81 3-81 3s45 18 76-24c-20 3-30-9-30-9s13 4 26-3c-5-7 14-7 13-17-14 0-22-12-22-12s25-9 21-22c-13 5-20-3-20-3s18-6 12-24c-5 9-26 17-26 17s-1-11-9-11c-22 65-44 54-44 54s-6-49-3-52c15-11 11 8 23 10-1-9 3-13 3-13s10 8 18-1c-18-4-23-18-23-18s24 8 35-5c-17-3-21-13-21-13s16 1 20-20c-13 12-34 16-34 16s8-12-1-13c-9 29-25 32-25 32l1-22s11-25 25-39c-10-5-24 11-24 11s0-38-7-38c0 15-5 51-5 51s-15-27-23-21c8 7 21 39 21 39v30a20 20 0 01-11-13c-3-10-1-27-6-28-1 10-10 13-10 13s-10-16-25-11c6 3 5 13 8 20 5 8 13 14 13 14s-15 6-14 13c19-5 22-1 23 2s-1 18-1 18-15-15-20-9c8 7 13 17 12 22s-6 9-13 9-31-31-41-22c15 9 15 25 15 25s-14-3-15 7c22 2 24 18 24 18s-18 3-20 18a69 69 0 0148 4s-8 5-8 12c15-5 21-1 21-1s-3 7-2 11c11-8 26-12 26-12v21s-22 4-39 1-30-21-38-18c13 10 9 18 9 18s-21-18-40-23a22 22 0 01-5-10s9 5 13-1c-8-5-8-12-8-12s12 1 21-22c-16 14-26 13-26 13s0-7-6-8c-1 19-12 26-17 22s-9-22-3-27 10-8 18-6c-1-5-12-7-12-7a23 23 0 006-20c-16 16-11 16-18 17s-2-11-15-9 3-19 11-16c1-5-6-7-6-7s2-7 11-4c0-9-10-12-10-12s15-6 18-23c-10 12-30 13-30 13s-5-18 11-25c-4-5-24 9-24 9s13-22 7-27c-9 13-14 6-14 6a23 23 0 00-5-23c0 12 0 23-3 25s-9-9-14-1c12 4 12 24 12 24s-10 4-9 11c12-1 12 14 8 16s-12-20-25-17c13 10 9 21 9 21s-3-3-9 2c14 6 23 12 15 13s-7 8-11 8-4-20-14-17c7 11 13 20 5 23s-10-21-18-16c9 12 9 20 7 26s-12 2-13 10c14-1 14 3 13 7s0 12-7 14-6-19-24-17c7 4 7 16 9 24a10 10 0 01-2 3s-16-16-24-9c14 3 9 14 15 22s-2 8-19 4-13-9-16-22c-8 8-2 18-2 18s-10-1-31-13c7 18 24 20 24 20s-9 3-5 11c10-5 26 13 26 13s-10 1-10 9c13-4 18 14 18 14s-11 2-8 9c12-8 34 6 33 13s-16 13-21-6c-5 1-1 11-7 12s-23-10-21-25c-8 1-6 14-6 14s-7-17-27-12c16 5 18 15 18 15s-8 0-10 13c8-5 18-3 19 0s-24 4-25 16c8-6 15-7 21 0 6 19 15 17 19 21s0 12 7 18c2-13 17-20 27-12s-17 13-10 22 4 24-12 16-16 0-23-3-9-17-2-28c-10-2-9 16-9 16s-14-1-30-16c8 21 22 23 22 23s-10 6-6 14a9 9 0 012-1c-12 6-36 6-36 6s9-10 6-16c-36 29-92-18-92-18s-2-7 8-7 14 19 22 18a22 22 0 011-18s12 17 22 18c-5-9 0-14 0-14s12 14 22 14c-4-12-3-18 4-21 6-3 12 8 21 3-8-8-9-20-9-20s12 15 29 7c-10-5-9-10-9-10s17 0 23-13c-13 6-25 0-25 0s8-4 6-13c-9 12-31 9-31 9s1-9 7-13c-8 1-12 20-37 19s-55-20-50-27 15 11 22 9c-3-7 2-14 2-14s14 19 24 17c-3-6-2-21-2-21s18 21 31 14c-12-7-13-21-13-21s18 19 29 14c-8-3-11-14-11-14s12 8 20 4a10 10 0 01-4-10s22 0 23-10a44 44 0 01-29-7s5-3 2-9c-7 10-35 11-35 11s3-5-2-14c-1 6-16 4-16 4s4-8 3-11c-35 30-46 12-46 12s4-5 3-11c-5 1-35 1-29-4a10 10 0 003-6v-1c3 3 5 4 7 4-1-8 5-13 5-13s12 20 20 17c-5-9 0-17 0-17s15 18 24 17c-1-10 8-15 8-15s7 11 14 10a9 9 0 012-11s16 9 19-2c-17-1-37-20-37-20s4-6 2-14c-44 28-75 3-75 3s41 16 70-22c-18 3-28-8-28-8s13 3 24-3c-4-6 14-7 13-15-13 0-21-12-21-12s23-8 20-20c-13 5-19-3-19-3s17-5 11-22c-5 8-24 16-24 16s-1-11-8-10c-20 59-41 49-41 49s-5-45-2-48c14-10 10 8 20 9 0-8 4-12 4-12s8 8 16-1c-16-3-21-16-21-16s22 8 32-4c-16-3-20-13-20-13s15 2 19-18c-12 11-31 15-31 15s7-11-1-13c-8 28-23 30-23 30l1-20s10-23 23-36c-9-5-23 10-23 10s1-35-6-35c1 14-4 47-4 47s-14-25-22-19c8 6 20 36 20 36v27a18 18 0 01-10-12c-3-9-1-25-6-26-1 10-9 12-9 12s-9-14-23-10c5 3 4 12 8 19 4 8 12 13 12 13s-14 5-14 12c18-5 20-1 22 1s-1 17-1 17-14-14-19-8c8 7 12 16 11 21s-5 7-12 7-28-28-38-20a26 26 0 0114 23s-13-2-13 7c20 1 22 17 22 17s-17 2-19 16a64 64 0 0144 4s-7 4-6 11c13-5 19-1 19-1s-4 7-3 10a69 69 0 0120-9c3 14 6 24-12 59-11 21-26 15-36 14s-18-3-26-13a14 14 0 002 0h-5a14 14 0 003 0c-3 6 5 16 5 16l-8-2c-6-5-9-11-13-11 3 2 5 6 6 9-5-2-10-4-13-7-4 6 0 10 0 10-6-1-13-3-17-8-2 5 2 9 4 11-5 0-10-1-15-6-1 3 1 6 5 10a30 30 0 01-13-2c5 10 16 12 20 12a17 17 0 012 4 24 24 0 01-14 6c2-2 5-6 3-11-4 5-10 7-16 8 0 0 4-4 0-10-3 3-7 5-12 7 1-3 3-7 6-9-4 1-7 6-13 11l-8 2s8-10 6-15a12 12 0 002 0h-5a14 14 0 003 0c-8 9-16 12-25 12s-15-1-34-13-16-27-16-27 9 9 19 14 21 5 29 15c3-4-1-9-1-9s5-4 16 4c0-14-12-18-12-18s19 1 30 12c3-14-6-19-6-19s11 0 29 11c1-13-14-15-14-15s9-7 39-11v1l2-2h1-1c18-10 28-10 28-10s-10 5-6 20c12-12 31-13 31-13s-12 4-12 20c11-9 17-5 17-5s-4 6-1 10c8-11 20-11 31-16s20-15 20-15l-2-13c-6 1-21 3-35 0-16-3-27-19-35-16 12 9 9 16 9 16s-31-25-49-22c10 9 6 14 6 14a32 32 0 00-34 3c35 5 45 13 45 13s-14 1-15 12a30 30 0 00-29-1s-4-4 6-13c-18-3-46 21-46 21s-4-7 8-16c-8-2-18 13-33 16s-35-1-35-1l1-18s12 3 22 11c1-4-2-10-2-10s5-3 18 1c0-6-6-10-6-10a60 60 0 0141-4c-1-13-17-15-17-15s1-15 21-16c-1-9-13-6-13-6a25 25 0 0113-22c-9-8-30 19-36 19s-10-3-11-8 3-13 10-19c-4-6-17 8-17 8s-3-13-1-16 3-6 20-1c1-7-12-12-12-12s7-5 11-12c3-6 2-15 7-18-13-4-22 10-22 10s-7-2-9-12c-4 1-2 16-5 25a17 17 0 01-9 11v-26s11-28 18-34c-7-5-20 18-20 18s-4-31-4-44c-7 0-6 33-6 33s-13-14-22-10c13 13 22 35 22 35l1 19s-14-3-22-28c-7 1 0 11 0 11s-19-3-30-14c4 19 18 17 18 17s-4 10-19 12c10 11 30 4 30 4s-4 13-19 16c7 8 15 1 15 1s4 3 3 11c10-2 7-18 20-8 3 2-3 45-3 45s-19 9-38-47c-7 0-8 10-8 10s-18-8-23-15c-5 15 11 21 11 21s-6 7-18 2c-3 11 19 19 19 19s-7 11-19 11c-2 8 16 9 11 15 11 5 23 2 23 2s-9 10-26 8c27 36 66 21 66 21s-29 24-71-3c-2 8 2 13 2 13s-19 18-35 19c3 10 18 1 18 1a9 9 0 012 11c6 2 13-9 13-9s8 4 7 14c9 1 23-16 23-16s5 7 0 16c8 3 19-17 19-17s6 5 5 13c8 1 19-26 19-26s1 19-10 29c-5 5-23 5-27 4-1 5 3 10 3 10s-11 17-43-11c-2 3 2 10 2 10s-14 2-15-4c-5 9-2 14-2 14h-5a27 27 0 0114-22c-7-6-23 10-32 17-5-1-8-3-10-6-3 6 2 9 2 9l-2 1c-5 0-9-3-10-8s3-15 11-22c-4-6-19 9-19 9s-3-15-1-18 3-6 22-1c1-7-14-13-14-13s9-5 13-14c3-7 2-16 8-19-15-5-24 10-24 10s-9-2-10-12c-5 1-3 17-6 27a19 19 0 01-10 12v-29s12-31 20-38c-7-6-23 21-23 21s-5-35-4-50c-8 0-7 38-7 38s-14-16-24-12c14 15 25 39 25 39l1 21s-16-3-25-31c-8 1 0 13 0 13s-21-4-33-16c4 21 19 19 19 19s-4 10-21 13c11 13 34 5 34 5s-5 14-22 17c8 10 17 1 17 1s4 4 4 13c11-2 7-20 22-9 3 2-3 50-3 50a11 11 0 01-6 0 19 19 0 00-4-6l-1 5c-9-4-20-17-32-51-8-1-9 10-9 10s-20-8-25-16c-6 17 12 23 12 23s-7 8-20 3c-2 6 3 11 8 15-2 5-1 12-1 17a23 23 0 01-8 1c0 4 2 6 5 8a5 5 0 01-2 0c-10 3-37-5-38-11s8-10 13-4c5-6-8-16-8-16s11-3 17 5c7-4-5-18-5-18s15-5 16-16c-19 8-27 6-24-4s-6-18-6-18 15 8 20-3c-9-5-12-16-12-16s13 6 17-2c-10-7-10-16-10-16s15 1 27-29c-21 19-33 18-33 18s0-10-8-11c-2 25-16 34-22 29s-11-29-4-36 14-10 23-7c0-7-15-10-15-10a30 30 0 008-26c-20 21-15 21-23 22s-2-14-19-12 3-25 14-20c0-7-8-9-8-9s3-9 14-6c0-12-13-16-13-16a38 38 0 0023-30c-12 16-38 17-38 17s-6-24 14-32c-5-8-31 11-31 11s18-29 9-36c-11 18-18 9-18 9a31 31 0 00-6-31c0 15 0 30-3 33s-12-12-18-2c15 6 15 32 15 32s-12 5-12 14c16-1 16 19 11 22s-15-26-31-23c15 13 11 28 11 28s-4-4-11 3c17 7 29 16 19 16s-10 11-15 11-5-26-17-23c9 15 15 27 6 31s-13-27-23-21c12 16 11 26 9 35s-16 2-17 13c17-1 17 3 17 8s0 16-10 19-7-24-29-22c7 4 8 20 11 32a13 13 0 01-2 3s-19-19-30-13c-3-4-10-5-10-5s7-6 33-10a23 23 0 00-25-2s-3-4 4-10c-14-2-36 16-36 16s-3-5 6-12c-6-2-14 10-26 12s-27 0-27 0v-14s10 2 18 8c1-3-2-8-2-8s5-3 15 1c0-5-5-8-5-8a47 47 0 0132-3c-1-10-13-12-13-12s1-12 16-13c0-7-10-5-10-5a19 19 0 0110-17c-7-6-23 15-28 15s-8-2-9-6 3-10 9-15c-4-4-14 6-14 6s-2-10-1-12 2-5 16-1c0-6-10-10-10-10s6-3 9-9c2-5 2-12 6-14-11-3-18 8-18 8s-6-2-6-9c-4 0-3 12-5 19a14 14 0 01-7 9V74s9-22 15-27c-6-4-17 15-17 15s-3-25-3-35c-5 0-4 26-4 26s-10-11-18-8c10 10 18 27 18 27l1 15s-11-2-18-22c-5 1 0 10 0 10s-15-3-23-12c3 15 14 14 14 14s-3 7-15 9c7 9 24 3 24 3s-4 10-16 12c6 7 12 1 12 1s3 3 3 9c8-1 5-14 15-6 2 1-2 35-2 35s-15 7-30-37c-5 0-6 8-6 8s-14-6-18-12c-4 12 8 17 8 17s-4 5-13 1c-3 9 14 16 14 16s-6 8-15 8c-1 6 12 7 9 12 8 4 18 2 18 2s-8 8-21 6c21 28 52 16 52 16s-23 19-55-2c-2 6 1 10 1 10s-15 14-27 15c2 8 14 1 14 1a7 7 0 011 8c5 2 11-6 11-6a12 12 0 015 10c7 1 18-12 18-12s4 6 0 13c6 2 15-13 15-13a12 12 0 014 9c6 1 15-20 15-20s1 15-8 23c-4 4-18 4-21 3a13 13 0 002 8s-8 13-34-9c-1 2 2 8 2 8s-11 2-12-3c-4 7-1 11-1 11s-21-1-26-9c-2 5 1 7 1 7a32 32 0 01-22 5c1 8 17 7 17 7a7 7 0 01-2 8c6 3 15-3 15-3s-3 8-8 11c8 3 21-11 21-11s-1 11-10 15c10 6 23-10 23-10s1 11-1 16c7 2 17-13 17-13s4 6 2 11c5 1 12-12 16-7s-17 20-36 20-22-13-28-14c4 3 5 10 5 10s-17 2-23-7c-2 6 4 10 4 10a24 24 0 01-18 0c4 9 17 9 17 9s1 4-6 7c12 6 20-5 20-5s0 9-6 15c7 4 12-4 16-2 5 3 5 6 2 15 8 1 17-10 17-10s4 4 0 11c7-1 16-13 16-13a16 16 0 011 13c6 1 9-13 17-13s6 5 6 5-42 34-69 13a5 5 0 000 2c-16-3-32-19-32-19s3-5 1-13c-42 26-70 3-70 3s39 15 66-21c-17 2-27-8-27-8s12 3 23-2c-4-6 13-7 12-15-12 0-20-11-20-11s22-8 19-19c-12 5-18-2-18-2s16-6 11-21c-5 7-23 14-23 14s-1-10-7-9c-20 56-39 47-39 47s-5-43-2-46c13-9 9 7 19 9 0-8 4-11 4-11s8 7 15-1c-16-3-20-16-20-16s21 7 30-4c-15-3-18-12-18-12s14 1 17-17c-11 11-29 14-29 14s6-10-1-12c-8 26-22 29-22 29l1-19s10-22 22-35c-9-4-21 10-21 10s0-33-7-33c1 13-3 44-3 44s-14-23-21-18c7 6 18 34 18 34v26a17 17 0 01-9-11c-2-9-1-24-5-25-1 10-9 11-9 11s-8-13-22-9c5 3 5 11 8 18 4 7 11 12 11 12s-13 5-13 11c17-4 19-1 21 2s-1 16-1 16-14-14-18-8c7 6 12 15 11 19s-6 8-12 8-27-27-36-19a25 25 0 0113 21s-12-2-12 6c19 2 21 17 21 17s-16 2-18 15a60 60 0 0142 4s-7 4-7 10c13-4 19-1 19-1s-4 6-3 10c10-8 23-11 23-11v18s-19 4-34 1-26-18-33-16c11 9 8 16 8 16s-17-14-34-20c4 0 11-2 14-8a23 23 0 01-18 0s5-4 4-10c-6 9-22 7-22 7s0-7 4-10c-6 1-8 14-27 14s-40-14-35-20 10 8 15 7c-2-5 2-11 2-11s10 14 17 13c-2-4-2-15-2-15s14 15 23 10c-9-5-10-15-10-15s13 13 21 10c-5-3-7-10-7-10s8 5 14 2a7 7 0 01-2-7s15 0 16-7a32 32 0 01-21-5s3-2 1-7c-4 7-25 9-25 9s3-4-2-11c0 5-11 3-11 3s3-5 2-8c-25 22-33 8-33 8a12 12 0 002-7c-3 1-17 1-21-3-8-8-7-22-7-22s8 20 14 20a12 12 0 014-10s9 15 15 13a13 13 0 01-1-13s12 13 18 13a11 11 0 016-11s5 8 10 7a7 7 0 011-8s12 6 14-1c-12-1-27-15-27-15s3-4 1-10c-32 20-54 2-54 2s30 12 51-16c-13 2-20-6-20-6s9 3 17-2c-3-4 10-5 9-11-9 0-15-8-15-8s17-6 14-15c-8 3-13-2-13-2s12-4 8-16c-3 6-17 11-17 11s-1-7-6-7c-15 43-30 36-30 36s-4-33-2-35c10-7 8 5 15 7 0-6 3-9 3-9s6 6 12-1c-12-2-16-12-16-12s16 6 24-3c-12-2-15-9-15-9s11 1 14-13c-9 8-23 11-23 11s5-8 0-9c-6 20-17 22-17 22l1-15s7-17 17-27c-7-3-17 8-17 8s1-25-5-25c1 10-3 33-3 33S16 49 11 53c5 4 14 26 14 26v20a13 13 0 01-8-9c-1-7 0-18-4-19 0 7-6 9-6 9a20 20 0 00-7-6v18a29 29 0 004 4 31 31 0 00-4 1v6c8-1 9 1 10 2 1 3-1 13-1 13s-4-5-9-7v6c3 3 5 7 4 10a6 6 0 01-4 4v34l3 1a12 12 0 00-3 2v5c8-2 12 0 12 0s-3 5-2 8c7-6 17-8 17-8l1 13s-15 3-27 1H0v25l13-5c8-4 15-11 15-11s2 12-12 21l-16 8v36l3-1a16 16 0 010 11c6 1 9-12 16-13s6 5 6 5a111 111 0 01-25 15v514c17-7 23-13 27-16l1 1-4 33c5 2 9 0 18 1zm1792-587c4-3 14-3 19-6s15-12 17-12-7 13-12 15-18 13-22 14-6-9-2-11zm-24-21c-4 3-25-18-22-20s26 17 22 20zm-2-30c-3 0-5-15-9-20s-2-15-2-15 13 14 14 17 0 18-3 18zm-73 220a7 7 0 012-4c6-2 11-6 14-10a29 29 0 015-1c1 3 2 7-1 13h1c-6 14-20 9-21 2zm34 91l-5 1c-9 4-14 2-15-3a165 165 0 0022-10 23 23 0 01-2 12zm22-96a25 25 0 000-6c3-5 7-10 12-10 6-1 8 2 9 4-15-1-21 12-21 12zm21-9l-10 7a27 27 0 0110-8v1zm-17-84c11-5 22-16 22-16s3 17-19 31l-8 5a37 37 0 01-8 2s6-9 0-17a103 103 0 0013-5zm-15 95c-5 6-12 9-16 9-5-1-4-6-5-9 6-3 13-10 16-14l5-1a23 23 0 010 15zm-18-88s-4 7-1 11c6-7 12-10 20-12-3 12 0 16-16 20l-16 3a35 35 0 01-5-2c0-1 0-3 2-5 3-4 3-10 5-14 7-3 11-1 11-1zm-5-16a21 21 0 00-11 11 56 56 0 00-10 7s-3-3-3-11a66 66 0 0124-7zm-52 1a12 12 0 017 4c2-2 1-5 0-8 11-5 18-5 18-5s-11 6-7 22a35 35 0 015-4c-1 7 0 14-4 15-5 1-14-6-19-12a2 2 0 01-1 0 18 18 0 01-2-3 22 22 0 01-4-6h1a53 53 0 003 6l3 3c2-3-2-8-4-10l3-2zm-4-37c2 4 1 6 0 7-1-5-4-9-4-9a22 22 0 004 2zm-194 175c3 6 4 13-1 18s-9 5-12 2v-1c5-6 8-16 13-19zm-21-16c5 1 11 4 15 9a33 33 0 00-20-2 11 11 0 005-7zm-5 162a7 7 0 010 4 116 116 0 01-32-4c11-7 29-8 32 0zm-32-108a139 139 0 0019 5c4 3 7 7 8 10a87 87 0 01-12 8c-4-2-7-5-9-10h1l-1-2a23 23 0 010-3 5 5 0 00-2 0 87 87 0 01-4-8zm1 13c0 3-1 6-5 6-2-1-2-4-2-8a22 22 0 007 2zm-13 89c4-8 10-9 17-8s-9 6-11 12c-4-1-6-3-6-4zm-40-98l12 6a11 11 0 01-6 1c-1 7 11 8 11 8s-1 3-8 4a21 21 0 01-9-19zm-59-222c0-10-11-21-13-23s14 12 13 23zm-12-69l18-5c5-2 14-12 15-11v1c-1 0-8 12-13 14s-15 1-19 3c-1 1-3 2-3 4l2-6zm-42-36v-1a1 1 0 010-1c3-1 21 14 21 18-7 1-20-15-21-16zm21-26c0-3-13-16-13-16a25 25 0 000 3 26 26 0 010-4s13 13 13 16a75 75 0 010 1zm-159 332a82 82 0 01-10 0c-28-3-25-24-25-24s25 14 33 10c-4-5-2-14-2-14s9 15 25 12c-4-4-7-12-7-12s17 6 28 5a35 35 0 005 4s-13 1-18-5c0 8 9 11 9 11s-13-3-23 2c-6 2-10 8-15 11zm10-73a37 37 0 005-7 61 61 0 013 7h-8zm28 116l-2 2a10 10 0 01-1-3l3 1zm5 257a89 89 0 01-15-10l18-3 12 2a95 95 0 01-15 11zm-37-237c11-8 26 6 41-6-7-4-10-8-11-11 18 13 36-7 46 11 1 5-35 17-76 7zm89-78c-26 2-42-7-52-14a14 14 0 01-2-6 33 33 0 009-5 136 136 0 0020-5l-7 13c16 3 25-13 25-13s3 9-1 16c8 3 35-11 35-11s3 22-27 25zm-50-130a22 22 0 003 0 17 17 0 003 1 29 29 0 01-8 1l2-2zm-109 33c10 1 14 18 21 17a20 20 0 010-14l4 1c4 4 11 12 18 13-3-5-2-9-1-11h2c3 3 12 11 20 11-4-12-3-17 3-20s11 7 21 3a25 25 0 01-7-9c7 0 14 0 18-2a22 22 0 007-2c-5-2-7-4-8-6a16 16 0 012-3c4 0 13-2 18-10l12 1a27 27 0 01-6 9c9 5 15-6 21-3 6 4 7 9 4 21 8 0 17-8 21-12h2c1 2 2 7-1 12 7 0 15-9 19-14h4a21 21 0 010 15c8 1 12-18 22-18s8 6 8 6-56 47-92 18c-3 6 5 16 5 16s-32 1-40-10a10 10 0 005 12 33 33 0 00-29 7c-33 18-80-21-80-21s-3-7 7-6zm13-165c3 2-15 21-19 18s17-19 19-17zm-19-23c0-3 12-15 12-15s1 8-2 13-5 17-8 17-2-12-2-15zm-22 69c-3 0-16-10-20-12s-11-12-10-13 10 8 15 11 13 2 17 5 2 10-2 9zM901 496l-10-7s-2-7 9-6c4 0 7 3 10 6-1 5 8 11 8 11s-12 1-17-4zm62 8c-19 2-32-3-41-8a24 24 0 011-11l4 1c5 5 13 14 20 15-3-6-2-10-1-13h3c4 4 13 13 22 13a42 42 0 01-2-12 130 130 0 0017-7 21 21 0 003 1c0 5-4 19-26 21zm62-105s-27 22-54 25a14 14 0 003 0h-6a16 16 0 003 0h-1c-9 1-19 0-28-5a15 15 0 00-2-4s6-4 18 5a23 23 0 00-3-11c4-1 8-2 11-5a41 41 0 0112 8 29 29 0 001-4c4-2 9-7 13-11l6 3a19 19 0 01-2 10c8 0 12-17 21-17s8 6 8 6zm-80 0a62 62 0 0111 2 40 40 0 01-2 6 20 20 0 00-9-8zm16-79a27 27 0 01-3 9 34 34 0 00-6-2 70 70 0 009-7zm9 24a17 17 0 00-3-8 66 66 0 0011-10s1 14-2 20c9 2 22-16 22-16s5 7 2 13c6 2 15-15 20-8s-22 25-46 25c-22 1-27-13-33-17a66 66 0 0129 1zm-30-1c4 4 5 12 5 12a52 52 0 01-16-1 18 18 0 00-5-5 61 61 0 0116-6zm-2 30v1l-2 2a21 21 0 002-3zm-18-15a10 10 0 002 1 30 30 0 01-11 2v-2s3-2 9-1zm-5-60c1 1-1 4-4 7a38 38 0 01-5 0 6 6 0 002 3c-5 6-12 12-15 10-4-3 18-22 22-20zm-22-26c0-3 13-17 13-17s2 9-2 14-6 20-9 20-3-14-2-17zm-5 86a81 81 0 0112 5c4 4 9 6 13 7a30 30 0 006 1s2 4-7 9h1a144 144 0 01-26-2zm-1 34s10 11 21 16c10 5 22 6 30 14a34 34 0 005 9s-23 0-34-6a13 13 0 01-4-4v1a49 49 0 01-8-6 45 45 0 0111-5 30 30 0 00-16 0c-7-10-5-19-5-19zm-51 163l-3 2c-7 1-10-2-12-7a11 11 0 016-2c11-1 9 6 9 6zm33-187s-6 5-17 8a20 20 0 00-6-2l2-3a66 66 0 0021-3zm-34-47l16 12a18 18 0 002 1 32 32 0 01-6 2h-1c-4-2-12-14-11-15zm-20 16a41 41 0 0010-1 30 30 0 01-9 5c-2 0-2-2-1-4zm10 77a22 22 0 01-2 6c4 1 9-3 13-7a19 19 0 0110 3c2-5-1-8-5-10l4-5s6 5 6 14c8 1 20-29 20-29s1 11-3 22a7 7 0 00-1-1v2a28 28 0 01-6 9c-7 6-26 6-31 5a14 14 0 000 4c-2 6-4 10-7 12-5 1-11 0-19-5a7 7 0 010-1c-1-6 10-15 21-19zm-17-110a32 32 0 01-6 7 32 32 0 01-2-10 64 64 0 008 3zM482 128c2 2-12 16-15 14s13-15 15-14zm-15-18c0-3 9-12 9-12s1 6-1 10-4 14-7 14-1-10-1-12zm36 233a17 17 0 01-6-6c4 0 7 2 7 4l-1 1zm21 56a14 14 0 012-2v5l-2-3zm-58-136s-2-6 6-5 10 14 16 13a16 16 0 010-11h3c3 4 9 10 14 11-2-4-1-7-1-9h2c3 3 10 9 16 9-2-7-2-11 0-14a91 91 0 0111 10s-13 2-13 12a14 14 0 0110 0c-27 15-64-16-64-16zm64 25a28 28 0 004-6 23 23 0 015 6h-9zm3 36a106 106 0 0011 3c-1 3-2 7-6 7a13 13 0 01-5-1 17 17 0 005 0 51 51 0 01-5-9zm23 110a16 16 0 011-2l1 3-2-1zm12-28a94 94 0 01-33-1 23 23 0 0111-10 18 18 0 009-2 20 20 0 0112 4c4 3 3 6 1 9zm7-80c-1 7-11 13-19 7a18 18 0 01-5-5c4 0 7 0 9-2a11 11 0 01-6-8 26 26 0 0010-5c6 4 11 10 11 13zm-53-132s8 0 23 9a10 10 0 00-1-5c16 5 10 18 17 29l3 5a22 22 0 01-8 1l4-8a19 19 0 01-12 5 8 8 0 003-9c-3 4-8 6-12 7a7 7 0 000-8l-10 5a12 12 0 015-7c-3 1-6 5-10 8a12 12 0 01-3-3c1-2 2-5 1-6a10 10 0 002 0h-4a11 11 0 002 0 31 31 0 01-3 2l-2-17a30 30 0 0110 7c2-11-5-16-5-16zm-5 8a19 19 0 00-5 8 14 14 0 00-8-11 46 46 0 0113 3zm-54-8s7 8 15 12 17 4 23 11c2-2-1-7-1-7s4-2 12 3a22 22 0 001 10 23 23 0 01-4 2c-6-2-17-6-34-16a46 46 0 005 10l-5-3c-15-10-12-22-12-22zm-13-30c-3 0-13-8-16-9s-9-10-8-11 8 7 12 9l13 3c3 1 1 9-1 8zm-98 224a24 24 0 01-1-5 71 71 0 008 7 50 50 0 01-7-2zm35-2a9 9 0 01-4-7l9-3a33 33 0 006-2c0 4-2 15-20 17h-5a26 26 0 01-5-8s11 7 19 3zm-44-61s11 7 15 2a28 28 0 004 7s-13 0-22-3a9 9 0 013-6zm-23 157a143 143 0 01-33-20s-3-7 7-6 14 17 21 16v-1c14-5 22 9 22 9a105 105 0 01-17 2zm3-64a8 8 0 010 3c-19-5-36-18-32-23s10 2 15 6a11 11 0 01-7 0c0 12 24 14 24 14zm-12-17a19 19 0 012-9l3 4-5 5zm8 60a22 22 0 00-5 7 21 21 0 010-8 9 9 0 005 0zm15-68v-1a13 13 0 002 1h-2zm-7-66a28 28 0 007 7 25 25 0 00-14 2 15 15 0 017-9zm-54 10c0-8 6-13 6-13s11 20 19 17c-5-9-1-16-1-16s10 11 18 15h-1c4 0 6 5 8 10-25 17-33 4-33 4s3-5 3-10c-5 1-22 1-28-4-10-10-9-29-9-29s11 27 18 26zm-17-69c3-2 12-2 17-5s13-11 14-10-6 11-10 13-16 12-20 12-4-7-1-10zm-21-18c-4 3-22-16-19-18s23 16 19 18zm-2-26c-2 0-4-13-7-18s-2-12-2-12 11 12 12 15 0 15-3 15zM110 388c-21-2-19-18-19-18s19 11 25 8c-2-3-2-6-1-8a23 23 0 007 4 17 17 0 008 3 16 16 0 011 1c-1 2-3 4-7 6a22 22 0 007 2v1a55 55 0 01-21 1zm42 43c-7-5-7-10-7-10l4 1 3 9zm-4 4a16 16 0 005-2l2 3-7-1zm89-31s-49 40-83 19c5 2 11 2 14 0-4-4-4-9-4-9s21-2 24-11c1 2 2 6-1 11 6-1 14-9 18-13l4-1a20 20 0 01-1 14c8 1 12-16 21-17s8 7 8 7zm-77-49l2-2a34 34 0 003-6c0 6 6 12 6 12l-7-1a44 44 0 01-4-3zm29-32s-12 4-12 18c11-8 16-4 16-4s-3 5 0 9c7-10 19-10 29-15s19-14 19-14 3 15-16 27-25 13-34 13c-9-1-17-3-25-11v-1a13 13 0 002 0h-2c2-4 4-7 7-7a23 23 0 00-11-5c11-9 27-10 27-10zm-48-29a5 5 0 01-1 3 28 28 0 00-9-3 24 24 0 01-1-6s4 5 11 6zm-72 9c7 0 10 13 16 13a16 16 0 011-13s9 12 16 13c-4-7 0-11 0-11s8 11 16 10c-2-7-2-11 0-13 25 4 33 10 33 10s-16 2-14 15c18-11 28-11 28-11s-8 4-6 16a22 22 0 00-7 1 7 7 0 003-8c-5 8-29 7-29 7s6-7 4-12c-26 22-67-12-67-12s-2-6 6-5zM40 159c2-2 9-2 12-4l11-8s-4 9-7 10l-15 10c-2 1-4-6-1-8zm-16-14c-3 2-17-12-15-14s18 12 15 14zm-2-20c-2 0-3-10-6-14s-1-9-1-9 9 9 9 11 1 12-2 12zm861 844c-9-1-19-14-19-14s-6 6-2 12c-7 1-16-14-21-8a3 3 0 00-1 3c7 2 16 5 26 6a106 106 0 0017 1zm-18 44l4-1-3-2a15 15 0 00-1 3zm246-109a36 36 0 0110-1l-10-4a13 13 0 000 5z" fill="#1f360d"/><path d="M1044 670c4 0 16-9 20-10s12-11 11-11l-15 9c-5 2-14 2-17 4s-3 9 1 8zm142 115c1 6-6 9-6 9a36 36 0 0010 2c-1-4-1-8-4-11zm-22 59c1 2-1 6-3 9a24 24 0 017 0s1-12-14-19c9-6 31 17 37 17a23 23 0 003 0 12 12 0 004-3 8 8 0 010 2c3-1 4-3 5-5 1-4-3-12-11-17l-3-2 6-4 3 1-4 4c6-1 16 7 16 7s3-11 1-13c-1-2-2-3-6-3l-2 1v-1h1a71 71 0 00-14 2c0-6 13-10 13-10a39 39 0 01-9-8 37 37 0 01-12 3s-1 3 8 7c-16 7-27-5-27-5a24 24 0 009 16c-10 4-16-5-21-2-6 2-7 7-4 17-10 0-22-11-22-11s-4 4 0 11c-8-1-21-14-21-14s-4 6-1 14c-7 1-11-14-21-14s-8 5-8 5 55 38 90 14zm-359 27s30 20 73-3a12 12 0 010 7 20 20 0 014-2c10-4 23-2 23-2s-10-2-10-8c6 4 18 3 18 3s-11-6-8-10c9 5 26 16 55 13s26-20 26-20-26 12-34 9c4-5 1-12 1-12s-9 12-25 10l8-10s-27 7-36 3a11 11 0 007-10s-9-2-16-9c-5-5-8-15-13-17-6 6-17 9-17 9s8 9 21 9c1 7-17 8-12 13-11 5-24 2-24 2s10 9 27 7c-27 31-68 18-68 18zm1-15c4 0 16-9 20-10s12-11 11-11l-15 9c-5 2-14 2-17 4s-3 9 1 8zm395 33a44 44 0 00-5-2 36 36 0 01-7 2 11 11 0 005 9c0-6 7-9 7-9zm26-46c3 0 3-11 3-13s-13-14-13-14-1 8 2 11 6 16 8 16zm-17 7c-3 1 15 17 19 15s-17-17-19-15zm-700 67a8 8 0 006 4c2 1 3-1 5-4-1-1-3-2-7-1a9 9 0 00-4 1zm788 78c-4-3-8-5-11-3a13 13 0 0011 3zm-65-61c3-6 2-11 2-11a85 85 0 01-10 7 26 26 0 008 4zm25-1a103 103 0 01-9-15s0 10 5 19a11 11 0 014-4zm53-75v-4l-3 1a26 26 0 003 3zm-39 21c4-1 12-11 11-11l-15 9-16 3 2 9 18-10zm-15 62a23 23 0 002 2l9 3a14 14 0 00-11-5zm-47 9l3-1h-3a6 6 0 000 1zm21 47a26 26 0 00-14 1 27 27 0 014 5l10-5a4 4 0 000-1z" fill="#1f360d"/><path d="M1211 905c-1-3 2-8 2-8s-6-3-18 1a14 14 0 002 1c-9 4-36-3-36-3l8 10a25 25 0 01-5 1l9 5s4-6-8-13c6-1 13 5 22 10l5-3c1 1 0 3-1 4a37 37 0 008 2c12 2 26 1 32 0a9 9 0 013-9v-4a40 40 0 01-4-2 73 73 0 00-19 8zm-489-37a44 44 0 00-2 7l7 4s3-5-5-11zm-2 51c2 1 6-6 12-12a34 34 0 00-8 4 15 15 0 015-12c-15 0-14 18-9 20zm10-24a8 8 0 010 3 19 19 0 016-3h-6zm-249-27c4 2 4 7 7 7s4-12 8-16a18 18 0 00-2-4s-6 8-13 13zm296 91a12 12 0 00-7 3 33 33 0 001 11 141 141 0 0014-8s2-6-8-6zm416 57a142 142 0 0023-10 25 25 0 00-23 10zm-807-22zm108-115a83 83 0 0011-5c3-5 6-12 10-9l-3 4c5-3 7-7 5-9-5-7-14 9-21 8a9 9 0 001-3c-3 6-5 11-3 14zm1074-80c3-6 12-6 12-6s-6-5-27-8a23 23 0 01-3 8c-7 9 0 10 18 6zm-854 53c0 3 1 4 2 5 4 3 12-12 18-2-5 2-9 6-11 11 7 2 16 11 30 13 16 3 35 0 35 0v-16s-13 3-23 9c-1-3 2-8 2-8s-6-3-19 1c0-6 7-9 7-9a72 72 0 00-41-4zm16-13s-1-10-17-13v23c5-8 17-10 17-10zm-71 127c2-3 5-6 13-5a12 12 0 002 0l4-2c1-2-1-6-3-9a26 26 0 01-6-2 29 29 0 003-2 23 23 0 00-6-4l-5-1a8 8 0 00-2 0 58 58 0 007 11c-16 3-25-12-25-12s-2 9 2 14h-10a163 163 0 0112 13 73 73 0 0014-1zm124-134c4-2-17-17-19-15s15 17 19 15zm-2-22c3 0 3-11 3-13s-13-14-13-14-1 8 2 11 6 16 8 16zM632 967a28 28 0 01-2-14 144 144 0 01-21-9s-3 19 23 23zm-230-41c-3-2-7-2-11 0 4 7 10 10 14 8 5-3 8-22 3-28-10 7-18-3-20 6-1 10 16 6 14 14zm338-11h-1a20 20 0 000 9s3-2 7 0c6-1 13-4 26-11 20-10 17-23 17-23s-9 8-20 12-22 4-29 13zm-361 32a22 22 0 002-6 21 21 0 01-6 2 7 7 0 004 4zm23-54a13 13 0 01-1-1l-3 2a33 33 0 014-1zm1513-189a22 22 0 015-1v-15a24 24 0 00-5 16zM468 797c0-4-3-7-3-7l-3 1c0 4 1 6 2 7s2 0 4-1zm85-63c-3-2-12-2-17-4s-13-11-15-10 7 11 10 12 17 11 21 12 4-7 1-10zm-86 82h11s-4-6-2-10c33 28 43 11 43 11s-3-4-2-10c4 2 22 2 27-3 11-10 10-28 10-28s-11 26-19 25c1-8-5-12-5-12s-12 18-19 16c4-9 0-16 0-16s-15 16-23 16c0-10-8-14-8-14a32 32 0 01-3 4 8 8 0 011 1c-8 4-11 14-11 20zm1453 6v-1l-1 2zm-18 42c-1 2-2 6 1 11-6 0-14-8-18-13h-4a19 19 0 000 14c-7 1-11-16-21-17s-8 6-8 6 37 29 68 25v-15c-6-2-12-8-15-11h-3zm18 82zm-31-2s-3 20 26 23h5v-12c-10 0-31-11-31-11zm24-139c-11-8-16-4-16-4s3 5 0 8c-7-9-19-9-29-14s-20-14-20-14-3 15 17 26 25 14 34 13c8 0 15-2 21-7v-21a62 62 0 00-19-5s12 4 12 18zm-7-80s9 1 14 7v-21c-13 3-14 14-14 14zm-24 18s7 4 6 11c-12-5-18-1-18-1s3 5 2 9c-10-7-23-10-23-10v17s19 3 35 1 26-18 33-15c-11 8-8 15-8 15l11-8v-23a64 64 0 00-38 4z" fill="#1f360d"/></svg>