<svg xmlns="http://www.w3.org/2000/svg" viewBox="0 0 354.4 471.52"><title>forest-bg-branchРесурс 6</title><path d="M354.4,370.92C322,383.53,270,376.22,270,376.22s5.81-1.77,6.81-9.85c-58.3,11.11-96.4-10.1-91.61-18.17,22.46-22,58.3,4.8,62.84-3.4-13.12-7.95-9.09-15.9-9.09-15.9s14.9,8,32.56-1.9c-18.93-6.31-23.09-14.38-23.09-14.38s48.83-2,55.27-40.51c-16.53,17.54-56.79,12.5-56.79,12.5A27.59,27.59,0,0,0,248.53,268c-63.59,31-117.09-6.56-113.31-14.39C164.75,231.86,231.88,265.3,243,217c-15.64-2.65-16.9-8.08-16.9-8.08s6.56-18.67,24.6-20.82c-4.61-9.15-31.53,7.16-63.22,12.5-28.14,4.73-61.7-1.89-61.7-1.89s15.76-29.16,49.34-16a45,45,0,0,0-13.76-21.82s19.06,3.66,32.18-26.5c-68.9,24.35-134.77,3.4-132.87-3.41,15.76-26.75,44,4.29,70.79-17.41-19.44-9.6-18.18-22.72-18.18-22.72s35.84,14.14,47.2,4c-8.83-7.82-7.07-16.53-7.07-16.53s48-4.16,48.84-26.5c-18.59,4.2-26.6-13.49-40-19.3-16-6.93-35.72-2.65-35.72-2.65S141,25.67,140.9,14.31c-8.2,8.08-28,6.44-28,6.44s17.55-10.47,12.88-18.93C111.11,12.08,86,30.46,40.58,26.18,11.86,23.47,3.12,9.76.57,0L0,0V411.42c21.67,26.08,64.31,50,96,60.1-.64-.71-9-16.06-9-16.06s96.91,23.47,106.51,12c-8.08-7.19-8-15.9-8-15.9s42.54,29.4,83.29-8.71c24.61-25.24,64-14.13,68.77-24.73-21.19-.51-22.21-27.89-22.21-27.89S340.15,395.15,354.4,370.92Z" fill="#122007"/></svg>