<svg xmlns="http://www.w3.org/2000/svg" viewBox="0 0 306.66 327.72"><title>forest-bg-branchРесурс 4</title><path d="M0,126.57v37.57c.54,1.42,1.13,2.83,1.82,4.23C9.68,188.27,17.4,205,24.3,224.65,31,243.19,34.87,263.36,47.89,278.4c-3-4.32-4.54-6.89-4.54-6.89s28,31.57,47.54,35.81a73.94,73.94,0,0,1,9.27-19.67s7.77,25.29,29.37,33.26c-2.75-11.53,3-21.3,3-21.3s23.6,25.46,57,28.11C182,315,179,298.24,179,298.24s35.92-12.89,91.85,14.68a46.6,46.6,0,0,0-18-27.95s34.39,21.18,53.84,8.6c-17-3.51-32.9-20-32.9-20s11.73-.22,14.49-9.92C256.88,266.05,218,245.55,218,245.55a19.38,19.38,0,0,0,10.75-11.5c-27.26,8-80.27-10.9-113.55-35.27A142.83,142.83,0,0,1,92.46,178c3.92,2.64,7.92,4.6,11.57,5-7.06-12.61.13-20.06.13-20.06s17.92,20.32,34.2,19.31c-5.94-17.3-4.38-24.95,5-29.79,9.08-4.66,18.16,11.36,32.81,4.55-13-11.61-13.39-29.28-13.39-29.28s17.42,21.45,42.65,9.85c-14.88-6.82-12.36-13.63-12.36-13.63s25,.25,34.45-18.17c-19.56,8.33-37.86,0-37.86,0s12-7.07,8.33-18.93c-12.49,16.66-45.8,12.87-45.8,12.87s.75-12.87,10.21-18.93C150,82,144.41,109,105.55,108c-34.32-.89-73-22.25-75.45-34.62C45.68,79.7,62.59,81,73.83,94.92c4.9-5.24-.76-14-.76-14s8-5.3,25.37,7.2c.38-22.34-18.55-28.4-18.55-28.4s29.53,1.52,47.32,18.18c5.3-21.21-9.47-29.15-9.47-29.15s17,.75,46.19,17.41c2.27-20.44-22.72-22.34-22.72-22.34S156.73,31.7,208.6,25.26a49.92,49.92,0,0,0-50.73-4.54s-6.43-7.19,9.46-20.44C138.94-3.51,92.76,32.46,92.76,32.46s-5.68-10.6,12.87-23.85c-12.12-3.41-28,19.68-53,23.85C32,35.89,7.87,32.9,0,31.74v94.83Z" fill="#122007"/></svg>