<svg xmlns="http://www.w3.org/2000/svg" viewBox="0 0 379.9 446.79"><title>forest-bg-branchРесурс 5</title><path d="M379.9,131.54V24.24l-1.07.11C333.4,28.64,308.3,10.26,293.65,0,289,8.45,306.52,18.93,306.52,18.93s-19.81,1.64-28-6.44C278.38,23.85,292.89,28,292.89,28s-19.7-4.27-35.71,2.65c-13.4,5.81-21.42,23.51-40,19.31C218.06,72.3,266,76.47,266,76.47S267.78,85.18,259,93c11.35,10.1,47.2-4,47.2-4s1.25,13.12-18.18,22.72a3.92,3.92,0,0,1,.32.25c-17,8.16-71.2,18.43-127.4-1.43C174,140.66,193.06,137,193.06,137a45,45,0,0,0-13.75,21.82c33.56-13.12,49.34,16,49.34,16s-33.56,6.63-61.7,1.89c-31.69-5.33-58.61-21.64-63.22-12.49,18,2.14,24.6,20.82,24.6,20.82s-1.27,5.43-16.91,8.08c11.11,48.33,78.24,14.89,107.77,36.59,3.78,7.83-49.72,45.43-113.31,14.39a27.5,27.5,0,0,0,1.63,16.65s-40.25,5.05-56.78-12.49C57.16,286.78,106,288.8,106,288.8s-4.17,8.07-23.09,14.38c17.66,9.84,32.55,1.9,32.55,1.9s4,7.94-9.08,15.89c4.54,8.21,40.38-18.54,62.83,3.41,4.8,8.08-33.31,29.28-91.61,18.17,1,8.08,6.82,9.84,6.82,9.84s-52,7.32-84.42-5.29c14.26,24.22,39,19.3,39,19.3s-1,27.38-22.21,27.89c4.79,10.6,44.17-.51,68.78,24.73,40.75,38.11,83.28,8.71,83.28,8.71s.12,8.7-8,15.9c9.59,11.48,106.5-12,106.5-12a107,107,0,0,1-14.74,13.91c18.73-2.79,37.1-8.81,52.89-21,15-11,33-19,52-21a162.49,162.49,0,0,1-11,33.61c3-.83,6-1.68,9-2.61,9.87-3,19.14-10.69,24.36-19.88V136.46" fill="#122007"/></svg>