<svg xmlns="http://www.w3.org/2000/svg" viewBox="0 0 243 302"><defs/><path d="M228 87h-1l-1-1 1 1h1a37 37 0 00-9-5c-28-7-67-27-96-82-12 11-11 24-11 24s-55 12-86-4c-6 21 32 23 32 23s5 13-8 21c11 10 35-1 35-1s10 17-1 33c14 11 60-2 60-2a33 33 0 01-8 20c-16 1-32-3-46-13-4 8 8 23 8 23s-49 1-61-15c-3 11 7 17 7 17s-24-7-44 10c10 0 14 19 24 30 10 12 25 16 25 16a20 20 0 01-11 16c14 8 55-5 55-5s-5 12-11 19c25 3 39-19 39-19s2 8 0 16a60 60 0 01-10-4c-2 9 16 17 16 17l-12 3c-12-4-19-10-26-8 6 2 11 6 14 9-8 0-16 0-22-2-2 10 6 14 6 14-9 3-20 3-28-2 0 9 7 12 11 14-6 2-14 3-24 0 0 4 6 7 13 11a47 47 0 01-20 4c12 11 29 7 36 5a24 24 0 013 3c0 3-1 7-7 13a36 36 0 0012-1c7 0 17-5 26-9a39 39 0 01-4 17c17 1 19-17 29-16 11 0 15 7 16 25 12-4 20-20 23-27l4-2c3 2 6 7 5 17 9-5 16-21 19-30l5-3a29 29 0 018 20c11-3 7-30 21-36a19 19 0 018-3V91a47 47 0 01-15-4z" fill="#122007"/></svg>