<?xml version="1.0" encoding="UTF-8"?>
<!DOCTYPE svg PUBLIC "-//W3C//DTD SVG 1.1//EN" "http://www.w3.org/Graphics/SVG/1.1/DTD/svg11.dtd">
<!-- Creator: CorelDRAW 2017 -->
<svg xmlns="http://www.w3.org/2000/svg" xml:space="preserve" width="1140px" height="1612px" version="1.1" style="shape-rendering:geometricPrecision; text-rendering:geometricPrecision; image-rendering:optimizeQuality; fill-rule:evenodd; clip-rule:evenodd"
viewBox="0 0 3021.34 4273.04"
 xmlns:xlink="http://www.w3.org/1999/xlink">
 <defs>
  <style type="text/css">
   <![CDATA[
    .fil1 {fill:#7E2100}
    .fil5 {fill:url(#id0)}
    .fil3 {fill:url(#id1)}
    .fil2 {fill:url(#id2)}
    .fil4 {fill:url(#id3)}
    .fil0 {fill:url(#id4)}
   ]]>
  </style>
  <linearGradient id="id0" gradientUnits="userSpaceOnUse" x1="2914.67" y1="3516.44" x2="3043.74" y2="3516.4">
   <stop offset="0" style="stop-opacity:1; stop-color:#5C2E00"/>
   <stop offset="1" style="stop-opacity:1; stop-color:#FFF6D4"/>
  </linearGradient>
  <linearGradient id="id1" gradientUnits="userSpaceOnUse" xlink:href="#id0" x1="141.38" y1="2960.44" x2="-130.9" y2="2960.88">
  </linearGradient>
  <linearGradient id="id2" gradientUnits="userSpaceOnUse" xlink:href="#id0" x1="2770.62" y1="1280.1" x2="3073.8" y2="1280.42">
  </linearGradient>
  <linearGradient id="id3" gradientUnits="userSpaceOnUse" xlink:href="#id0" x1="141.41" y1="830.73" x2="-137.85" y2="830.68">
  </linearGradient>
  <linearGradient id="id4" gradientUnits="userSpaceOnUse" x1="-644.7" y1="2194.57" x2="3283.76" y2="2184.42">
   <stop offset="0" style="stop-opacity:1; stop-color:#744A1A"/>
   <stop offset="0.258824" style="stop-opacity:1; stop-color:#FFF1BF"/>
   <stop offset="0.509804" style="stop-opacity:1; stop-color:white"/>
   <stop offset="0.85098" style="stop-opacity:1; stop-color:#FFF1BF"/>
   <stop offset="1" style="stop-opacity:1; stop-color:#714617"/>
  </linearGradient>
 </defs>
 <g id="Слой_x0020_1">
  <metadata id="CorelCorpID_0Corel-Layer"/>
  <g id="_102238592">
   <path class="fil0" d="M3021.34 0l-3021.34 0 0 203.27 177.77 7.62 -177.77 11.57 0 152.29 147.31 9.66 -147.31 12.05 0 225.81 77.46 1.13 -77.46 12.56 0 2597.88c122.49,119.19 0,64.31 0,126.21 0,78.99 0,812.43 0,912.99l3021.34 0 0 -412.78 -31.96 -4.26 31.96 -13.1 0 -77.34c-62.26,-10.03 -124.51,-20.07 -186.77,-30.1 151.08,-24.33 158.78,-37.24 186.77,-72.99 0,-177.79 0,-355.58 0,-533.38 -5.58,-25.01 -25.75,-29.08 -26.25,-56.62 26.25,-3.97 20.67,-17.45 26.25,-16.98l0 -2146.78c-9.97,1.83 -20.86,4.01 -32.66,6.54 6.73,-20.12 -11.89,-26.89 -55.83,-20.3 4.76,-8.19 -4.97,-14.96 -29.18,-20.3 57.84,2.69 97.06,-1.18 117.67,-11.61l0 -863.04z"/>
   <path class="fil1" d="M2981.08 925.89c-1.85,-26.62 -24.79,-31.06 -55.83,-19.35 5.62,-9.1 -1.58,-19.73 -21.58,-31.89 24.21,5.34 33.94,12.11 29.18,20.3 43.94,-6.59 62.56,0.18 55.83,20.3 11.8,-2.53 22.69,-4.71 32.66,-6.54l0 15.24c-9.49,-1.74 -22.8,-1.7 -40.26,1.94zm-2803.31 -715c-110.3,14.38 -169.55,35.47 -177.77,63.27l0 -51.7 177.77 -11.57zm-177.77 185.57l147.31 -12.05c-64.59,9.48 -113.7,23.15 -147.31,41.02l0 -28.97zm0 239.5l77.46 -12.56c-30.8,8.95 -56.62,19.85 -77.46,32.71l0 -20.15z"/>
   <path class="fil1" d="M3021.34 3813.52c-38.37,-28.21 -100.63,-54.23 -186.77,-78.06 62.26,10.03 124.51,20.07 186.77,30.1l0 47.96zm-31.96 42.48l31.96 4.26 0 15.68c-9.33,-8.51 -19.99,-15.16 -31.96,-19.94zm31.96 -714.07c-3.45,-9.41 -7.79,-17.66 -13,-24.75 -13.82,-20.99 -18.24,-35.89 -13.25,-44.71 0.5,27.54 20.67,31.61 26.25,56.62 0,4.28 0,8.56 0,12.84zm-2966.96 165.11c0.58,20.18 -12.74,34.1 -39.95,41.76 -4.8,1.47 -9.61,6.16 -14.43,14.06l0 -2.81c0,-40.51 52.46,-31 54.38,-53.01zm-54.38 55.82c4.82,-7.9 9.63,-12.59 14.43,-14.06 -4.8,1.47 -9.61,6.16 -14.43,14.06z"/>
   <path class="fil2" d="M2856.36 1446.66c22.98,-22.93 24.32,-79.95 3.99,-171.05 -8.64,-37.06 3.36,-65.6 36,-85.6 51.47,-0.83 68.8,-6.53 52,-17.08 -49.27,-15.72 -58.08,-27.84 -26.42,-36.36 14.21,-3.23 14.87,-7.7 2,-13.38 -18.29,-21.34 -20.26,-38.67 -5.92,-51.98 62.53,-34.18 89.42,-55.59 80.65,-64.24 -3.04,-33.61 4.52,-60.91 22.68,-81.9l0 707.38c-3.58,-2.1 -7.21,-4.22 -10.88,-6.38 -36.61,-17.04 -49.7,-29.03 -39.27,-36 24.47,-20.1 -2.24,-52.19 -80.15,-96.28 -34.93,-18.99 -46.48,-34.7 -34.68,-47.13z"/>
   <path class="fil3" d="M0 2711.29l0 496.44c10.32,-7.46 22.99,-15.88 38.02,-25.27 12.55,-13.31 10.82,-30.64 -5.18,-51.98 -11.26,-5.68 -10.67,-10.15 1.75,-13.39 27.7,-8.51 19.99,-20.63 -23.11,-36.35 -14.69,-10.55 0.47,-16.25 45.49,-17.09 28.56,-20 39.06,-48.53 31.49,-85.6 -17.77,-91.1 -16.61,-148.11 3.49,-171.04 10.33,-12.43 0.22,-28.14 -30.34,-47.14 -28.21,-18.24 -48.75,-34.44 -61.61,-48.58z"/>
   <path class="fil4" d="M0 951.35l0 -242.11c10.87,3.64 24.22,7.75 40.04,12.33 13.22,6.49 11.4,14.94 -5.45,25.35 -11.86,2.77 -11.25,4.95 1.84,6.53 29.17,4.15 21.06,10.06 -24.34,17.72 -15.48,5.15 0.49,7.93 47.91,8.34 30.08,9.75 41.14,23.67 33.17,41.74 -18.72,44.43 -17.5,72.24 3.67,83.42 10.89,6.06 0.24,13.72 -31.95,22.99 -29.71,8.9 -51.34,16.79 -64.89,23.69z"/>
   <path class="fil5" d="M3021.34 3632.11c-53.12,-15.22 -72.65,-36.94 -58.57,-65.14 33.06,-69.33 30.89,-112.71 -6.5,-130.17 -19.22,-9.45 -0.41,-21.41 56.43,-35.86l8.64 -2.31 0 233.48z"/>
  </g>
 </g>
</svg>
