<svg xmlns="http://www.w3.org/2000/svg" width="1140" height="1612" viewBox="0 0 3021 4273" xmlns:xlink="http://www.w3.org/1999/xlink" shape-rendering="geometricPrecision" text-rendering="geometricPrecision" image-rendering="optimizeQuality" fill-rule="evenodd" clip-rule="evenodd"><defs/><defs><linearGradient id="a" gradientUnits="userSpaceOnUse" x1="2914.7" y1="3516.4" x2="3043.7" y2="3516.4"><stop offset="0" stop-color="#5c2e00"/><stop offset="1" stop-color="#fff6d4"/></linearGradient><linearGradient id="d" gradientUnits="userSpaceOnUse" xlink:href="#a" x1="141.4" y1="2960.4" x2="-130.9" y2="2960.9"/><linearGradient id="c" gradientUnits="userSpaceOnUse" xlink:href="#a" x1="2770.6" y1="1280.1" x2="3073.8" y2="1280.4"/><linearGradient id="e" gradientUnits="userSpaceOnUse" xlink:href="#a" x1="141.4" y1="830.7" x2="-137.8" y2="830.7"/><linearGradient id="b" gradientUnits="userSpaceOnUse" x1="-644.7" y1="2194.6" x2="3283.8" y2="2184.4"><stop offset="0" stop-color="#744a1a"/><stop offset=".3" stop-color="#fff1bf"/><stop offset=".5" stop-color="#fff"/><stop offset=".9" stop-color="#fff1bf"/><stop offset="1" stop-color="#714617"/></linearGradient></defs><path d="M3021 0H0v203l178 8L0 222v153l147 9L0 396v226l77 1-77 13v2598c122 119 0 64 0 126v913h3021v-413l-32-4 32-13v-77l-186-31c151-24 158-37 186-73v-533c-5-25-25-29-26-57 26-3 21-17 26-17V909l-32 6c6-20-12-27-56-20 5-8-5-15-29-20 58 2 97-2 117-12V0z" fill="url(#b)"/><path d="M2981 926c-2-27-25-31-56-19 6-10-1-20-21-32 24 5 34 12 29 20 44-7 62 0 56 20l32-6v15c-9-2-22-2-40 2zM178 211C67 225 8 246 0 274v-52l178-11zM0 396l147-12C83 394 34 408 0 425v-29zm0 240l77-13c-30 9-56 20-77 33v-20zm3021 3178c-38-29-100-55-186-79l186 31v48zm-32 42l32 4v16c-9-9-20-15-32-20zm32-714c-3-9-7-18-13-25-13-21-18-36-13-45 1 28 21 32 26 57v13zM54 3307c1 20-12 34-40 42-4 1-9 6-14 14v-3c0-40 52-31 54-53zm-54 56c5-8 10-13 14-14-4 1-9 6-14 14z" fill="#7e2100"/><path d="M2856 1447c23-23 25-80 4-171-8-37 4-66 36-86 52-1 69-7 52-17-49-16-58-28-26-36 14-4 15-8 2-14-18-21-20-38-6-52 63-34 89-55 81-64-3-34 4-61 22-82v707l-11-6c-36-17-49-29-39-36 25-20-2-52-80-96-35-19-46-35-35-47z" fill="url(#c)"/><path d="M0 2711v497l38-26c13-13 11-30-5-52-11-5-11-10 2-13 27-8 20-21-24-36-14-11 1-17 46-17 29-20 39-49 31-86-17-91-16-148 4-171 10-12 0-28-30-47-29-18-49-35-62-49z" fill="url(#d)"/><path d="M0 951V709l40 13c13 6 11 15-5 25-12 3-12 5 1 6 30 5 21 11-24 18-15 5 1 8 48 9 30 9 41 23 33 41-19 45-17 72 4 84 11 6 0 13-32 23-30 9-51 16-65 23z" fill="url(#e)"/><path d="M3021 3632c-53-15-72-37-58-65 33-69 31-113-7-130-19-10 0-22 57-36l8-2v233z" fill="url(#a)"/></svg>