<svg xmlns="http://www.w3.org/2000/svg" width="1254" height="160" viewBox="0 0 2881 368" xmlns:xlink="http://www.w3.org/1999/xlink" shape-rendering="geometricPrecision" text-rendering="geometricPrecision" image-rendering="optimizeQuality" fill-rule="evenodd" clip-rule="evenodd"><defs/><defs><linearGradient id="id0" gradientUnits="userSpaceOnUse" x1="26" y1="193" x2="209" y2="193"><stop offset="0" stop-color="#7e0300"/><stop offset="1" stop-color="#d19563"/></linearGradient><linearGradient id="id1" gradientUnits="userSpaceOnUse" xlink:href="#id0" x1="270" y1="109" x2="407" y2="109"/><linearGradient id="id2" gradientUnits="userSpaceOnUse" x1="198" y1="296" x2="198" y2="212"><stop offset="0" stop-color="#5c2e00"/><stop offset=".3" stop-color="#fff1bf"/><stop offset=".5" stop-color="#fff"/><stop offset=".9" stop-color="#fff1bf"/><stop offset="1" stop-color="#5c2e00"/></linearGradient><linearGradient id="id3" gradientUnits="userSpaceOnUse" x1="76" y1="199" x2="395" y2="182"><stop offset="0" stop-color="#ab8b44"/><stop offset="1" stop-color="#3d2105"/></linearGradient><linearGradient id="id4" gradientUnits="userSpaceOnUse" xlink:href="#id0" x1="2715" y1="128" x2="2887" y2="128"/><linearGradient id="id5" gradientUnits="userSpaceOnUse" x1="181" y1="199" x2="-310" y2="224"><stop offset="0" stop-color="#b89141"/><stop offset="1" stop-color="#fefefe"/></linearGradient><linearGradient id="id6" gradientUnits="userSpaceOnUse" x1="-647" y1="393" x2="345" y2="-21"><stop offset="0" stop-color="#fff1bf"/><stop offset="1" stop-color="#5c2e00"/></linearGradient><linearGradient id="id7" gradientUnits="userSpaceOnUse" xlink:href="#id0" x1="2815" y1="80" x2="2893" y2="80"/><linearGradient id="id8" gradientUnits="userSpaceOnUse" xlink:href="#id5" x1="1268" y1="175" x2="6685" y2="168"/><linearGradient id="id9" gradientUnits="userSpaceOnUse" xlink:href="#id2" x1="1314" y1="380" x2="1314" y2="0"/></defs><g id="Слой_x0020_1"><g id="_800121824"><path d="M129 366c1134-49 2009-48 2624 1l22-39 39 6c33-45 53-79 66-181 3-20-4-46-15-76-23-2-40 1-51 4 10-8 27-12 33-19-17-17-16-26-44-38-15 7-23 10-53 7-3-2-18-14-29-20l-28-12C2372 30 1608 39 117 24l-28 1L5 227c17 75 66 129 123 138z" fill="url(#id8)"/><path d="M134 367h2-2zm4-1c1130-48 2001-48 2615 2 15-23 84-146 77-236-9 0-15-1-15-2l-2-8c-30 2-65 7-105 13 43-10 76-19 100-28-15-32-46-73-87-96l-28-12C2370 30 1625 14 117-1c59 1 111 34 141 84 66 5 228 19 108 19-19 0-64-1-98 1 11 24 17 51 17 80 0 93-64 170-147 182z" fill="url(#id9)"/><path d="M2831 134c-32-1-71 0-117 1 45-7 84-12 115-14l1 13z" fill="url(#id4)"/><path d="M133 367c86-9 154-87 154-183C287 83 212 1 119 0c-17 1-33 7-47 16 8 5 24 8 47 9-23 0-45 2-66 6C19 65-2 121 1 182c5 98 62 174 131 184h2z" fill="url(#id6)"/><path d="M230 320c-25 24-56 41-91 46l-6 1h-2c-38-5-73-32-97-71l9-3c-4-8 5-15 27-25l-49 3-7-19c-5-17-7-35-7-53 0-42 13-80 34-109 19-22 61-28 106-29-33-2-55-5-67-9 20-13 43-20 67-20 37 0 71 18 96 46 25 29 41 69 43 113-2 51-23 96-56 128z" fill="url(#id5)"/><path class="fil5" d="M146 32h66c19 14 34 31 47 52 66 5 228 19 108 19-19 0-64-1-98 1 11 24 17 51 17 80v8c-2-45-18-85-43-113-25-29-59-46-96-46z"/><path d="M181 74c58 0 105 56 105 125s-47 125-105 125S76 268 76 199c0-19 3-36 9-52 28-8 68-13 121-15-57-3-93-7-107-12 19-28 49-47 82-47z" fill="url(#id3)"/><path class="fil5" d="M230 320l-5 5h-45l16-1c17-3 33-11 47-23 6-5 12-12 19-21-5 10-12 19-19 27l-13 14zm0 0l13-14-13 14z"/><path d="M285 218c-7 44-43 78-88 84-36-6-63-36-63-72l1-13h151z" fill="url(#id2)"/><path d="M181 74h58l4 5c25 29 41 69 43 113v3c-2-67-48-121-105-121z" fill="#7e0300"/><path d="M285 218c-4 35-21 65-44 84h-45c46-6 82-41 88-84z" fill="#5e0c0a"/><path d="M63 92l-37 23c4-9 9-17 15-25 7-9 18-15 31-19 18-6 41-9 65-9-26 7-50 17-74 30zm22 55c27-8 66-13 118-14-58 7-99 18-123 32l5-18zm111 176l13-3-12 3zM34 296l9-3c-4-8 5-15 27-25-18 14-23 25-15 34l-12 6-8-12z" fill="url(#id0)"/><path d="M274 115c68-4 115-7 133-13l-40 1c-19 0-64-1-98 1l5 11z" fill="url(#id1)"/><path d="M2815 82c19 1 36-1 53 1l-2-5c-23-2-40 1-51 4z" fill="url(#id7)"/></g></g></svg>