<?xml version="1.0" encoding="UTF-8"?>
<!DOCTYPE svg PUBLIC "-//W3C//DTD SVG 1.1//EN" "http://www.w3.org/Graphics/SVG/1.1/DTD/svg11.dtd">
<!-- Creator: CorelDRAW 2017 -->
<svg xmlns="http://www.w3.org/2000/svg" xml:space="preserve" width="1254px" height="160px" version="1.1" style="shape-rendering:geometricPrecision; text-rendering:geometricPrecision; image-rendering:optimizeQuality; fill-rule:evenodd; clip-rule:evenodd"
viewBox="0 0 2881 368"
 xmlns:xlink="http://www.w3.org/1999/xlink">
 <defs>
  <style type="text/css">
   <![CDATA[
    .fil5 {fill:#5C2E00}
    .fil9 {fill:#5E0C0A}
    .fil8 {fill:#7E0300}
    .fil10 {fill:url(#id0)}
    .fil11 {fill:url(#id1)}
    .fil7 {fill:url(#id2)}
    .fil6 {fill:url(#id3)}
    .fil2 {fill:url(#id4)}
    .fil4 {fill:url(#id5)}
    .fil3 {fill:url(#id6)}
    .fil12 {fill:url(#id7)}
    .fil0 {fill:url(#id8)}
    .fil1 {fill:url(#id9)}
   ]]>
  </style>
  <linearGradient id="id0" gradientUnits="userSpaceOnUse" x1="26" y1="175" x2="209" y2="175">
   <stop offset="0" style="stop-opacity:1; stop-color:#7E0300"/>
   <stop offset="1" style="stop-opacity:1; stop-color:#D19563"/>
  </linearGradient>
  <linearGradient id="id1" gradientUnits="userSpaceOnUse" xlink:href="#id0" x1="270" y1="259" x2="407" y2="259">
  </linearGradient>
  <linearGradient id="id2" gradientUnits="userSpaceOnUse" x1="198" y1="60" x2="198" y2="144">
   <stop offset="0" style="stop-opacity:1; stop-color:#5C2E00"/>
   <stop offset="0.258824" style="stop-opacity:1; stop-color:#FFF1BF"/>
   <stop offset="0.509804" style="stop-opacity:1; stop-color:white"/>
   <stop offset="0.85098" style="stop-opacity:1; stop-color:#FFF1BF"/>
   <stop offset="1" style="stop-opacity:1; stop-color:#5C2E00"/>
  </linearGradient>
  <linearGradient id="id3" gradientUnits="userSpaceOnUse" x1="76" y1="152" x2="395" y2="168">
   <stop offset="0" style="stop-opacity:1; stop-color:#AB8B44"/>
   <stop offset="1" style="stop-opacity:1; stop-color:#3D2105"/>
  </linearGradient>
  <linearGradient id="id4" gradientUnits="userSpaceOnUse" xlink:href="#id0" x1="2715" y1="240" x2="2887" y2="240">
  </linearGradient>
  <linearGradient id="id5" gradientUnits="userSpaceOnUse" x1="181" y1="193" x2="-310" y2="168">
   <stop offset="0" style="stop-opacity:1; stop-color:#B89141"/>
   <stop offset="1" style="stop-opacity:1; stop-color:#FEFEFE"/>
  </linearGradient>
  <linearGradient id="id6" gradientUnits="userSpaceOnUse" x1="-647" y1="-21" x2="345" y2="394">
   <stop offset="0" style="stop-opacity:1; stop-color:#FFF1BF"/>
   <stop offset="1" style="stop-opacity:1; stop-color:#5C2E00"/>
  </linearGradient>
  <linearGradient id="id7" gradientUnits="userSpaceOnUse" xlink:href="#id0" x1="2815" y1="288" x2="2893" y2="288">
  </linearGradient>
  <linearGradient id="id8" gradientUnits="userSpaceOnUse" xlink:href="#id5" x1="1268" y1="168" x2="6685" y2="175">
  </linearGradient>
  <linearGradient id="id9" gradientUnits="userSpaceOnUse" xlink:href="#id2" x1="1314" y1="0" x2="1314" y2="380">
  </linearGradient>
 </defs>
 <g id="Слой_x0020_1">
  <metadata id="CorelCorpID_0Corel-Layer"/>
  <g id="_800122048">
   <path class="fil0" d="M129 1c1134,49 2009,48 2624,-1 8,13 14,24 22,39l0 0c8,-1 29,-5 39,-6 33,45 53,79 66,181 3,20 -4,46 -15,76 -23,2 -40,-1 -51,-4 10,8 27,12 33,19 -17,17 -16,26 -44,38 -15,-7 -23,-10 -53,-7 -3,2 -18,14 -29,20 -10,5 -13,6 -28,12 -321,-31 -1085,-40 -2576,-25l0 0c-9,0 -19,0 -28,-1l-84 -202c17,-75 66,-129 123,-138z"/>
   <path class="fil1" d="M134 1c1,0 2,0 2,0 -1,0 -2,0 -2,0zm4 1c1130,48 2001,48 2615,-2 15,23 84,146 77,236 -9,0 -15,1 -15,2 -1,3 -1,5 -2,8 -30,-2 -65,-7 -105,-13 43,10 76,19 100,28 -15,32 -46,73 -87,96 -9,4 -18,8 -28,12 -323,-31 -1068,-15 -2576,0l0 0c59,-1 111,-34 141,-84 66,-5 228,-19 108,-19 -19,0 -64,1 -98,-1 11,-24 17,-51 17,-80 0,-93 -64,-170 -147,-182z"/>
   <path class="fil2" d="M2831 234c-32,1 -71,0 -117,-1 45,7 84,12 115,14 1,-4 1,-9 1,-13z"/>
   <path class="fil3" d="M133 1c86,9 154,87 154,183 0,101 -75,183 -168,184 -17,-1 -33,-7 -47,-16 8,-5 24,-8 47,-9 -23,0 -45,-2 -66,-6 -34,-34 -55,-90 -52,-151 5,-98 62,-174 131,-184 0,0 1,0 2,0z"/>
   <path class="fil4" d="M230 48c-25,-24 -56,-41 -91,-46 -2,0 -4,-1 -6,-1 0,0 -1,0 -1,0l0 0 0 0 0 0 0 0 0 0 0 0 0 0 0 0 0 0 0 0 0 0 0 0c0,0 0,0 -1,0l0 0 0 0c-38,5 -73,32 -97,71 3,1 6,2 9,3 -4,8 5,15 27,25 -10,-1 -26,-2 -49,-3 -3,6 -5,12 -7,19 -5,17 -7,35 -7,53 0,42 13,80 34,109 19,22 61,28 106,29 -33,2 -55,5 -67,9 20,13 43,20 67,20 37,0 71,-18 96,-46 25,-29 41,-69 43,-113 -2,-51 -23,-96 -56,-128z"/>
   <path class="fil5" d="M146 335l66 0c19,-14 34,-31 47,-52 66,-5 228,-19 108,-19 -19,0 -64,1 -98,-1 11,-24 17,-51 17,-80 0,-3 0,-5 0,-8 -2,45 -18,85 -43,113 -25,29 -59,46 -96,46z"/>
   <path class="fil6" d="M181 294c58,0 105,-56 105,-125 0,-69 -47,-125 -105,-125 -58,0 -105,56 -105,125 0,19 3,36 9,52 28,8 68,13 121,15 -57,3 -93,7 -107,12 19,28 49,47 82,47z"/>
   <g>
    <path class="fil5" d="M230 48c-2,-2 -3,-3 -5,-5l-45 0c5,0 11,0 16,1 17,3 33,11 47,23 6,5 12,12 19,21 -5,-10 -12,-19 -19,-27l-13 -14zm0 0c4,4 9,9 13,14 -4,-5 -8,-9 -13,-14z"/>
   </g>
   <path class="fil7" d="M285 150c-7,-44 -43,-78 -88,-84 -36,6 -63,36 -63,72 0,4 0,8 1,13l151 0c0,0 0,0 0,0z"/>
   <path class="fil8" d="M181 294l58 0c1,-2 3,-3 4,-5 25,-29 41,-69 43,-113 0,-1 0,-2 0,-3l0 0c-2,67 -48,121 -105,121z"/>
   <path class="fil9" d="M285 150c-4,-35 -21,-65 -44,-84l-45 0c46,6 82,41 88,84z"/>
   <path class="fil10" d="M63 275c-13,-7 -25,-15 -37,-23 4,9 9,17 15,25 7,9 18,15 31,19 18,6 41,9 65,9 -26,-7 -50,-17 -74,-30zm22 -55c27,8 66,13 118,14 -58,-7 -99,-18 -123,-32 1,6 3,12 5,18zm111 -176c4,1 8,2 13,3 -4,-1 -8,-2 -12,-3 0,0 0,0 0,0zm-162 27c3,1 6,2 9,3 -4,8 5,15 27,25 -18,-14 -23,-25 -15,-34l-12 -6c-3,4 -5,8 -8,12z"/>
   <path class="fil11" d="M274 252c68,4 115,7 133,13 -5,-1 -18,-1 -40,-1 -19,0 -64,1 -98,-1 2,-4 3,-7 5,-11z"/>
   <path class="fil12" d="M2815 286c19,-1 36,1 53,-1 -1,2 -1,4 -2,5 -23,2 -40,-1 -51,-4z"/>
  </g>
 </g>
</svg>
